{
.appVersion = "3343";
.formatVersion = 3;
axes = (
{
name = Weight;
tag = wght;
}
);
date = "2024-04-26 16:10:13 +0000";
familyName = "Gabi’s Pixel Font";
fontMaster = (
{
axesValues = (
0
);
customParameters = (
{
name = typoAscender;
value = 1600;
},
{
name = typoDescender;
value = -200;
},
{
name = typoLineGap;
value = 0;
},
{
name = winAscent;
value = 1600;
},
{
name = winDescent;
value = 200;
},
{
name = hheaAscender;
value = 1600;
},
{
name = hheaDescender;
value = -200;
},
{
name = strikeoutPosition;
value = 500;
},
{
name = strikeoutSize;
value = 50;
}
);
id = m01;
metricValues = (
{
pos = 1600;
},
{
pos = 1400;
},
{
pos = 1000;
},
{
},
{
pos = -200;
},
{
}
);
name = Regular;
},
{
axesValues = (
1000
);
customParameters = (
{
name = typoAscender;
value = 1600;
},
{
name = typoDescender;
value = -200;
},
{
name = typoLineGap;
value = 0;
},
{
name = winAscent;
value = 1600;
},
{
name = winDescent;
value = 200;
},
{
name = hheaAscender;
value = 1600;
},
{
name = hheaDescender;
value = -200;
},
{
name = strikeoutPosition;
value = 500;
},
{
name = strikeoutSize;
value = 50;
}
);
id = "FEF0E8F1-F572-4E0C-8E3A-3334D1706851";
metricValues = (
{
pos = 1600;
},
{
pos = 1400;
},
{
pos = 1000;
},
{
},
{
pos = -200;
},
{
}
);
name = "wght=1000";
}
);
glyphs = (
{
glyphname = A;
lastChange = "2025-10-03 20:31:35 +0000";
layers = (
{
layerId = m01;
shapes = (
{
closed = 1;
nodes = (
(225,500,o),
(250,500,o),
(275,500,o),
(300,500,q),
(300,525,o),
(300,550,o),
(300,575,o),
(300,600,q),
(275,600,o),
(250,600,o),
(225,600,o),
(200,600,q),
(200,575,o),
(200,550,o),
(200,525,o),
(200,500,q)
);
},
{
closed = 1;
nodes = (
(125,500,o),
(150,500,o),
(175,500,o),
(200,500,q),
(200,525,o),
(200,550,o),
(200,575,o),
(200,600,q),
(175,600,o),
(150,600,o),
(125,600,o),
(100,600,q),
(100,575,o),
(100,550,o),
(100,525,o),
(100,500,q)
);
},
{
closed = 1;
nodes = (
(25,400,o),
(50,400,o),
(75,400,o),
(100,400,q),
(100,425,o),
(100,450,o),
(100,475,o),
(100,500,q),
(75,500,o),
(50,500,o),
(25,500,o),
(0,500,q),
(0,475,o),
(0,450,o),
(0,425,o),
(0,400,q)
);
},
{
closed = 1;
nodes = (
(25,300,o),
(50,300,o),
(75,300,o),
(100,300,q),
(100,325,o),
(100,350,o),
(100,375,o),
(100,400,q),
(75,400,o),
(50,400,o),
(25,400,o),
(0,400,q),
(0,375,o),
(0,350,o),
(0,325,o),
(0,300,q)
);
},
{
closed = 1;
nodes = (
(125,400,o),
(150,400,o),
(175,400,o),
(200,400,q),
(200,425,o),
(200,450,o),
(200,475,o),
(200,500,q),
(175,500,o),
(150,500,o),
(125,500,o),
(100,500,q),
(100,475,o),
(100,450,o),
(100,425,o),
(100,400,q)
);
},
{
closed = 1;
nodes = (
(525,300,o),
(550,300,o),
(575,300,o),
(600,300,q),
(600,325,o),
(600,350,o),
(600,375,o),
(600,400,q),
(575,400,o),
(550,400,o),
(525,400,o),
(500,400,q),
(500,375,o),
(500,350,o),
(500,325,o),
(500,300,q)
);
},
{
closed = 1;
nodes = (
(525,400,o),
(550,400,o),
(575,400,o),
(600,400,q),
(600,425,o),
(600,450,o),
(600,475,o),
(600,500,q),
(575,500,o),
(550,500,o),
(525,500,o),
(500,500,q),
(500,475,o),
(500,450,o),
(500,425,o),
(500,400,q)
);
},
{
closed = 1;
nodes = (
(525,500,o),
(550,500,o),
(575,500,o),
(600,500,q),
(600,525,o),
(600,550,o),
(600,575,o),
(600,600,q),
(575,600,o),
(550,600,o),
(525,600,o),
(500,600,q),
(500,575,o),
(500,550,o),
(500,525,o),
(500,500,q)
);
},
{
closed = 1;
nodes = (
(225,0,o),
(250,0,o),
(275,0,o),
(300,0,q),
(300,25,o),
(300,50,o),
(300,75,o),
(300,100,q),
(275,100,o),
(250,100,o),
(225,100,o),
(200,100,q),
(200,75,o),
(200,50,o),
(200,25,o),
(200,0,q)
);
},
{
closed = 1;
nodes = (
(425,200,o),
(450,200,o),
(475,200,o),
(500,200,q),
(500,225,o),
(500,250,o),
(500,275,o),
(500,300,q),
(475,300,o),
(450,300,o),
(425,300,o),
(400,300,q),
(400,275,o),
(400,250,o),
(400,225,o),
(400,200,q)
);
},
{
closed = 1;
nodes = (
(525,200,o),
(550,200,o),
(575,200,o),
(600,200,q),
(600,225,o),
(600,250,o),
(600,275,o),
(600,300,q),
(575,300,o),
(550,300,o),
(525,300,o),
(500,300,q),
(500,275,o),
(500,250,o),
(500,225,o),
(500,200,q)
);
},
{
closed = 1;
nodes = (
(525,100,o),
(550,100,o),
(575,100,o),
(600,100,q),
(600,125,o),
(600,150,o),
(600,175,o),
(600,200,q),
(575,200,o),
(550,200,o),
(525,200,o),
(500,200,q),
(500,175,o),
(500,150,o),
(500,125,o),
(500,100,q)
);
},
{
closed = 1;
nodes = (
(525,0,o),
(550,0,o),
(575,0,o),
(600,0,q),
(600,25,o),
(600,50,o),
(600,75,o),
(600,100,q),
(575,100,o),
(550,100,o),
(525,100,o),
(500,100,q),
(500,75,o),
(500,50,o),
(500,25,o),
(500,0,q)
);
},
{
closed = 1;
nodes = (
(325,100,o),
(350,100,o),
(375,100,o),
(400,100,q),
(400,125,o),
(400,150,o),
(400,175,o),
(400,200,q),
(375,200,o),
(350,200,o),
(325,200,o),
(300,200,q),
(300,175,o),
(300,150,o),
(300,125,o),
(300,100,q)
);
},
{
closed = 1;
nodes = (
(225,100,o),
(250,100,o),
(275,100,o),
(300,100,q),
(300,125,o),
(300,150,o),
(300,175,o),
(300,200,q),
(275,200,o),
(250,200,o),
(225,200,o),
(200,200,q),
(200,175,o),
(200,150,o),
(200,125,o),
(200,100,q)
);
},
{
closed = 1;
nodes = (
(125,200,o),
(150,200,o),
(175,200,o),
(200,200,q),
(200,225,o),
(200,250,o),
(200,275,o),
(200,300,q),
(175,300,o),
(150,300,o),
(125,300,o),
(100,300,q),
(100,275,o),
(100,250,o),
(100,225,o),
(100,200,q)
);
},
{
closed = 1;
nodes = (
(125,100,o),
(150,100,o),
(175,100,o),
(200,100,q),
(200,125,o),
(200,150,o),
(200,175,o),
(200,200,q),
(175,200,o),
(150,200,o),
(125,200,o),
(100,200,q),
(100,175,o),
(100,150,o),
(100,125,o),
(100,100,q)
);
},
{
closed = 1;
nodes = (
(125,300,o),
(150,300,o),
(175,300,o),
(200,300,q),
(200,325,o),
(200,350,o),
(200,375,o),
(200,400,q),
(175,400,o),
(150,400,o),
(125,400,o),
(100,400,q),
(100,375,o),
(100,350,o),
(100,325,o),
(100,300,q)
);
},
{
closed = 1;
nodes = (
(225,400,o),
(250,400,o),
(275,400,o),
(300,400,q),
(300,425,o),
(300,450,o),
(300,475,o),
(300,500,q),
(275,500,o),
(250,500,o),
(225,500,o),
(200,500,q),
(200,475,o),
(200,450,o),
(200,425,o),
(200,400,q)
);
},
{
closed = 1;
nodes = (
(25,200,o),
(50,200,o),
(75,200,o),
(100,200,q),
(100,225,o),
(100,250,o),
(100,275,o),
(100,300,q),
(75,300,o),
(50,300,o),
(25,300,o),
(0,300,q),
(0,275,o),
(0,250,o),
(0,225,o),
(0,200,q)
);
},
{
closed = 1;
nodes = (
(25,100,o),
(50,100,o),
(75,100,o),
(100,100,q),
(100,125,o),
(100,150,o),
(100,175,o),
(100,200,q),
(75,200,o),
(50,200,o),
(25,200,o),
(0,200,q),
(0,175,o),
(0,150,o),
(0,125,o),
(0,100,q)
);
},
{
closed = 1;
nodes = (
(125,0,o),
(150,0,o),
(175,0,o),
(200,0,q),
(200,25,o),
(200,50,o),
(200,75,o),
(200,100,q),
(175,100,o),
(150,100,o),
(125,100,o),
(100,100,q),
(100,75,o),
(100,50,o),
(100,25,o),
(100,0,q)
);
},
{
closed = 1;
nodes = (
(325,500,o),
(350,500,o),
(375,500,o),
(400,500,q),
(400,525,o),
(400,550,o),
(400,575,o),
(400,600,q),
(375,600,o),
(350,600,o),
(325,600,o),
(300,600,q),
(300,575,o),
(300,550,o),
(300,525,o),
(300,500,q)
);
},
{
closed = 1;
nodes = (
(325,0,o),
(350,0,o),
(375,0,o),
(400,0,q),
(400,25,o),
(400,50,o),
(400,75,o),
(400,100,q),
(375,100,o),
(350,100,o),
(325,100,o),
(300,100,q),
(300,75,o),
(300,50,o),
(300,25,o),
(300,0,q)
);
},
{
closed = 1;
nodes = (
(325,400,o),
(350,400,o),
(375,400,o),
(400,400,q),
(400,425,o),
(400,450,o),
(400,475,o),
(400,500,q),
(375,500,o),
(350,500,o),
(325,500,o),
(300,500,q),
(300,475,o),
(300,450,o),
(300,425,o),
(300,400,q)
);
},
{
closed = 1;
nodes = (
(425,300,o),
(450,300,o),
(475,300,o),
(500,300,q),
(500,325,o),
(500,350,o),
(500,375,o),
(500,400,q),
(475,400,o),
(450,400,o),
(425,400,o),
(400,400,q),
(400,375,o),
(400,350,o),
(400,325,o),
(400,300,q)
);
}
);
width = 600;
},
{
layerId = "FEF0E8F1-F572-4E0C-8E3A-3334D1706851";
shapes = (
{
closed = 1;
nodes = (
(210,478,o),
(251,463,o),
(291,479,o),
(300,500,q),
(326,502,o),
(343,546,o),
(322,594,o),
(300,600,q),
(300,626,o),
(247,645,o),
(196,623,o),
(200,600,q),
(178,600,o),
(157,550,o),
(175,500,o),
(200,500,q)
);
},
{
closed = 1;
nodes = (
(110,478,o),
(151,463,o),
(191,479,o),
(200,500,q),
(226,502,o),
(243,546,o),
(222,594,o),
(200,600,q),
(200,626,o),
(147,645,o),
(96,623,o),
(100,600,q),
(78,600,o),
(57,550,o),
(75,500,o),
(100,500,q)
);
},
{
closed = 1;
nodes = (
(10,378,o),
(51,363,o),
(91,379,o),
(100,400,q),
(126,402,o),
(143,446,o),
(122,494,o),
(100,500,q),
(100,526,o),
(47,545,o),
(-4,523,o),
(0,500,q),
(-22,500,o),
(-43,450,o),
(-25,400,o),
(0,400,q)
);
},
{
closed = 1;
nodes = (
(10,278,o),
(51,263,o),
(91,279,o),
(100,300,q),
(126,302,o),
(143,346,o),
(122,394,o),
(100,400,q),
(100,426,o),
(47,445,o),
(-4,423,o),
(0,400,q),
(-22,400,o),
(-43,350,o),
(-25,300,o),
(0,300,q)
);
},
{
closed = 1;
nodes = (
(110,378,o),
(151,363,o),
(191,379,o),
(200,400,q),
(226,402,o),
(243,446,o),
(222,494,o),
(200,500,q),
(200,526,o),
(147,545,o),
(96,523,o),
(100,500,q),
(78,500,o),
(57,450,o),
(75,400,o),
(100,400,q)
);
},
{
closed = 1;
nodes = (
(510,278,o),
(551,263,o),
(591,279,o),
(600,300,q),
(626,302,o),
(643,346,o),
(622,394,o),
(600,400,q),
(600,426,o),
(547,445,o),
(496,423,o),
(500,400,q),
(478,400,o),
(457,350,o),
(475,300,o),
(500,300,q)
);
},
{
closed = 1;
nodes = (
(510,378,o),
(551,363,o),
(591,379,o),
(600,400,q),
(626,402,o),
(643,446,o),
(622,494,o),
(600,500,q),
(600,526,o),
(547,545,o),
(496,523,o),
(500,500,q),
(478,500,o),
(457,450,o),
(475,400,o),
(500,400,q)
);
},
{
closed = 1;
nodes = (
(510,478,o),
(551,463,o),
(591,479,o),
(600,500,q),
(626,502,o),
(643,546,o),
(622,594,o),
(600,600,q),
(600,626,o),
(547,645,o),
(496,623,o),
(500,600,q),
(478,600,o),
(457,550,o),
(475,500,o),
(500,500,q)
);
},
{
closed = 1;
nodes = (
(210,-22,o),
(251,-37,o),
(291,-21,o),
(300,0,q),
(326,2,o),
(343,46,o),
(322,94,o),
(300,100,q),
(300,126,o),
(247,145,o),
(196,123,o),
(200,100,q),
(178,100,o),
(157,50,o),
(175,0,o),
(200,0,q)
);
},
{
closed = 1;
nodes = (
(410,178,o),
(451,163,o),
(491,179,o),
(500,200,q),
(526,202,o),
(543,246,o),
(522,294,o),
(500,300,q),
(500,326,o),
(447,345,o),
(396,323,o),
(400,300,q),
(378,300,o),
(357,250,o),
(375,200,o),
(400,200,q)
);
},
{
closed = 1;
nodes = (
(510,178,o),
(551,163,o),
(591,179,o),
(600,200,q),
(626,202,o),
(643,246,o),
(622,294,o),
(600,300,q),
(600,326,o),
(547,345,o),
(496,323,o),
(500,300,q),
(478,300,o),
(457,250,o),
(475,200,o),
(500,200,q)
);
},
{
closed = 1;
nodes = (
(510,78,o),
(551,63,o),
(591,79,o),
(600,100,q),
(626,102,o),
(643,146,o),
(622,194,o),
(600,200,q),
(600,226,o),
(547,245,o),
(496,223,o),
(500,200,q),
(478,200,o),
(457,150,o),
(475,100,o),
(500,100,q)
);
},
{
closed = 1;
nodes = (
(510,-22,o),
(551,-37,o),
(591,-21,o),
(600,0,q),
(626,2,o),
(643,46,o),
(622,94,o),
(600,100,q),
(600,126,o),
(547,145,o),
(496,123,o),
(500,100,q),
(478,100,o),
(457,50,o),
(475,0,o),
(500,0,q)
);
},
{
closed = 1;
nodes = (
(310,78,o),
(351,63,o),
(391,79,o),
(400,100,q),
(426,102,o),
(443,146,o),
(422,194,o),
(400,200,q),
(400,226,o),
(347,245,o),
(296,223,o),
(300,200,q),
(278,200,o),
(257,150,o),
(275,100,o),
(300,100,q)
);
},
{
closed = 1;
nodes = (
(210,78,o),
(251,63,o),
(291,79,o),
(300,100,q),
(326,102,o),
(343,146,o),
(322,194,o),
(300,200,q),
(300,226,o),
(247,245,o),
(196,223,o),
(200,200,q),
(178,200,o),
(157,150,o),
(175,100,o),
(200,100,q)
);
},
{
closed = 1;
nodes = (
(110,178,o),
(151,163,o),
(191,179,o),
(200,200,q),
(226,202,o),
(243,246,o),
(222,294,o),
(200,300,q),
(200,326,o),
(147,345,o),
(96,323,o),
(100,300,q),
(78,300,o),
(57,250,o),
(75,200,o),
(100,200,q)
);
},
{
closed = 1;
nodes = (
(110,78,o),
(151,63,o),
(191,79,o),
(200,100,q),
(226,102,o),
(243,146,o),
(222,194,o),
(200,200,q),
(200,226,o),
(147,245,o),
(96,223,o),
(100,200,q),
(78,200,o),
(57,150,o),
(75,100,o),
(100,100,q)
);
},
{
closed = 1;
nodes = (
(110,278,o),
(151,263,o),
(191,279,o),
(200,300,q),
(226,302,o),
(243,346,o),
(222,394,o),
(200,400,q),
(200,426,o),
(147,445,o),
(96,423,o),
(100,400,q),
(78,400,o),
(57,350,o),
(75,300,o),
(100,300,q)
);
},
{
closed = 1;
nodes = (
(210,378,o),
(251,363,o),
(291,379,o),
(300,400,q),
(326,402,o),
(343,446,o),
(322,494,o),
(300,500,q),
(300,526,o),
(247,545,o),
(196,523,o),
(200,500,q),
(178,500,o),
(157,450,o),
(175,400,o),
(200,400,q)
);
},
{
closed = 1;
nodes = (
(10,178,o),
(51,163,o),
(91,179,o),
(100,200,q),
(126,202,o),
(143,246,o),
(122,294,o),
(100,300,q),
(100,326,o),
(47,345,o),
(-4,323,o),
(0,300,q),
(-22,300,o),
(-43,250,o),
(-25,200,o),
(0,200,q)
);
},
{
closed = 1;
nodes = (
(10,78,o),
(51,63,o),
(91,79,o),
(100,100,q),
(126,102,o),
(143,146,o),
(122,194,o),
(100,200,q),
(100,226,o),
(47,245,o),
(-4,223,o),
(0,200,q),
(-22,200,o),
(-43,150,o),
(-25,100,o),
(0,100,q)
);
},
{
closed = 1;
nodes = (
(110,-22,o),
(151,-37,o),
(191,-21,o),
(200,0,q),
(226,2,o),
(243,46,o),
(222,94,o),
(200,100,q),
(200,126,o),
(147,145,o),
(96,123,o),
(100,100,q),
(78,100,o),
(57,50,o),
(75,0,o),
(100,0,q)
);
},
{
closed = 1;
nodes = (
(310,478,o),
(351,463,o),
(391,479,o),
(400,500,q),
(426,502,o),
(443,546,o),
(422,594,o),
(400,600,q),
(400,626,o),
(347,645,o),
(296,623,o),
(300,600,q),
(278,600,o),
(257,550,o),
(275,500,o),
(300,500,q)
);
},
{
closed = 1;
nodes = (
(310,-22,o),
(351,-37,o),
(391,-21,o),
(400,0,q),
(426,2,o),
(443,46,o),
(422,94,o),
(400,100,q),
(400,126,o),
(347,145,o),
(296,123,o),
(300,100,q),
(278,100,o),
(257,50,o),
(275,0,o),
(300,0,q)
);
},
{
closed = 1;
nodes = (
(310,378,o),
(351,363,o),
(391,379,o),
(400,400,q),
(426,402,o),
(443,446,o),
(422,494,o),
(400,500,q),
(400,526,o),
(347,545,o),
(296,523,o),
(300,500,q),
(278,500,o),
(257,450,o),
(275,400,o),
(300,400,q)
);
},
{
closed = 1;
nodes = (
(410,278,o),
(451,263,o),
(491,279,o),
(500,300,q),
(526,302,o),
(543,346,o),
(522,394,o),
(500,400,q),
(500,426,o),
(447,445,o),
(396,423,o),
(400,400,q),
(378,400,o),
(357,350,o),
(375,300,o),
(400,300,q)
);
}
);
width = 600;
}
);
note = a;
unicode = 65;
},
{
glyphname = B;
lastChange = "2025-10-03 20:31:35 +0000";
layers = (
{
layerId = m01;
shapes = (
{
closed = 1;
nodes = (
(125,600,o),
(150,600,o),
(175,600,o),
(200,600,q),
(200,625,o),
(200,650,o),
(200,675,o),
(200,700,q),
(175,700,o),
(150,700,o),
(125,700,o),
(100,700,q),
(100,675,o),
(100,650,o),
(100,625,o),
(100,600,q)
);
},
{
closed = 1;
nodes = (
(25,600,o),
(50,600,o),
(75,600,o),
(100,600,q),
(100,625,o),
(100,650,o),
(100,675,o),
(100,700,q),
(75,700,o),
(50,700,o),
(25,700,o),
(0,700,q),
(0,675,o),
(0,650,o),
(0,625,o),
(0,600,q)
);
},
{
closed = 1;
nodes = (
(25,500,o),
(50,500,o),
(75,500,o),
(100,500,q),
(100,525,o),
(100,550,o),
(100,575,o),
(100,600,q),
(75,600,o),
(50,600,o),
(25,600,o),
(0,600,q),
(0,575,o),
(0,550,o),
(0,525,o),
(0,500,q)
);
},
{
closed = 1;
nodes = (
(125,500,o),
(150,500,o),
(175,500,o),
(200,500,q),
(200,525,o),
(200,550,o),
(200,575,o),
(200,600,q),
(175,600,o),
(150,600,o),
(125,600,o),
(100,600,q),
(100,575,o),
(100,550,o),
(100,525,o),
(100,500,q)
);
},
{
closed = 1;
nodes = (
(25,400,o),
(50,400,o),
(75,400,o),
(100,400,q),
(100,425,o),
(100,450,o),
(100,475,o),
(100,500,q),
(75,500,o),
(50,500,o),
(25,500,o),
(0,500,q),
(0,475,o),
(0,450,o),
(0,425,o),
(0,400,q)
);
},
{
closed = 1;
nodes = (
(125,400,o),
(150,400,o),
(175,400,o),
(200,400,q),
(200,425,o),
(200,450,o),
(200,475,o),
(200,500,q),
(175,500,o),
(150,500,o),
(125,500,o),
(100,500,q),
(100,475,o),
(100,450,o),
(100,425,o),
(100,400,q)
);
},
{
closed = 1;
nodes = (
(25,300,o),
(50,300,o),
(75,300,o),
(100,300,q),
(100,325,o),
(100,350,o),
(100,375,o),
(100,400,q),
(75,400,o),
(50,400,o),
(25,400,o),
(0,400,q),
(0,375,o),
(0,350,o),
(0,325,o),
(0,300,q)
);
},
{
closed = 1;
nodes = (
(225,400,o),
(250,400,o),
(275,400,o),
(300,400,q),
(300,425,o),
(300,450,o),
(300,475,o),
(300,500,q),
(275,500,o),
(250,500,o),
(225,500,o),
(200,500,q),
(200,475,o),
(200,450,o),
(200,425,o),
(200,400,q)
);
},
{
closed = 1;
nodes = (
(325,400,o),
(350,400,o),
(375,400,o),
(400,400,q),
(400,425,o),
(400,450,o),
(400,475,o),
(400,500,q),
(375,500,o),
(350,500,o),
(325,500,o),
(300,500,q),
(300,475,o),
(300,450,o),
(300,425,o),
(300,400,q)
);
},
{
closed = 1;
nodes = (
(425,300,o),
(450,300,o),
(475,300,o),
(500,300,q),
(500,325,o),
(500,350,o),
(500,375,o),
(500,400,q),
(475,400,o),
(450,400,o),
(425,400,o),
(400,400,q),
(400,375,o),
(400,350,o),
(400,325,o),
(400,300,q)
);
},
{
closed = 1;
nodes = (
(425,200,o),
(450,200,o),
(475,200,o),
(500,200,q),
(500,225,o),
(500,250,o),
(500,275,o),
(500,300,q),
(475,300,o),
(450,300,o),
(425,300,o),
(400,300,q),
(400,275,o),
(400,250,o),
(400,225,o),
(400,200,q)
);
},
{
closed = 1;
nodes = (
(425,100,o),
(450,100,o),
(475,100,o),
(500,100,q),
(500,125,o),
(500,150,o),
(500,175,o),
(500,200,q),
(475,200,o),
(450,200,o),
(425,200,o),
(400,200,q),
(400,175,o),
(400,150,o),
(400,125,o),
(400,100,q)
);
},
{
closed = 1;
nodes = (
(425,0,o),
(450,0,o),
(475,0,o),
(500,0,q),
(500,25,o),
(500,50,o),
(500,75,o),
(500,100,q),
(475,100,o),
(450,100,o),
(425,100,o),
(400,100,q),
(400,75,o),
(400,50,o),
(400,25,o),
(400,0,q)
);
},
{
closed = 1;
nodes = (
(325,0,o),
(350,0,o),
(375,0,o),
(400,0,q),
(400,25,o),
(400,50,o),
(400,75,o),
(400,100,q),
(375,100,o),
(350,100,o),
(325,100,o),
(300,100,q),
(300,75,o),
(300,50,o),
(300,25,o),
(300,0,q)
);
},
{
closed = 1;
nodes = (
(225,0,o),
(250,0,o),
(275,0,o),
(300,0,q),
(300,25,o),
(300,50,o),
(300,75,o),
(300,100,q),
(275,100,o),
(250,100,o),
(225,100,o),
(200,100,q),
(200,75,o),
(200,50,o),
(200,25,o),
(200,0,q)
);
},
{
closed = 1;
nodes = (
(125,0,o),
(150,0,o),
(175,0,o),
(200,0,q),
(200,25,o),
(200,50,o),
(200,75,o),
(200,100,q),
(175,100,o),
(150,100,o),
(125,100,o),
(100,100,q),
(100,75,o),
(100,50,o),
(100,25,o),
(100,0,q)
);
},
{
closed = 1;
nodes = (
(25,0,o),
(50,0,o),
(75,0,o),
(100,0,q),
(100,25,o),
(100,50,o),
(100,75,o),
(100,100,q),
(75,100,o),
(50,100,o),
(25,100,o),
(0,100,q),
(0,75,o),
(0,50,o),
(0,25,o),
(0,0,q)
);
},
{
closed = 1;
nodes = (
(25,100,o),
(50,100,o),
(75,100,o),
(100,100,q),
(100,125,o),
(100,150,o),
(100,175,o),
(100,200,q),
(75,200,o),
(50,200,o),
(25,200,o),
(0,200,q),
(0,175,o),
(0,150,o),
(0,125,o),
(0,100,q)
);
},
{
closed = 1;
nodes = (
(25,200,o),
(50,200,o),
(75,200,o),
(100,200,q),
(100,225,o),
(100,250,o),
(100,275,o),
(100,300,q),
(75,300,o),
(50,300,o),
(25,300,o),
(0,300,q),
(0,275,o),
(0,250,o),
(0,225,o),
(0,200,q)
);
},
{
closed = 1;
nodes = (
(25,700,o),
(50,700,o),
(75,700,o),
(100,700,q),
(100,725,o),
(100,750,o),
(100,775,o),
(100,800,q),
(75,800,o),
(50,800,o),
(25,800,o),
(0,800,q),
(0,775,o),
(0,750,o),
(0,725,o),
(0,700,q)
);
},
{
closed = 1;
nodes = (
(125,700,o),
(150,700,o),
(175,700,o),
(200,700,q),
(200,725,o),
(200,750,o),
(200,775,o),
(200,800,q),
(175,800,o),
(150,800,o),
(125,800,o),
(100,800,q),
(100,775,o),
(100,750,o),
(100,725,o),
(100,700,q)
);
},
{
closed = 1;
nodes = (
(425,400,o),
(450,400,o),
(475,400,o),
(500,400,q),
(500,425,o),
(500,450,o),
(500,475,o),
(500,500,q),
(475,500,o),
(450,500,o),
(425,500,o),
(400,500,q),
(400,475,o),
(400,450,o),
(400,425,o),
(400,400,q)
);
},
{
closed = 1;
nodes = (
(125,300,o),
(150,300,o),
(175,300,o),
(200,300,q),
(200,325,o),
(200,350,o),
(200,375,o),
(200,400,q),
(175,400,o),
(150,400,o),
(125,400,o),
(100,400,q),
(100,375,o),
(100,350,o),
(100,325,o),
(100,300,q)
);
},
{
closed = 1;
nodes = (
(225,300,o),
(250,300,o),
(275,300,o),
(300,300,q),
(300,325,o),
(300,350,o),
(300,375,o),
(300,400,q),
(275,400,o),
(250,400,o),
(225,400,o),
(200,400,q),
(200,375,o),
(200,350,o),
(200,325,o),
(200,300,q)
);
},
{
closed = 1;
nodes = (
(125,100,o),
(150,100,o),
(175,100,o),
(200,100,q),
(200,125,o),
(200,150,o),
(200,175,o),
(200,200,q),
(175,200,o),
(150,200,o),
(125,200,o),
(100,200,q),
(100,175,o),
(100,150,o),
(100,125,o),
(100,100,q)
);
},
{
closed = 1;
nodes = (
(125,200,o),
(150,200,o),
(175,200,o),
(200,200,q),
(200,225,o),
(200,250,o),
(200,275,o),
(200,300,q),
(175,300,o),
(150,300,o),
(125,300,o),
(100,300,q),
(100,275,o),
(100,250,o),
(100,225,o),
(100,200,q)
);
},
{
closed = 1;
nodes = (
(325,200,o),
(350,200,o),
(375,200,o),
(400,200,q),
(400,225,o),
(400,250,o),
(400,275,o),
(400,300,q),
(375,300,o),
(350,300,o),
(325,300,o),
(300,300,q),
(300,275,o),
(300,250,o),
(300,225,o),
(300,200,q)
);
},
{
closed = 1;
nodes = (
(325,300,o),
(350,300,o),
(375,300,o),
(400,300,q),
(400,325,o),
(400,350,o),
(400,375,o),
(400,400,q),
(375,400,o),
(350,400,o),
(325,400,o),
(300,400,q),
(300,375,o),
(300,350,o),
(300,325,o),
(300,300,q)
);
}
);
width = 600;
},
{
layerId = "FEF0E8F1-F572-4E0C-8E3A-3334D1706851";
shapes = (
{
closed = 1;
nodes = (
(110,578,o),
(151,563,o),
(191,579,o),
(200,600,q),
(226,602,o),
(243,646,o),
(222,694,o),
(200,700,q),
(200,726,o),
(147,745,o),
(96,723,o),
(100,700,q),
(78,700,o),
(57,650,o),
(75,600,o),
(100,600,q)
);
},
{
closed = 1;
nodes = (
(10,578,o),
(51,563,o),
(91,579,o),
(100,600,q),
(126,602,o),
(143,646,o),
(122,694,o),
(100,700,q),
(100,726,o),
(47,745,o),
(-4,723,o),
(0,700,q),
(-22,700,o),
(-43,650,o),
(-25,600,o),
(0,600,q)
);
},
{
closed = 1;
nodes = (
(10,478,o),
(51,463,o),
(91,479,o),
(100,500,q),
(126,502,o),
(143,546,o),
(122,594,o),
(100,600,q),
(100,626,o),
(47,645,o),
(-4,623,o),
(0,600,q),
(-22,600,o),
(-43,550,o),
(-25,500,o),
(0,500,q)
);
},
{
closed = 1;
nodes = (
(110,478,o),
(151,463,o),
(191,479,o),
(200,500,q),
(226,502,o),
(243,546,o),
(222,594,o),
(200,600,q),
(200,626,o),
(147,645,o),
(96,623,o),
(100,600,q),
(78,600,o),
(57,550,o),
(75,500,o),
(100,500,q)
);
},
{
closed = 1;
nodes = (
(10,378,o),
(51,363,o),
(91,379,o),
(100,400,q),
(126,402,o),
(143,446,o),
(122,494,o),
(100,500,q),
(100,526,o),
(47,545,o),
(-4,523,o),
(0,500,q),
(-22,500,o),
(-43,450,o),
(-25,400,o),
(0,400,q)
);
},
{
closed = 1;
nodes = (
(110,378,o),
(151,363,o),
(191,379,o),
(200,400,q),
(226,402,o),
(243,446,o),
(222,494,o),
(200,500,q),
(200,526,o),
(147,545,o),
(96,523,o),
(100,500,q),
(78,500,o),
(57,450,o),
(75,400,o),
(100,400,q)
);
},
{
closed = 1;
nodes = (
(10,278,o),
(51,263,o),
(91,279,o),
(100,300,q),
(126,302,o),
(143,346,o),
(122,394,o),
(100,400,q),
(100,426,o),
(47,445,o),
(-4,423,o),
(0,400,q),
(-22,400,o),
(-43,350,o),
(-25,300,o),
(0,300,q)
);
},
{
closed = 1;
nodes = (
(210,378,o),
(251,363,o),
(291,379,o),
(300,400,q),
(326,402,o),
(343,446,o),
(322,494,o),
(300,500,q),
(300,526,o),
(247,545,o),
(196,523,o),
(200,500,q),
(178,500,o),
(157,450,o),
(175,400,o),
(200,400,q)
);
},
{
closed = 1;
nodes = (
(310,378,o),
(351,363,o),
(391,379,o),
(400,400,q),
(426,402,o),
(443,446,o),
(422,494,o),
(400,500,q),
(400,526,o),
(347,545,o),
(296,523,o),
(300,500,q),
(278,500,o),
(257,450,o),
(275,400,o),
(300,400,q)
);
},
{
closed = 1;
nodes = (
(410,278,o),
(451,263,o),
(491,279,o),
(500,300,q),
(526,302,o),
(543,346,o),
(522,394,o),
(500,400,q),
(500,426,o),
(447,445,o),
(396,423,o),
(400,400,q),
(378,400,o),
(357,350,o),
(375,300,o),
(400,300,q)
);
},
{
closed = 1;
nodes = (
(410,178,o),
(451,163,o),
(491,179,o),
(500,200,q),
(526,202,o),
(543,246,o),
(522,294,o),
(500,300,q),
(500,326,o),
(447,345,o),
(396,323,o),
(400,300,q),
(378,300,o),
(357,250,o),
(375,200,o),
(400,200,q)
);
},
{
closed = 1;
nodes = (
(410,78,o),
(451,63,o),
(491,79,o),
(500,100,q),
(526,102,o),
(543,146,o),
(522,194,o),
(500,200,q),
(500,226,o),
(447,245,o),
(396,223,o),
(400,200,q),
(378,200,o),
(357,150,o),
(375,100,o),
(400,100,q)
);
},
{
closed = 1;
nodes = (
(410,-22,o),
(451,-37,o),
(491,-21,o),
(500,0,q),
(526,2,o),
(543,46,o),
(522,94,o),
(500,100,q),
(500,126,o),
(447,145,o),
(396,123,o),
(400,100,q),
(378,100,o),
(357,50,o),
(375,0,o),
(400,0,q)
);
},
{
closed = 1;
nodes = (
(310,-22,o),
(351,-37,o),
(391,-21,o),
(400,0,q),
(426,2,o),
(443,46,o),
(422,94,o),
(400,100,q),
(400,126,o),
(347,145,o),
(296,123,o),
(300,100,q),
(278,100,o),
(257,50,o),
(275,0,o),
(300,0,q)
);
},
{
closed = 1;
nodes = (
(210,-22,o),
(251,-37,o),
(291,-21,o),
(300,0,q),
(326,2,o),
(343,46,o),
(322,94,o),
(300,100,q),
(300,126,o),
(247,145,o),
(196,123,o),
(200,100,q),
(178,100,o),
(157,50,o),
(175,0,o),
(200,0,q)
);
},
{
closed = 1;
nodes = (
(110,-22,o),
(151,-37,o),
(191,-21,o),
(200,0,q),
(226,2,o),
(243,46,o),
(222,94,o),
(200,100,q),
(200,126,o),
(147,145,o),
(96,123,o),
(100,100,q),
(78,100,o),
(57,50,o),
(75,0,o),
(100,0,q)
);
},
{
closed = 1;
nodes = (
(10,-22,o),
(51,-37,o),
(91,-21,o),
(100,0,q),
(126,2,o),
(143,46,o),
(122,94,o),
(100,100,q),
(100,126,o),
(47,145,o),
(-4,123,o),
(0,100,q),
(-22,100,o),
(-43,50,o),
(-25,0,o),
(0,0,q)
);
},
{
closed = 1;
nodes = (
(10,78,o),
(51,63,o),
(91,79,o),
(100,100,q),
(126,102,o),
(143,146,o),
(122,194,o),
(100,200,q),
(100,226,o),
(47,245,o),
(-4,223,o),
(0,200,q),
(-22,200,o),
(-43,150,o),
(-25,100,o),
(0,100,q)
);
},
{
closed = 1;
nodes = (
(10,178,o),
(51,163,o),
(91,179,o),
(100,200,q),
(126,202,o),
(143,246,o),
(122,294,o),
(100,300,q),
(100,326,o),
(47,345,o),
(-4,323,o),
(0,300,q),
(-22,300,o),
(-43,250,o),
(-25,200,o),
(0,200,q)
);
},
{
closed = 1;
nodes = (
(10,678,o),
(51,663,o),
(91,679,o),
(100,700,q),
(126,702,o),
(143,746,o),
(122,794,o),
(100,800,q),
(100,826,o),
(47,845,o),
(-4,823,o),
(0,800,q),
(-22,800,o),
(-43,750,o),
(-25,700,o),
(0,700,q)
);
},
{
closed = 1;
nodes = (
(110,678,o),
(151,663,o),
(191,679,o),
(200,700,q),
(226,702,o),
(243,746,o),
(222,794,o),
(200,800,q),
(200,826,o),
(147,845,o),
(96,823,o),
(100,800,q),
(78,800,o),
(57,750,o),
(75,700,o),
(100,700,q)
);
},
{
closed = 1;
nodes = (
(410,378,o),
(451,363,o),
(491,379,o),
(500,400,q),
(526,402,o),
(543,446,o),
(522,494,o),
(500,500,q),
(500,526,o),
(447,545,o),
(396,523,o),
(400,500,q),
(378,500,o),
(357,450,o),
(375,400,o),
(400,400,q)
);
},
{
closed = 1;
nodes = (
(110,278,o),
(151,263,o),
(191,279,o),
(200,300,q),
(226,302,o),
(243,346,o),
(222,394,o),
(200,400,q),
(200,426,o),
(147,445,o),
(96,423,o),
(100,400,q),
(78,400,o),
(57,350,o),
(75,300,o),
(100,300,q)
);
},
{
closed = 1;
nodes = (
(210,278,o),
(251,263,o),
(291,279,o),
(300,300,q),
(326,302,o),
(343,346,o),
(322,394,o),
(300,400,q),
(300,426,o),
(247,445,o),
(196,423,o),
(200,400,q),
(178,400,o),
(157,350,o),
(175,300,o),
(200,300,q)
);
},
{
closed = 1;
nodes = (
(110,78,o),
(151,63,o),
(191,79,o),
(200,100,q),
(226,102,o),
(243,146,o),
(222,194,o),
(200,200,q),
(200,226,o),
(147,245,o),
(96,223,o),
(100,200,q),
(78,200,o),
(57,150,o),
(75,100,o),
(100,100,q)
);
},
{
closed = 1;
nodes = (
(110,178,o),
(151,163,o),
(191,179,o),
(200,200,q),
(226,202,o),
(243,246,o),
(222,294,o),
(200,300,q),
(200,326,o),
(147,345,o),
(96,323,o),
(100,300,q),
(78,300,o),
(57,250,o),
(75,200,o),
(100,200,q)
);
},
{
closed = 1;
nodes = (
(310,178,o),
(351,163,o),
(391,179,o),
(400,200,q),
(426,202,o),
(443,246,o),
(422,294,o),
(400,300,q),
(400,326,o),
(347,345,o),
(296,323,o),
(300,300,q),
(278,300,o),
(257,250,o),
(275,200,o),
(300,200,q)
);
},
{
closed = 1;
nodes = (
(310,278,o),
(351,263,o),
(391,279,o),
(400,300,q),
(426,302,o),
(443,346,o),
(422,394,o),
(400,400,q),
(400,426,o),
(347,445,o),
(296,423,o),
(300,400,q),
(278,400,o),
(257,350,o),
(275,300,o),
(300,300,q)
);
}
);
width = 600;
}
);
note = b;
unicode = 66;
},
{
glyphname = C;
lastChange = "2025-10-03 20:31:35 +0000";
layers = (
{
layerId = m01;
shapes = (
{
closed = 1;
nodes = (
(325,500,o),
(350,500,o),
(375,500,o),
(400,500,q),
(400,525,o),
(400,550,o),
(400,575,o),
(400,600,q),
(375,600,o),
(350,600,o),
(325,600,o),
(300,600,q),
(300,575,o),
(300,550,o),
(300,525,o),
(300,500,q)
);
},
{
closed = 1;
nodes = (
(425,500,o),
(450,500,o),
(475,500,o),
(500,500,q),
(500,525,o),
(500,550,o),
(500,575,o),
(500,600,q),
(475,600,o),
(450,600,o),
(425,600,o),
(400,600,q),
(400,575,o),
(400,550,o),
(400,525,o),
(400,500,q)
);
},
{
closed = 1;
nodes = (
(225,500,o),
(250,500,o),
(275,500,o),
(300,500,q),
(300,525,o),
(300,550,o),
(300,575,o),
(300,600,q),
(275,600,o),
(250,600,o),
(225,600,o),
(200,600,q),
(200,575,o),
(200,550,o),
(200,525,o),
(200,500,q)
);
},
{
closed = 1;
nodes = (
(125,400,o),
(150,400,o),
(175,400,o),
(200,400,q),
(200,425,o),
(200,450,o),
(200,475,o),
(200,500,q),
(175,500,o),
(150,500,o),
(125,500,o),
(100,500,q),
(100,475,o),
(100,450,o),
(100,425,o),
(100,400,q)
);
},
{
closed = 1;
nodes = (
(25,300,o),
(50,300,o),
(75,300,o),
(100,300,q),
(100,325,o),
(100,350,o),
(100,375,o),
(100,400,q),
(75,400,o),
(50,400,o),
(25,400,o),
(0,400,q),
(0,375,o),
(0,350,o),
(0,325,o),
(0,300,q)
);
},
{
closed = 1;
nodes = (
(25,200,o),
(50,200,o),
(75,200,o),
(100,200,q),
(100,225,o),
(100,250,o),
(100,275,o),
(100,300,q),
(75,300,o),
(50,300,o),
(25,300,o),
(0,300,q),
(0,275,o),
(0,250,o),
(0,225,o),
(0,200,q)
);
},
{
closed = 1;
nodes = (
(25,100,o),
(50,100,o),
(75,100,o),
(100,100,q),
(100,125,o),
(100,150,o),
(100,175,o),
(100,200,q),
(75,200,o),
(50,200,o),
(25,200,o),
(0,200,q),
(0,175,o),
(0,150,o),
(0,125,o),
(0,100,q)
);
},
{
closed = 1;
nodes = (
(125,0,o),
(150,0,o),
(175,0,o),
(200,0,q),
(200,25,o),
(200,50,o),
(200,75,o),
(200,100,q),
(175,100,o),
(150,100,o),
(125,100,o),
(100,100,q),
(100,75,o),
(100,50,o),
(100,25,o),
(100,0,q)
);
},
{
closed = 1;
nodes = (
(125,100,o),
(150,100,o),
(175,100,o),
(200,100,q),
(200,125,o),
(200,150,o),
(200,175,o),
(200,200,q),
(175,200,o),
(150,200,o),
(125,200,o),
(100,200,q),
(100,175,o),
(100,150,o),
(100,125,o),
(100,100,q)
);
},
{
closed = 1;
nodes = (
(25,400,o),
(50,400,o),
(75,400,o),
(100,400,q),
(100,425,o),
(100,450,o),
(100,475,o),
(100,500,q),
(75,500,o),
(50,500,o),
(25,500,o),
(0,500,q),
(0,475,o),
(0,450,o),
(0,425,o),
(0,400,q)
);
},
{
closed = 1;
nodes = (
(225,400,o),
(250,400,o),
(275,400,o),
(300,400,q),
(300,425,o),
(300,450,o),
(300,475,o),
(300,500,q),
(275,500,o),
(250,500,o),
(225,500,o),
(200,500,q),
(200,475,o),
(200,450,o),
(200,425,o),
(200,400,q)
);
},
{
closed = 1;
nodes = (
(425,0,o),
(450,0,o),
(475,0,o),
(500,0,q),
(500,25,o),
(500,50,o),
(500,75,o),
(500,100,q),
(475,100,o),
(450,100,o),
(425,100,o),
(400,100,q),
(400,75,o),
(400,50,o),
(400,25,o),
(400,0,q)
);
},
{
closed = 1;
nodes = (
(125,200,o),
(150,200,o),
(175,200,o),
(200,200,q),
(200,225,o),
(200,250,o),
(200,275,o),
(200,300,q),
(175,300,o),
(150,300,o),
(125,300,o),
(100,300,q),
(100,275,o),
(100,250,o),
(100,225,o),
(100,200,q)
);
},
{
closed = 1;
nodes = (
(125,300,o),
(150,300,o),
(175,300,o),
(200,300,q),
(200,325,o),
(200,350,o),
(200,375,o),
(200,400,q),
(175,400,o),
(150,400,o),
(125,400,o),
(100,400,q),
(100,375,o),
(100,350,o),
(100,325,o),
(100,300,q)
);
},
{
closed = 1;
nodes = (
(125,500,o),
(150,500,o),
(175,500,o),
(200,500,q),
(200,525,o),
(200,550,o),
(200,575,o),
(200,600,q),
(175,600,o),
(150,600,o),
(125,600,o),
(100,600,q),
(100,575,o),
(100,550,o),
(100,525,o),
(100,500,q)
);
},
{
closed = 1;
nodes = (
(225,100,o),
(250,100,o),
(275,100,o),
(300,100,q),
(300,125,o),
(300,150,o),
(300,175,o),
(300,200,q),
(275,200,o),
(250,200,o),
(225,200,o),
(200,200,q),
(200,175,o),
(200,150,o),
(200,125,o),
(200,100,q)
);
},
{
closed = 1;
nodes = (
(225,0,o),
(250,0,o),
(275,0,o),
(300,0,q),
(300,25,o),
(300,50,o),
(300,75,o),
(300,100,q),
(275,100,o),
(250,100,o),
(225,100,o),
(200,100,q),
(200,75,o),
(200,50,o),
(200,25,o),
(200,0,q)
);
},
{
closed = 1;
nodes = (
(525,400,o),
(550,400,o),
(575,400,o),
(600,400,q),
(600,425,o),
(600,450,o),
(600,475,o),
(600,500,q),
(575,500,o),
(550,500,o),
(525,500,o),
(500,500,q),
(500,475,o),
(500,450,o),
(500,425,o),
(500,400,q)
);
},
{
closed = 1;
nodes = (
(525,100,o),
(550,100,o),
(575,100,o),
(600,100,q),
(600,125,o),
(600,150,o),
(600,175,o),
(600,200,q),
(575,200,o),
(550,200,o),
(525,200,o),
(500,200,q),
(500,175,o),
(500,150,o),
(500,125,o),
(500,100,q)
);
},
{
closed = 1;
nodes = (
(325,0,o),
(350,0,o),
(375,0,o),
(400,0,q),
(400,25,o),
(400,50,o),
(400,75,o),
(400,100,q),
(375,100,o),
(350,100,o),
(325,100,o),
(300,100,q),
(300,75,o),
(300,50,o),
(300,25,o),
(300,0,q)
);
}
);
width = 600;
},
{
layerId = "FEF0E8F1-F572-4E0C-8E3A-3334D1706851";
shapes = (
{
closed = 1;
nodes = (
(310,478,o),
(351,463,o),
(391,479,o),
(400,500,q),
(426,502,o),
(443,546,o),
(422,594,o),
(400,600,q),
(400,626,o),
(347,645,o),
(296,623,o),
(300,600,q),
(278,600,o),
(257,550,o),
(275,500,o),
(300,500,q)
);
},
{
closed = 1;
nodes = (
(410,478,o),
(451,463,o),
(491,479,o),
(500,500,q),
(526,502,o),
(543,546,o),
(522,594,o),
(500,600,q),
(500,626,o),
(447,645,o),
(396,623,o),
(400,600,q),
(378,600,o),
(357,550,o),
(375,500,o),
(400,500,q)
);
},
{
closed = 1;
nodes = (
(210,478,o),
(251,463,o),
(291,479,o),
(300,500,q),
(326,502,o),
(343,546,o),
(322,594,o),
(300,600,q),
(300,626,o),
(247,645,o),
(196,623,o),
(200,600,q),
(178,600,o),
(157,550,o),
(175,500,o),
(200,500,q)
);
},
{
closed = 1;
nodes = (
(110,378,o),
(151,363,o),
(191,379,o),
(200,400,q),
(226,402,o),
(243,446,o),
(222,494,o),
(200,500,q),
(200,526,o),
(147,545,o),
(96,523,o),
(100,500,q),
(78,500,o),
(57,450,o),
(75,400,o),
(100,400,q)
);
},
{
closed = 1;
nodes = (
(10,278,o),
(51,263,o),
(91,279,o),
(100,300,q),
(126,302,o),
(143,346,o),
(122,394,o),
(100,400,q),
(100,426,o),
(47,445,o),
(-4,423,o),
(0,400,q),
(-22,400,o),
(-43,350,o),
(-25,300,o),
(0,300,q)
);
},
{
closed = 1;
nodes = (
(10,178,o),
(51,163,o),
(91,179,o),
(100,200,q),
(126,202,o),
(143,246,o),
(122,294,o),
(100,300,q),
(100,326,o),
(47,345,o),
(-4,323,o),
(0,300,q),
(-22,300,o),
(-43,250,o),
(-25,200,o),
(0,200,q)
);
},
{
closed = 1;
nodes = (
(10,78,o),
(51,63,o),
(91,79,o),
(100,100,q),
(126,102,o),
(143,146,o),
(122,194,o),
(100,200,q),
(100,226,o),
(47,245,o),
(-4,223,o),
(0,200,q),
(-22,200,o),
(-43,150,o),
(-25,100,o),
(0,100,q)
);
},
{
closed = 1;
nodes = (
(110,-22,o),
(151,-37,o),
(191,-21,o),
(200,0,q),
(226,2,o),
(243,46,o),
(222,94,o),
(200,100,q),
(200,126,o),
(147,145,o),
(96,123,o),
(100,100,q),
(78,100,o),
(57,50,o),
(75,0,o),
(100,0,q)
);
},
{
closed = 1;
nodes = (
(110,78,o),
(151,63,o),
(191,79,o),
(200,100,q),
(226,102,o),
(243,146,o),
(222,194,o),
(200,200,q),
(200,226,o),
(147,245,o),
(96,223,o),
(100,200,q),
(78,200,o),
(57,150,o),
(75,100,o),
(100,100,q)
);
},
{
closed = 1;
nodes = (
(10,378,o),
(51,363,o),
(91,379,o),
(100,400,q),
(126,402,o),
(143,446,o),
(122,494,o),
(100,500,q),
(100,526,o),
(47,545,o),
(-4,523,o),
(0,500,q),
(-22,500,o),
(-43,450,o),
(-25,400,o),
(0,400,q)
);
},
{
closed = 1;
nodes = (
(210,378,o),
(251,363,o),
(291,379,o),
(300,400,q),
(326,402,o),
(343,446,o),
(322,494,o),
(300,500,q),
(300,526,o),
(247,545,o),
(196,523,o),
(200,500,q),
(178,500,o),
(157,450,o),
(175,400,o),
(200,400,q)
);
},
{
closed = 1;
nodes = (
(410,-22,o),
(451,-37,o),
(491,-21,o),
(500,0,q),
(526,2,o),
(543,46,o),
(522,94,o),
(500,100,q),
(500,126,o),
(447,145,o),
(396,123,o),
(400,100,q),
(378,100,o),
(357,50,o),
(375,0,o),
(400,0,q)
);
},
{
closed = 1;
nodes = (
(110,178,o),
(151,163,o),
(191,179,o),
(200,200,q),
(226,202,o),
(243,246,o),
(222,294,o),
(200,300,q),
(200,326,o),
(147,345,o),
(96,323,o),
(100,300,q),
(78,300,o),
(57,250,o),
(75,200,o),
(100,200,q)
);
},
{
closed = 1;
nodes = (
(110,278,o),
(151,263,o),
(191,279,o),
(200,300,q),
(226,302,o),
(243,346,o),
(222,394,o),
(200,400,q),
(200,426,o),
(147,445,o),
(96,423,o),
(100,400,q),
(78,400,o),
(57,350,o),
(75,300,o),
(100,300,q)
);
},
{
closed = 1;
nodes = (
(110,478,o),
(151,463,o),
(191,479,o),
(200,500,q),
(226,502,o),
(243,546,o),
(222,594,o),
(200,600,q),
(200,626,o),
(147,645,o),
(96,623,o),
(100,600,q),
(78,600,o),
(57,550,o),
(75,500,o),
(100,500,q)
);
},
{
closed = 1;
nodes = (
(210,78,o),
(251,63,o),
(291,79,o),
(300,100,q),
(326,102,o),
(343,146,o),
(322,194,o),
(300,200,q),
(300,226,o),
(247,245,o),
(196,223,o),
(200,200,q),
(178,200,o),
(157,150,o),
(175,100,o),
(200,100,q)
);
},
{
closed = 1;
nodes = (
(210,-22,o),
(251,-37,o),
(291,-21,o),
(300,0,q),
(326,2,o),
(343,46,o),
(322,94,o),
(300,100,q),
(300,126,o),
(247,145,o),
(196,123,o),
(200,100,q),
(178,100,o),
(157,50,o),
(175,0,o),
(200,0,q)
);
},
{
closed = 1;
nodes = (
(510,378,o),
(551,363,o),
(591,379,o),
(600,400,q),
(626,402,o),
(643,446,o),
(622,494,o),
(600,500,q),
(600,526,o),
(547,545,o),
(496,523,o),
(500,500,q),
(478,500,o),
(457,450,o),
(475,400,o),
(500,400,q)
);
},
{
closed = 1;
nodes = (
(510,78,o),
(551,63,o),
(591,79,o),
(600,100,q),
(626,102,o),
(643,146,o),
(622,194,o),
(600,200,q),
(600,226,o),
(547,245,o),
(496,223,o),
(500,200,q),
(478,200,o),
(457,150,o),
(475,100,o),
(500,100,q)
);
},
{
closed = 1;
nodes = (
(310,-22,o),
(351,-37,o),
(391,-21,o),
(400,0,q),
(426,2,o),
(443,46,o),
(422,94,o),
(400,100,q),
(400,126,o),
(347,145,o),
(296,123,o),
(300,100,q),
(278,100,o),
(257,50,o),
(275,0,o),
(300,0,q)
);
}
);
width = 600;
}
);
note = c;
unicode = 67;
},
{
glyphname = D;
lastChange = "2025-10-03 20:31:35 +0000";
layers = (
{
layerId = m01;
shapes = (
{
closed = 1;
nodes = (
(425,600,o),
(450,600,o),
(475,600,o),
(500,600,q),
(500,625,o),
(500,650,o),
(500,675,o),
(500,700,q),
(475,700,o),
(450,700,o),
(425,700,o),
(400,700,q),
(400,675,o),
(400,650,o),
(400,625,o),
(400,600,q)
);
},
{
closed = 1;
nodes = (
(525,600,o),
(550,600,o),
(575,600,o),
(600,600,q),
(600,625,o),
(600,650,o),
(600,675,o),
(600,700,q),
(575,700,o),
(550,700,o),
(525,700,o),
(500,700,q),
(500,675,o),
(500,650,o),
(500,625,o),
(500,600,q)
);
},
{
closed = 1;
nodes = (
(425,500,o),
(450,500,o),
(475,500,o),
(500,500,q),
(500,525,o),
(500,550,o),
(500,575,o),
(500,600,q),
(475,600,o),
(450,600,o),
(425,600,o),
(400,600,q),
(400,575,o),
(400,550,o),
(400,525,o),
(400,500,q)
);
},
{
closed = 1;
nodes = (
(525,500,o),
(550,500,o),
(575,500,o),
(600,500,q),
(600,525,o),
(600,550,o),
(600,575,o),
(600,600,q),
(575,600,o),
(550,600,o),
(525,600,o),
(500,600,q),
(500,575,o),
(500,550,o),
(500,525,o),
(500,500,q)
);
},
{
closed = 1;
nodes = (
(525,400,o),
(550,400,o),
(575,400,o),
(600,400,q),
(600,425,o),
(600,450,o),
(600,475,o),
(600,500,q),
(575,500,o),
(550,500,o),
(525,500,o),
(500,500,q),
(500,475,o),
(500,450,o),
(500,425,o),
(500,400,q)
);
},
{
closed = 1;
nodes = (
(425,400,o),
(450,400,o),
(475,400,o),
(500,400,q),
(500,425,o),
(500,450,o),
(500,475,o),
(500,500,q),
(475,500,o),
(450,500,o),
(425,500,o),
(400,500,q),
(400,475,o),
(400,450,o),
(400,425,o),
(400,400,q)
);
},
{
closed = 1;
nodes = (
(225,300,o),
(250,300,o),
(275,300,o),
(300,300,q),
(300,325,o),
(300,350,o),
(300,375,o),
(300,400,q),
(275,400,o),
(250,400,o),
(225,400,o),
(200,400,q),
(200,375,o),
(200,350,o),
(200,325,o),
(200,300,q)
);
},
{
closed = 1;
nodes = (
(125,200,o),
(150,200,o),
(175,200,o),
(200,200,q),
(200,225,o),
(200,250,o),
(200,275,o),
(200,300,q),
(175,300,o),
(150,300,o),
(125,300,o),
(100,300,q),
(100,275,o),
(100,250,o),
(100,225,o),
(100,200,q)
);
},
{
closed = 1;
nodes = (
(125,100,o),
(150,100,o),
(175,100,o),
(200,100,q),
(200,125,o),
(200,150,o),
(200,175,o),
(200,200,q),
(175,200,o),
(150,200,o),
(125,200,o),
(100,200,q),
(100,175,o),
(100,150,o),
(100,125,o),
(100,100,q)
);
},
{
closed = 1;
nodes = (
(225,0,o),
(250,0,o),
(275,0,o),
(300,0,q),
(300,25,o),
(300,50,o),
(300,75,o),
(300,100,q),
(275,100,o),
(250,100,o),
(225,100,o),
(200,100,q),
(200,75,o),
(200,50,o),
(200,25,o),
(200,0,q)
);
},
{
closed = 1;
nodes = (
(325,0,o),
(350,0,o),
(375,0,o),
(400,0,q),
(400,25,o),
(400,50,o),
(400,75,o),
(400,100,q),
(375,100,o),
(350,100,o),
(325,100,o),
(300,100,q),
(300,75,o),
(300,50,o),
(300,25,o),
(300,0,q)
);
},
{
closed = 1;
nodes = (
(525,100,o),
(550,100,o),
(575,100,o),
(600,100,q),
(600,125,o),
(600,150,o),
(600,175,o),
(600,200,q),
(575,200,o),
(550,200,o),
(525,200,o),
(500,200,q),
(500,175,o),
(500,150,o),
(500,125,o),
(500,100,q)
);
},
{
closed = 1;
nodes = (
(525,0,o),
(550,0,o),
(575,0,o),
(600,0,q),
(600,25,o),
(600,50,o),
(600,75,o),
(600,100,q),
(575,100,o),
(550,100,o),
(525,100,o),
(500,100,q),
(500,75,o),
(500,50,o),
(500,25,o),
(500,0,q)
);
},
{
closed = 1;
nodes = (
(525,200,o),
(550,200,o),
(575,200,o),
(600,200,q),
(600,225,o),
(600,250,o),
(600,275,o),
(600,300,q),
(575,300,o),
(550,300,o),
(525,300,o),
(500,300,q),
(500,275,o),
(500,250,o),
(500,225,o),
(500,200,q)
);
},
{
closed = 1;
nodes = (
(525,300,o),
(550,300,o),
(575,300,o),
(600,300,q),
(600,325,o),
(600,350,o),
(600,375,o),
(600,400,q),
(575,400,o),
(550,400,o),
(525,400,o),
(500,400,q),
(500,375,o),
(500,350,o),
(500,325,o),
(500,300,q)
);
},
{
closed = 1;
nodes = (
(425,300,o),
(450,300,o),
(475,300,o),
(500,300,q),
(500,325,o),
(500,350,o),
(500,375,o),
(500,400,q),
(475,400,o),
(450,400,o),
(425,400,o),
(400,400,q),
(400,375,o),
(400,350,o),
(400,325,o),
(400,300,q)
);
},
{
closed = 1;
nodes = (
(425,700,o),
(450,700,o),
(475,700,o),
(500,700,q),
(500,725,o),
(500,750,o),
(500,775,o),
(500,800,q),
(475,800,o),
(450,800,o),
(425,800,o),
(400,800,q),
(400,775,o),
(400,750,o),
(400,725,o),
(400,700,q)
);
},
{
closed = 1;
nodes = (
(525,700,o),
(550,700,o),
(575,700,o),
(600,700,q),
(600,725,o),
(600,750,o),
(600,775,o),
(600,800,q),
(575,800,o),
(550,800,o),
(525,800,o),
(500,800,q),
(500,775,o),
(500,750,o),
(500,725,o),
(500,700,q)
);
},
{
closed = 1;
nodes = (
(125,300,o),
(150,300,o),
(175,300,o),
(200,300,q),
(200,325,o),
(200,350,o),
(200,375,o),
(200,400,q),
(175,400,o),
(150,400,o),
(125,400,o),
(100,400,q),
(100,375,o),
(100,350,o),
(100,325,o),
(100,300,q)
);
},
{
closed = 1;
nodes = (
(225,400,o),
(250,400,o),
(275,400,o),
(300,400,q),
(300,425,o),
(300,450,o),
(300,475,o),
(300,500,q),
(275,500,o),
(250,500,o),
(225,500,o),
(200,500,q),
(200,475,o),
(200,450,o),
(200,425,o),
(200,400,q)
);
},
{
closed = 1;
nodes = (
(225,100,o),
(250,100,o),
(275,100,o),
(300,100,q),
(300,125,o),
(300,150,o),
(300,175,o),
(300,200,q),
(275,200,o),
(250,200,o),
(225,200,o),
(200,200,q),
(200,175,o),
(200,150,o),
(200,125,o),
(200,100,q)
);
},
{
closed = 1;
nodes = (
(325,400,o),
(350,400,o),
(375,400,o),
(400,400,q),
(400,425,o),
(400,450,o),
(400,475,o),
(400,500,q),
(375,500,o),
(350,500,o),
(325,500,o),
(300,500,q),
(300,475,o),
(300,450,o),
(300,425,o),
(300,400,q)
);
},
{
closed = 1;
nodes = (
(425,100,o),
(450,100,o),
(475,100,o),
(500,100,q),
(500,125,o),
(500,150,o),
(500,175,o),
(500,200,q),
(475,200,o),
(450,200,o),
(425,200,o),
(400,200,q),
(400,175,o),
(400,150,o),
(400,125,o),
(400,100,q)
);
}
);
width = 600;
},
{
layerId = "FEF0E8F1-F572-4E0C-8E3A-3334D1706851";
shapes = (
{
closed = 1;
nodes = (
(410,578,o),
(451,563,o),
(491,579,o),
(500,600,q),
(526,602,o),
(543,646,o),
(522,694,o),
(500,700,q),
(500,726,o),
(447,745,o),
(396,723,o),
(400,700,q),
(378,700,o),
(357,650,o),
(375,600,o),
(400,600,q)
);
},
{
closed = 1;
nodes = (
(510,578,o),
(551,563,o),
(591,579,o),
(600,600,q),
(626,602,o),
(643,646,o),
(622,694,o),
(600,700,q),
(600,726,o),
(547,745,o),
(496,723,o),
(500,700,q),
(478,700,o),
(457,650,o),
(475,600,o),
(500,600,q)
);
},
{
closed = 1;
nodes = (
(410,478,o),
(451,463,o),
(491,479,o),
(500,500,q),
(526,502,o),
(543,546,o),
(522,594,o),
(500,600,q),
(500,626,o),
(447,645,o),
(396,623,o),
(400,600,q),
(378,600,o),
(357,550,o),
(375,500,o),
(400,500,q)
);
},
{
closed = 1;
nodes = (
(510,478,o),
(551,463,o),
(591,479,o),
(600,500,q),
(626,502,o),
(643,546,o),
(622,594,o),
(600,600,q),
(600,626,o),
(547,645,o),
(496,623,o),
(500,600,q),
(478,600,o),
(457,550,o),
(475,500,o),
(500,500,q)
);
},
{
closed = 1;
nodes = (
(510,378,o),
(551,363,o),
(591,379,o),
(600,400,q),
(626,402,o),
(643,446,o),
(622,494,o),
(600,500,q),
(600,526,o),
(547,545,o),
(496,523,o),
(500,500,q),
(478,500,o),
(457,450,o),
(475,400,o),
(500,400,q)
);
},
{
closed = 1;
nodes = (
(410,378,o),
(451,363,o),
(491,379,o),
(500,400,q),
(526,402,o),
(543,446,o),
(522,494,o),
(500,500,q),
(500,526,o),
(447,545,o),
(396,523,o),
(400,500,q),
(378,500,o),
(357,450,o),
(375,400,o),
(400,400,q)
);
},
{
closed = 1;
nodes = (
(210,278,o),
(251,263,o),
(291,279,o),
(300,300,q),
(326,302,o),
(343,346,o),
(322,394,o),
(300,400,q),
(300,426,o),
(247,445,o),
(196,423,o),
(200,400,q),
(178,400,o),
(157,350,o),
(175,300,o),
(200,300,q)
);
},
{
closed = 1;
nodes = (
(110,178,o),
(151,163,o),
(191,179,o),
(200,200,q),
(226,202,o),
(243,246,o),
(222,294,o),
(200,300,q),
(200,326,o),
(147,345,o),
(96,323,o),
(100,300,q),
(78,300,o),
(57,250,o),
(75,200,o),
(100,200,q)
);
},
{
closed = 1;
nodes = (
(110,78,o),
(151,63,o),
(191,79,o),
(200,100,q),
(226,102,o),
(243,146,o),
(222,194,o),
(200,200,q),
(200,226,o),
(147,245,o),
(96,223,o),
(100,200,q),
(78,200,o),
(57,150,o),
(75,100,o),
(100,100,q)
);
},
{
closed = 1;
nodes = (
(210,-22,o),
(251,-37,o),
(291,-21,o),
(300,0,q),
(326,2,o),
(343,46,o),
(322,94,o),
(300,100,q),
(300,126,o),
(247,145,o),
(196,123,o),
(200,100,q),
(178,100,o),
(157,50,o),
(175,0,o),
(200,0,q)
);
},
{
closed = 1;
nodes = (
(310,-22,o),
(351,-37,o),
(391,-21,o),
(400,0,q),
(426,2,o),
(443,46,o),
(422,94,o),
(400,100,q),
(400,126,o),
(347,145,o),
(296,123,o),
(300,100,q),
(278,100,o),
(257,50,o),
(275,0,o),
(300,0,q)
);
},
{
closed = 1;
nodes = (
(510,78,o),
(551,63,o),
(591,79,o),
(600,100,q),
(626,102,o),
(643,146,o),
(622,194,o),
(600,200,q),
(600,226,o),
(547,245,o),
(496,223,o),
(500,200,q),
(478,200,o),
(457,150,o),
(475,100,o),
(500,100,q)
);
},
{
closed = 1;
nodes = (
(510,-22,o),
(551,-37,o),
(591,-21,o),
(600,0,q),
(626,2,o),
(643,46,o),
(622,94,o),
(600,100,q),
(600,126,o),
(547,145,o),
(496,123,o),
(500,100,q),
(478,100,o),
(457,50,o),
(475,0,o),
(500,0,q)
);
},
{
closed = 1;
nodes = (
(510,178,o),
(551,163,o),
(591,179,o),
(600,200,q),
(626,202,o),
(643,246,o),
(622,294,o),
(600,300,q),
(600,326,o),
(547,345,o),
(496,323,o),
(500,300,q),
(478,300,o),
(457,250,o),
(475,200,o),
(500,200,q)
);
},
{
closed = 1;
nodes = (
(510,278,o),
(551,263,o),
(591,279,o),
(600,300,q),
(626,302,o),
(643,346,o),
(622,394,o),
(600,400,q),
(600,426,o),
(547,445,o),
(496,423,o),
(500,400,q),
(478,400,o),
(457,350,o),
(475,300,o),
(500,300,q)
);
},
{
closed = 1;
nodes = (
(410,278,o),
(451,263,o),
(491,279,o),
(500,300,q),
(526,302,o),
(543,346,o),
(522,394,o),
(500,400,q),
(500,426,o),
(447,445,o),
(396,423,o),
(400,400,q),
(378,400,o),
(357,350,o),
(375,300,o),
(400,300,q)
);
},
{
closed = 1;
nodes = (
(410,678,o),
(451,663,o),
(491,679,o),
(500,700,q),
(526,702,o),
(543,746,o),
(522,794,o),
(500,800,q),
(500,826,o),
(447,845,o),
(396,823,o),
(400,800,q),
(378,800,o),
(357,750,o),
(375,700,o),
(400,700,q)
);
},
{
closed = 1;
nodes = (
(510,678,o),
(551,663,o),
(591,679,o),
(600,700,q),
(626,702,o),
(643,746,o),
(622,794,o),
(600,800,q),
(600,826,o),
(547,845,o),
(496,823,o),
(500,800,q),
(478,800,o),
(457,750,o),
(475,700,o),
(500,700,q)
);
},
{
closed = 1;
nodes = (
(110,278,o),
(151,263,o),
(191,279,o),
(200,300,q),
(226,302,o),
(243,346,o),
(222,394,o),
(200,400,q),
(200,426,o),
(147,445,o),
(96,423,o),
(100,400,q),
(78,400,o),
(57,350,o),
(75,300,o),
(100,300,q)
);
},
{
closed = 1;
nodes = (
(210,378,o),
(251,363,o),
(291,379,o),
(300,400,q),
(326,402,o),
(343,446,o),
(322,494,o),
(300,500,q),
(300,526,o),
(247,545,o),
(196,523,o),
(200,500,q),
(178,500,o),
(157,450,o),
(175,400,o),
(200,400,q)
);
},
{
closed = 1;
nodes = (
(210,78,o),
(251,63,o),
(291,79,o),
(300,100,q),
(326,102,o),
(343,146,o),
(322,194,o),
(300,200,q),
(300,226,o),
(247,245,o),
(196,223,o),
(200,200,q),
(178,200,o),
(157,150,o),
(175,100,o),
(200,100,q)
);
},
{
closed = 1;
nodes = (
(310,378,o),
(351,363,o),
(391,379,o),
(400,400,q),
(426,402,o),
(443,446,o),
(422,494,o),
(400,500,q),
(400,526,o),
(347,545,o),
(296,523,o),
(300,500,q),
(278,500,o),
(257,450,o),
(275,400,o),
(300,400,q)
);
},
{
closed = 1;
nodes = (
(410,78,o),
(451,63,o),
(491,79,o),
(500,100,q),
(526,102,o),
(543,146,o),
(522,194,o),
(500,200,q),
(500,226,o),
(447,245,o),
(396,223,o),
(400,200,q),
(378,200,o),
(357,150,o),
(375,100,o),
(400,100,q)
);
}
);
width = 600;
}
);
note = d;
unicode = 68;
},
{
glyphname = E;
lastChange = "2025-10-03 20:31:35 +0000";
layers = (
{
layerId = m01;
shapes = (
{
closed = 1;
nodes = (
(225,300,o),
(250,300,o),
(275,300,o),
(300,300,q),
(300,325,o),
(300,350,o),
(300,375,o),
(300,400,q),
(275,400,o),
(250,400,o),
(225,400,o),
(200,400,q),
(200,375,o),
(200,350,o),
(200,325,o),
(200,300,q)
);
},
{
closed = 1;
nodes = (
(525,400,o),
(550,400,o),
(575,400,o),
(600,400,q),
(600,425,o),
(600,450,o),
(600,475,o),
(600,500,q),
(575,500,o),
(550,500,o),
(525,500,o),
(500,500,q),
(500,475,o),
(500,450,o),
(500,425,o),
(500,400,q)
);
},
{
closed = 1;
nodes = (
(425,500,o),
(450,500,o),
(475,500,o),
(500,500,q),
(500,525,o),
(500,550,o),
(500,575,o),
(500,600,q),
(475,600,o),
(450,600,o),
(425,600,o),
(400,600,q),
(400,575,o),
(400,550,o),
(400,525,o),
(400,500,q)
);
},
{
closed = 1;
nodes = (
(325,500,o),
(350,500,o),
(375,500,o),
(400,500,q),
(400,525,o),
(400,550,o),
(400,575,o),
(400,600,q),
(375,600,o),
(350,600,o),
(325,600,o),
(300,600,q),
(300,575,o),
(300,550,o),
(300,525,o),
(300,500,q)
);
},
{
closed = 1;
nodes = (
(225,500,o),
(250,500,o),
(275,500,o),
(300,500,q),
(300,525,o),
(300,550,o),
(300,575,o),
(300,600,q),
(275,600,o),
(250,600,o),
(225,600,o),
(200,600,q),
(200,575,o),
(200,550,o),
(200,525,o),
(200,500,q)
);
},
{
closed = 1;
nodes = (
(125,300,o),
(150,300,o),
(175,300,o),
(200,300,q),
(200,325,o),
(200,350,o),
(200,375,o),
(200,400,q),
(175,400,o),
(150,400,o),
(125,400,o),
(100,400,q),
(100,375,o),
(100,350,o),
(100,325,o),
(100,300,q)
);
},
{
closed = 1;
nodes = (
(125,400,o),
(150,400,o),
(175,400,o),
(200,400,q),
(200,425,o),
(200,450,o),
(200,475,o),
(200,500,q),
(175,500,o),
(150,500,o),
(125,500,o),
(100,500,q),
(100,475,o),
(100,450,o),
(100,425,o),
(100,400,q)
);
},
{
closed = 1;
nodes = (
(125,100,o),
(150,100,o),
(175,100,o),
(200,100,q),
(200,125,o),
(200,150,o),
(200,175,o),
(200,200,q),
(175,200,o),
(150,200,o),
(125,200,o),
(100,200,q),
(100,175,o),
(100,150,o),
(100,125,o),
(100,100,q)
);
},
{
closed = 1;
nodes = (
(325,0,o),
(350,0,o),
(375,0,o),
(400,0,q),
(400,25,o),
(400,50,o),
(400,75,o),
(400,100,q),
(375,100,o),
(350,100,o),
(325,100,o),
(300,100,q),
(300,75,o),
(300,50,o),
(300,25,o),
(300,0,q)
);
},
{
closed = 1;
nodes = (
(425,0,o),
(450,0,o),
(475,0,o),
(500,0,q),
(500,25,o),
(500,50,o),
(500,75,o),
(500,100,q),
(475,100,o),
(450,100,o),
(425,100,o),
(400,100,q),
(400,75,o),
(400,50,o),
(400,25,o),
(400,0,q)
);
},
{
closed = 1;
nodes = (
(525,100,o),
(550,100,o),
(575,100,o),
(600,100,q),
(600,125,o),
(600,150,o),
(600,175,o),
(600,200,q),
(575,200,o),
(550,200,o),
(525,200,o),
(500,200,q),
(500,175,o),
(500,150,o),
(500,125,o),
(500,100,q)
);
},
{
closed = 1;
nodes = (
(325,300,o),
(350,300,o),
(375,300,o),
(400,300,q),
(400,325,o),
(400,350,o),
(400,375,o),
(400,400,q),
(375,400,o),
(350,400,o),
(325,400,o),
(300,400,q),
(300,375,o),
(300,350,o),
(300,325,o),
(300,300,q)
);
},
{
closed = 1;
nodes = (
(225,400,o),
(250,400,o),
(275,400,o),
(300,400,q),
(300,425,o),
(300,450,o),
(300,475,o),
(300,500,q),
(275,500,o),
(250,500,o),
(225,500,o),
(200,500,q),
(200,475,o),
(200,450,o),
(200,425,o),
(200,400,q)
);
},
{
closed = 1;
nodes = (
(125,200,o),
(150,200,o),
(175,200,o),
(200,200,q),
(200,225,o),
(200,250,o),
(200,275,o),
(200,300,q),
(175,300,o),
(150,300,o),
(125,300,o),
(100,300,q),
(100,275,o),
(100,250,o),
(100,225,o),
(100,200,q)
);
},
{
closed = 1;
nodes = (
(225,0,o),
(250,0,o),
(275,0,o),
(300,0,q),
(300,25,o),
(300,50,o),
(300,75,o),
(300,100,q),
(275,100,o),
(250,100,o),
(225,100,o),
(200,100,q),
(200,75,o),
(200,50,o),
(200,25,o),
(200,0,q)
);
},
{
closed = 1;
nodes = (
(225,100,o),
(250,100,o),
(275,100,o),
(300,100,q),
(300,125,o),
(300,150,o),
(300,175,o),
(300,200,q),
(275,200,o),
(250,200,o),
(225,200,o),
(200,200,q),
(200,175,o),
(200,150,o),
(200,125,o),
(200,100,q)
);
},
{
closed = 1;
nodes = (
(525,300,o),
(550,300,o),
(575,300,o),
(600,300,q),
(600,325,o),
(600,350,o),
(600,375,o),
(600,400,q),
(575,400,o),
(550,400,o),
(525,400,o),
(500,400,q),
(500,375,o),
(500,350,o),
(500,325,o),
(500,300,q)
);
},
{
closed = 1;
nodes = (
(425,300,o),
(450,300,o),
(475,300,o),
(500,300,q),
(500,325,o),
(500,350,o),
(500,375,o),
(500,400,q),
(475,400,o),
(450,400,o),
(425,400,o),
(400,400,q),
(400,375,o),
(400,350,o),
(400,325,o),
(400,300,q)
);
}
);
width = 600;
},
{
layerId = "FEF0E8F1-F572-4E0C-8E3A-3334D1706851";
shapes = (
{
closed = 1;
nodes = (
(210,278,o),
(251,263,o),
(291,279,o),
(300,300,q),
(326,302,o),
(343,346,o),
(322,394,o),
(300,400,q),
(300,426,o),
(247,445,o),
(196,423,o),
(200,400,q),
(178,400,o),
(157,350,o),
(175,300,o),
(200,300,q)
);
},
{
closed = 1;
nodes = (
(510,378,o),
(551,363,o),
(591,379,o),
(600,400,q),
(626,402,o),
(643,446,o),
(622,494,o),
(600,500,q),
(600,526,o),
(547,545,o),
(496,523,o),
(500,500,q),
(478,500,o),
(457,450,o),
(475,400,o),
(500,400,q)
);
},
{
closed = 1;
nodes = (
(410,478,o),
(451,463,o),
(491,479,o),
(500,500,q),
(526,502,o),
(543,546,o),
(522,594,o),
(500,600,q),
(500,626,o),
(447,645,o),
(396,623,o),
(400,600,q),
(378,600,o),
(357,550,o),
(375,500,o),
(400,500,q)
);
},
{
closed = 1;
nodes = (
(310,478,o),
(351,463,o),
(391,479,o),
(400,500,q),
(426,502,o),
(443,546,o),
(422,594,o),
(400,600,q),
(400,626,o),
(347,645,o),
(296,623,o),
(300,600,q),
(278,600,o),
(257,550,o),
(275,500,o),
(300,500,q)
);
},
{
closed = 1;
nodes = (
(210,478,o),
(251,463,o),
(291,479,o),
(300,500,q),
(326,502,o),
(343,546,o),
(322,594,o),
(300,600,q),
(300,626,o),
(247,645,o),
(196,623,o),
(200,600,q),
(178,600,o),
(157,550,o),
(175,500,o),
(200,500,q)
);
},
{
closed = 1;
nodes = (
(110,278,o),
(151,263,o),
(191,279,o),
(200,300,q),
(226,302,o),
(243,346,o),
(222,394,o),
(200,400,q),
(200,426,o),
(147,445,o),
(96,423,o),
(100,400,q),
(78,400,o),
(57,350,o),
(75,300,o),
(100,300,q)
);
},
{
closed = 1;
nodes = (
(110,378,o),
(151,363,o),
(191,379,o),
(200,400,q),
(226,402,o),
(243,446,o),
(222,494,o),
(200,500,q),
(200,526,o),
(147,545,o),
(96,523,o),
(100,500,q),
(78,500,o),
(57,450,o),
(75,400,o),
(100,400,q)
);
},
{
closed = 1;
nodes = (
(110,78,o),
(151,63,o),
(191,79,o),
(200,100,q),
(226,102,o),
(243,146,o),
(222,194,o),
(200,200,q),
(200,226,o),
(147,245,o),
(96,223,o),
(100,200,q),
(78,200,o),
(57,150,o),
(75,100,o),
(100,100,q)
);
},
{
closed = 1;
nodes = (
(310,-22,o),
(351,-37,o),
(391,-21,o),
(400,0,q),
(426,2,o),
(443,46,o),
(422,94,o),
(400,100,q),
(400,126,o),
(347,145,o),
(296,123,o),
(300,100,q),
(278,100,o),
(257,50,o),
(275,0,o),
(300,0,q)
);
},
{
closed = 1;
nodes = (
(410,-22,o),
(451,-37,o),
(491,-21,o),
(500,0,q),
(526,2,o),
(543,46,o),
(522,94,o),
(500,100,q),
(500,126,o),
(447,145,o),
(396,123,o),
(400,100,q),
(378,100,o),
(357,50,o),
(375,0,o),
(400,0,q)
);
},
{
closed = 1;
nodes = (
(510,78,o),
(551,63,o),
(591,79,o),
(600,100,q),
(626,102,o),
(643,146,o),
(622,194,o),
(600,200,q),
(600,226,o),
(547,245,o),
(496,223,o),
(500,200,q),
(478,200,o),
(457,150,o),
(475,100,o),
(500,100,q)
);
},
{
closed = 1;
nodes = (
(310,278,o),
(351,263,o),
(391,279,o),
(400,300,q),
(426,302,o),
(443,346,o),
(422,394,o),
(400,400,q),
(400,426,o),
(347,445,o),
(296,423,o),
(300,400,q),
(278,400,o),
(257,350,o),
(275,300,o),
(300,300,q)
);
},
{
closed = 1;
nodes = (
(210,378,o),
(251,363,o),
(291,379,o),
(300,400,q),
(326,402,o),
(343,446,o),
(322,494,o),
(300,500,q),
(300,526,o),
(247,545,o),
(196,523,o),
(200,500,q),
(178,500,o),
(157,450,o),
(175,400,o),
(200,400,q)
);
},
{
closed = 1;
nodes = (
(110,178,o),
(151,163,o),
(191,179,o),
(200,200,q),
(226,202,o),
(243,246,o),
(222,294,o),
(200,300,q),
(200,326,o),
(147,345,o),
(96,323,o),
(100,300,q),
(78,300,o),
(57,250,o),
(75,200,o),
(100,200,q)
);
},
{
closed = 1;
nodes = (
(210,-22,o),
(251,-37,o),
(291,-21,o),
(300,0,q),
(326,2,o),
(343,46,o),
(322,94,o),
(300,100,q),
(300,126,o),
(247,145,o),
(196,123,o),
(200,100,q),
(178,100,o),
(157,50,o),
(175,0,o),
(200,0,q)
);
},
{
closed = 1;
nodes = (
(210,78,o),
(251,63,o),
(291,79,o),
(300,100,q),
(326,102,o),
(343,146,o),
(322,194,o),
(300,200,q),
(300,226,o),
(247,245,o),
(196,223,o),
(200,200,q),
(178,200,o),
(157,150,o),
(175,100,o),
(200,100,q)
);
},
{
closed = 1;
nodes = (
(510,278,o),
(551,263,o),
(591,279,o),
(600,300,q),
(626,302,o),
(643,346,o),
(622,394,o),
(600,400,q),
(600,426,o),
(547,445,o),
(496,423,o),
(500,400,q),
(478,400,o),
(457,350,o),
(475,300,o),
(500,300,q)
);
},
{
closed = 1;
nodes = (
(410,278,o),
(451,263,o),
(491,279,o),
(500,300,q),
(526,302,o),
(543,346,o),
(522,394,o),
(500,400,q),
(500,426,o),
(447,445,o),
(396,423,o),
(400,400,q),
(378,400,o),
(357,350,o),
(375,300,o),
(400,300,q)
);
}
);
width = 600;
}
);
note = e;
unicode = 69;
},
{
glyphname = F;
lastChange = "2025-10-03 20:31:35 +0000";
layers = (
{
layerId = m01;
shapes = (
{
closed = 1;
nodes = (
(225,300,o),
(250,300,o),
(275,300,o),
(300,300,q),
(300,325,o),
(300,350,o),
(300,375,o),
(300,400,q),
(275,400,o),
(250,400,o),
(225,400,o),
(200,400,q),
(200,375,o),
(200,350,o),
(200,325,o),
(200,300,q)
);
},
{
closed = 1;
nodes = (
(125,400,o),
(150,400,o),
(175,400,o),
(200,400,q),
(200,425,o),
(200,450,o),
(200,475,o),
(200,500,q),
(175,500,o),
(150,500,o),
(125,500,o),
(100,500,q),
(100,475,o),
(100,450,o),
(100,425,o),
(100,400,q)
);
},
{
closed = 1;
nodes = (
(125,100,o),
(150,100,o),
(175,100,o),
(200,100,q),
(200,125,o),
(200,150,o),
(200,175,o),
(200,200,q),
(175,200,o),
(150,200,o),
(125,200,o),
(100,200,q),
(100,175,o),
(100,150,o),
(100,125,o),
(100,100,q)
);
},
{
closed = 1;
nodes = (
(125,0,o),
(150,0,o),
(175,0,o),
(200,0,q),
(200,25,o),
(200,50,o),
(200,75,o),
(200,100,q),
(175,100,o),
(150,100,o),
(125,100,o),
(100,100,q),
(100,75,o),
(100,50,o),
(100,25,o),
(100,0,q)
);
},
{
closed = 1;
nodes = (
(125,500,o),
(150,500,o),
(175,500,o),
(200,500,q),
(200,525,o),
(200,550,o),
(200,575,o),
(200,600,q),
(175,600,o),
(150,600,o),
(125,600,o),
(100,600,q),
(100,575,o),
(100,550,o),
(100,525,o),
(100,500,q)
);
},
{
closed = 1;
nodes = (
(225,700,o),
(250,700,o),
(275,700,o),
(300,700,q),
(300,725,o),
(300,750,o),
(300,775,o),
(300,800,q),
(275,800,o),
(250,800,o),
(225,800,o),
(200,800,q),
(200,775,o),
(200,750,o),
(200,725,o),
(200,700,q)
);
},
{
closed = 1;
nodes = (
(125,600,o),
(150,600,o),
(175,600,o),
(200,600,q),
(200,625,o),
(200,650,o),
(200,675,o),
(200,700,q),
(175,700,o),
(150,700,o),
(125,700,o),
(100,700,q),
(100,675,o),
(100,650,o),
(100,625,o),
(100,600,q)
);
},
{
closed = 1;
nodes = (
(325,300,o),
(350,300,o),
(375,300,o),
(400,300,q),
(400,325,o),
(400,350,o),
(400,375,o),
(400,400,q),
(375,400,o),
(350,400,o),
(325,400,o),
(300,400,q),
(300,375,o),
(300,350,o),
(300,325,o),
(300,300,q)
);
},
{
closed = 1;
nodes = (
(125,300,o),
(150,300,o),
(175,300,o),
(200,300,q),
(200,325,o),
(200,350,o),
(200,375,o),
(200,400,q),
(175,400,o),
(150,400,o),
(125,400,o),
(100,400,q),
(100,375,o),
(100,350,o),
(100,325,o),
(100,300,q)
);
},
{
closed = 1;
nodes = (
(325,700,o),
(350,700,o),
(375,700,o),
(400,700,q),
(400,725,o),
(400,750,o),
(400,775,o),
(400,800,q),
(375,800,o),
(350,800,o),
(325,800,o),
(300,800,q),
(300,775,o),
(300,750,o),
(300,725,o),
(300,700,q)
);
},
{
closed = 1;
nodes = (
(425,600,o),
(450,600,o),
(475,600,o),
(500,600,q),
(500,625,o),
(500,650,o),
(500,675,o),
(500,700,q),
(475,700,o),
(450,700,o),
(425,700,o),
(400,700,q),
(400,675,o),
(400,650,o),
(400,625,o),
(400,600,q)
);
},
{
closed = 1;
nodes = (
(425,500,o),
(450,500,o),
(475,500,o),
(500,500,q),
(500,525,o),
(500,550,o),
(500,575,o),
(500,600,q),
(475,600,o),
(450,600,o),
(425,600,o),
(400,600,q),
(400,575,o),
(400,550,o),
(400,525,o),
(400,500,q)
);
},
{
closed = 1;
nodes = (
(125,200,o),
(150,200,o),
(175,200,o),
(200,200,q),
(200,225,o),
(200,250,o),
(200,275,o),
(200,300,q),
(175,300,o),
(150,300,o),
(125,300,o),
(100,300,q),
(100,275,o),
(100,250,o),
(100,225,o),
(100,200,q)
);
},
{
closed = 1;
nodes = (
(325,600,o),
(350,600,o),
(375,600,o),
(400,600,q),
(400,625,o),
(400,650,o),
(400,675,o),
(400,700,q),
(375,700,o),
(350,700,o),
(325,700,o),
(300,700,q),
(300,675,o),
(300,650,o),
(300,625,o),
(300,600,q)
);
},
{
closed = 1;
nodes = (
(225,600,o),
(250,600,o),
(275,600,o),
(300,600,q),
(300,625,o),
(300,650,o),
(300,675,o),
(300,700,q),
(275,700,o),
(250,700,o),
(225,700,o),
(200,700,q),
(200,675,o),
(200,650,o),
(200,625,o),
(200,600,q)
);
},
{
closed = 1;
nodes = (
(225,200,o),
(250,200,o),
(275,200,o),
(300,200,q),
(300,225,o),
(300,250,o),
(300,275,o),
(300,300,q),
(275,300,o),
(250,300,o),
(225,300,o),
(200,300,q),
(200,275,o),
(200,250,o),
(200,225,o),
(200,200,q)
);
}
);
width = 600;
},
{
layerId = "FEF0E8F1-F572-4E0C-8E3A-3334D1706851";
shapes = (
{
closed = 1;
nodes = (
(210,278,o),
(251,263,o),
(291,279,o),
(300,300,q),
(326,302,o),
(343,346,o),
(322,394,o),
(300,400,q),
(300,426,o),
(247,445,o),
(196,423,o),
(200,400,q),
(178,400,o),
(157,350,o),
(175,300,o),
(200,300,q)
);
},
{
closed = 1;
nodes = (
(110,378,o),
(151,363,o),
(191,379,o),
(200,400,q),
(226,402,o),
(243,446,o),
(222,494,o),
(200,500,q),
(200,526,o),
(147,545,o),
(96,523,o),
(100,500,q),
(78,500,o),
(57,450,o),
(75,400,o),
(100,400,q)
);
},
{
closed = 1;
nodes = (
(110,78,o),
(151,63,o),
(191,79,o),
(200,100,q),
(226,102,o),
(243,146,o),
(222,194,o),
(200,200,q),
(200,226,o),
(147,245,o),
(96,223,o),
(100,200,q),
(78,200,o),
(57,150,o),
(75,100,o),
(100,100,q)
);
},
{
closed = 1;
nodes = (
(110,-22,o),
(151,-37,o),
(191,-21,o),
(200,0,q),
(226,2,o),
(243,46,o),
(222,94,o),
(200,100,q),
(200,126,o),
(147,145,o),
(96,123,o),
(100,100,q),
(78,100,o),
(57,50,o),
(75,0,o),
(100,0,q)
);
},
{
closed = 1;
nodes = (
(110,478,o),
(151,463,o),
(191,479,o),
(200,500,q),
(226,502,o),
(243,546,o),
(222,594,o),
(200,600,q),
(200,626,o),
(147,645,o),
(96,623,o),
(100,600,q),
(78,600,o),
(57,550,o),
(75,500,o),
(100,500,q)
);
},
{
closed = 1;
nodes = (
(210,678,o),
(251,663,o),
(291,679,o),
(300,700,q),
(326,702,o),
(343,746,o),
(322,794,o),
(300,800,q),
(300,826,o),
(247,845,o),
(196,823,o),
(200,800,q),
(178,800,o),
(157,750,o),
(175,700,o),
(200,700,q)
);
},
{
closed = 1;
nodes = (
(110,578,o),
(151,563,o),
(191,579,o),
(200,600,q),
(226,602,o),
(243,646,o),
(222,694,o),
(200,700,q),
(200,726,o),
(147,745,o),
(96,723,o),
(100,700,q),
(78,700,o),
(57,650,o),
(75,600,o),
(100,600,q)
);
},
{
closed = 1;
nodes = (
(310,278,o),
(351,263,o),
(391,279,o),
(400,300,q),
(426,302,o),
(443,346,o),
(422,394,o),
(400,400,q),
(400,426,o),
(347,445,o),
(296,423,o),
(300,400,q),
(278,400,o),
(257,350,o),
(275,300,o),
(300,300,q)
);
},
{
closed = 1;
nodes = (
(110,278,o),
(151,263,o),
(191,279,o),
(200,300,q),
(226,302,o),
(243,346,o),
(222,394,o),
(200,400,q),
(200,426,o),
(147,445,o),
(96,423,o),
(100,400,q),
(78,400,o),
(57,350,o),
(75,300,o),
(100,300,q)
);
},
{
closed = 1;
nodes = (
(310,678,o),
(351,663,o),
(391,679,o),
(400,700,q),
(426,702,o),
(443,746,o),
(422,794,o),
(400,800,q),
(400,826,o),
(347,845,o),
(296,823,o),
(300,800,q),
(278,800,o),
(257,750,o),
(275,700,o),
(300,700,q)
);
},
{
closed = 1;
nodes = (
(410,578,o),
(451,563,o),
(491,579,o),
(500,600,q),
(526,602,o),
(543,646,o),
(522,694,o),
(500,700,q),
(500,726,o),
(447,745,o),
(396,723,o),
(400,700,q),
(378,700,o),
(357,650,o),
(375,600,o),
(400,600,q)
);
},
{
closed = 1;
nodes = (
(410,478,o),
(451,463,o),
(491,479,o),
(500,500,q),
(526,502,o),
(543,546,o),
(522,594,o),
(500,600,q),
(500,626,o),
(447,645,o),
(396,623,o),
(400,600,q),
(378,600,o),
(357,550,o),
(375,500,o),
(400,500,q)
);
},
{
closed = 1;
nodes = (
(110,178,o),
(151,163,o),
(191,179,o),
(200,200,q),
(226,202,o),
(243,246,o),
(222,294,o),
(200,300,q),
(200,326,o),
(147,345,o),
(96,323,o),
(100,300,q),
(78,300,o),
(57,250,o),
(75,200,o),
(100,200,q)
);
},
{
closed = 1;
nodes = (
(310,578,o),
(351,563,o),
(391,579,o),
(400,600,q),
(426,602,o),
(443,646,o),
(422,694,o),
(400,700,q),
(400,726,o),
(347,745,o),
(296,723,o),
(300,700,q),
(278,700,o),
(257,650,o),
(275,600,o),
(300,600,q)
);
},
{
closed = 1;
nodes = (
(210,578,o),
(251,563,o),
(291,579,o),
(300,600,q),
(326,602,o),
(343,646,o),
(322,694,o),
(300,700,q),
(300,726,o),
(247,745,o),
(196,723,o),
(200,700,q),
(178,700,o),
(157,650,o),
(175,600,o),
(200,600,q)
);
},
{
closed = 1;
nodes = (
(210,178,o),
(251,163,o),
(291,179,o),
(300,200,q),
(326,202,o),
(343,246,o),
(322,294,o),
(300,300,q),
(300,326,o),
(247,345,o),
(196,323,o),
(200,300,q),
(178,300,o),
(157,250,o),
(175,200,o),
(200,200,q)
);
}
);
width = 600;
}
);
note = f;
unicode = 70;
},
{
glyphname = G;
lastChange = "2025-10-03 20:31:35 +0000";
layers = (
{
layerId = m01;
shapes = (
{
closed = 1;
nodes = (
(425,200,o),
(450,200,o),
(475,200,o),
(500,200,q),
(500,225,o),
(500,250,o),
(500,275,o),
(500,300,q),
(475,300,o),
(450,300,o),
(425,300,o),
(400,300,q),
(400,275,o),
(400,250,o),
(400,225,o),
(400,200,q)
);
},
{
closed = 1;
nodes = (
(425,100,o),
(450,100,o),
(475,100,o),
(500,100,q),
(500,125,o),
(500,150,o),
(500,175,o),
(500,200,q),
(475,200,o),
(450,200,o),
(425,200,o),
(400,200,q),
(400,175,o),
(400,150,o),
(400,125,o),
(400,100,q)
);
},
{
closed = 1;
nodes = (
(425,0,o),
(450,0,o),
(475,0,o),
(500,0,q),
(500,25,o),
(500,50,o),
(500,75,o),
(500,100,q),
(475,100,o),
(450,100,o),
(425,100,o),
(400,100,q),
(400,75,o),
(400,50,o),
(400,25,o),
(400,0,q)
);
},
{
closed = 1;
nodes = (
(425,-100,o),
(450,-100,o),
(475,-100,o),
(500,-100,q),
(500,-75,o),
(500,-50,o),
(500,-25,o),
(500,0,q),
(475,0,o),
(450,0,o),
(425,0,o),
(400,0,q),
(400,-25,o),
(400,-50,o),
(400,-75,o),
(400,-100,q)
);
},
{
closed = 1;
nodes = (
(425,-200,o),
(450,-200,o),
(475,-200,o),
(500,-200,q),
(500,-175,o),
(500,-150,o),
(500,-125,o),
(500,-100,q),
(475,-100,o),
(450,-100,o),
(425,-100,o),
(400,-100,q),
(400,-125,o),
(400,-150,o),
(400,-175,o),
(400,-200,q)
);
},
{
closed = 1;
nodes = (
(325,-200,o),
(350,-200,o),
(375,-200,o),
(400,-200,q),
(400,-175,o),
(400,-150,o),
(400,-125,o),
(400,-100,q),
(375,-100,o),
(350,-100,o),
(325,-100,o),
(300,-100,q),
(300,-125,o),
(300,-150,o),
(300,-175,o),
(300,-200,q)
);
},
{
closed = 1;
nodes = (
(125,0,o),
(150,0,o),
(175,0,o),
(200,0,q),
(200,25,o),
(200,50,o),
(200,75,o),
(200,100,q),
(175,100,o),
(150,100,o),
(125,100,o),
(100,100,q),
(100,75,o),
(100,50,o),
(100,25,o),
(100,0,q)
);
},
{
closed = 1;
nodes = (
(125,-100,o),
(150,-100,o),
(175,-100,o),
(200,-100,q),
(200,-75,o),
(200,-50,o),
(200,-25,o),
(200,0,q),
(175,0,o),
(150,0,o),
(125,0,o),
(100,0,q),
(100,-25,o),
(100,-50,o),
(100,-75,o),
(100,-100,q)
);
},
{
closed = 1;
nodes = (
(225,-200,o),
(250,-200,o),
(275,-200,o),
(300,-200,q),
(300,-175,o),
(300,-150,o),
(300,-125,o),
(300,-100,q),
(275,-100,o),
(250,-100,o),
(225,-100,o),
(200,-100,q),
(200,-125,o),
(200,-150,o),
(200,-175,o),
(200,-200,q)
);
},
{
closed = 1;
nodes = (
(225,-100,o),
(250,-100,o),
(275,-100,o),
(300,-100,q),
(300,-75,o),
(300,-50,o),
(300,-25,o),
(300,0,q),
(275,0,o),
(250,0,o),
(225,0,o),
(200,0,q),
(200,-25,o),
(200,-50,o),
(200,-75,o),
(200,-100,q)
);
},
{
closed = 1;
nodes = (
(425,500,o),
(450,500,o),
(475,500,o),
(500,500,q),
(500,525,o),
(500,550,o),
(500,575,o),
(500,600,q),
(475,600,o),
(450,600,o),
(425,600,o),
(400,600,q),
(400,575,o),
(400,550,o),
(400,525,o),
(400,500,q)
);
},
{
closed = 1;
nodes = (
(325,500,o),
(350,500,o),
(375,500,o),
(400,500,q),
(400,525,o),
(400,550,o),
(400,575,o),
(400,600,q),
(375,600,o),
(350,600,o),
(325,600,o),
(300,600,q),
(300,575,o),
(300,550,o),
(300,525,o),
(300,500,q)
);
},
{
closed = 1;
nodes = (
(225,500,o),
(250,500,o),
(275,500,o),
(300,500,q),
(300,525,o),
(300,550,o),
(300,575,o),
(300,600,q),
(275,600,o),
(250,600,o),
(225,600,o),
(200,600,q),
(200,575,o),
(200,550,o),
(200,525,o),
(200,500,q)
);
},
{
closed = 1;
nodes = (
(125,400,o),
(150,400,o),
(175,400,o),
(200,400,q),
(200,425,o),
(200,450,o),
(200,475,o),
(200,500,q),
(175,500,o),
(150,500,o),
(125,500,o),
(100,500,q),
(100,475,o),
(100,450,o),
(100,425,o),
(100,400,q)
);
},
{
closed = 1;
nodes = (
(125,300,o),
(150,300,o),
(175,300,o),
(200,300,q),
(200,325,o),
(200,350,o),
(200,375,o),
(200,400,q),
(175,400,o),
(150,400,o),
(125,400,o),
(100,400,q),
(100,375,o),
(100,350,o),
(100,325,o),
(100,300,q)
);
},
{
closed = 1;
nodes = (
(225,200,o),
(250,200,o),
(275,200,o),
(300,200,q),
(300,225,o),
(300,250,o),
(300,275,o),
(300,300,q),
(275,300,o),
(250,300,o),
(225,300,o),
(200,300,q),
(200,275,o),
(200,250,o),
(200,225,o),
(200,200,q)
);
},
{
closed = 1;
nodes = (
(325,200,o),
(350,200,o),
(375,200,o),
(400,200,q),
(400,225,o),
(400,250,o),
(400,275,o),
(400,300,q),
(375,300,o),
(350,300,o),
(325,300,o),
(300,300,q),
(300,275,o),
(300,250,o),
(300,225,o),
(300,200,q)
);
},
{
closed = 1;
nodes = (
(425,300,o),
(450,300,o),
(475,300,o),
(500,300,q),
(500,325,o),
(500,350,o),
(500,375,o),
(500,400,q),
(475,400,o),
(450,400,o),
(425,400,o),
(400,400,q),
(400,375,o),
(400,350,o),
(400,325,o),
(400,300,q)
);
},
{
closed = 1;
nodes = (
(425,400,o),
(450,400,o),
(475,400,o),
(500,400,q),
(500,425,o),
(500,450,o),
(500,475,o),
(500,500,q),
(475,500,o),
(450,500,o),
(425,500,o),
(400,500,q),
(400,475,o),
(400,450,o),
(400,425,o),
(400,400,q)
);
},
{
closed = 1;
nodes = (
(325,400,o),
(350,400,o),
(375,400,o),
(400,400,q),
(400,425,o),
(400,450,o),
(400,475,o),
(400,500,q),
(375,500,o),
(350,500,o),
(325,500,o),
(300,500,q),
(300,475,o),
(300,450,o),
(300,425,o),
(300,400,q)
);
}
);
width = 600;
},
{
layerId = "FEF0E8F1-F572-4E0C-8E3A-3334D1706851";
shapes = (
{
closed = 1;
nodes = (
(410,178,o),
(451,163,o),
(491,179,o),
(500,200,q),
(526,202,o),
(543,246,o),
(522,294,o),
(500,300,q),
(500,326,o),
(447,345,o),
(396,323,o),
(400,300,q),
(378,300,o),
(357,250,o),
(375,200,o),
(400,200,q)
);
},
{
closed = 1;
nodes = (
(410,78,o),
(451,63,o),
(491,79,o),
(500,100,q),
(526,102,o),
(543,146,o),
(522,194,o),
(500,200,q),
(500,226,o),
(447,245,o),
(396,223,o),
(400,200,q),
(378,200,o),
(357,150,o),
(375,100,o),
(400,100,q)
);
},
{
closed = 1;
nodes = (
(410,-22,o),
(451,-37,o),
(491,-21,o),
(500,0,q),
(526,2,o),
(543,46,o),
(522,94,o),
(500,100,q),
(500,126,o),
(447,145,o),
(396,123,o),
(400,100,q),
(378,100,o),
(357,50,o),
(375,0,o),
(400,0,q)
);
},
{
closed = 1;
nodes = (
(410,-122,o),
(451,-137,o),
(491,-121,o),
(500,-100,q),
(526,-98,o),
(543,-54,o),
(522,-6,o),
(500,0,q),
(500,26,o),
(447,45,o),
(396,23,o),
(400,0,q),
(378,0,o),
(357,-50,o),
(375,-100,o),
(400,-100,q)
);
},
{
closed = 1;
nodes = (
(410,-222,o),
(451,-237,o),
(491,-221,o),
(500,-200,q),
(526,-198,o),
(543,-154,o),
(522,-106,o),
(500,-100,q),
(500,-74,o),
(447,-55,o),
(396,-77,o),
(400,-100,q),
(378,-100,o),
(357,-150,o),
(375,-200,o),
(400,-200,q)
);
},
{
closed = 1;
nodes = (
(310,-222,o),
(351,-237,o),
(391,-221,o),
(400,-200,q),
(426,-198,o),
(443,-154,o),
(422,-106,o),
(400,-100,q),
(400,-74,o),
(347,-55,o),
(296,-77,o),
(300,-100,q),
(278,-100,o),
(257,-150,o),
(275,-200,o),
(300,-200,q)
);
},
{
closed = 1;
nodes = (
(110,-22,o),
(151,-37,o),
(191,-21,o),
(200,0,q),
(226,2,o),
(243,46,o),
(222,94,o),
(200,100,q),
(200,126,o),
(147,145,o),
(96,123,o),
(100,100,q),
(78,100,o),
(57,50,o),
(75,0,o),
(100,0,q)
);
},
{
closed = 1;
nodes = (
(110,-122,o),
(151,-137,o),
(191,-121,o),
(200,-100,q),
(226,-98,o),
(243,-54,o),
(222,-6,o),
(200,0,q),
(200,26,o),
(147,45,o),
(96,23,o),
(100,0,q),
(78,0,o),
(57,-50,o),
(75,-100,o),
(100,-100,q)
);
},
{
closed = 1;
nodes = (
(210,-222,o),
(251,-237,o),
(291,-221,o),
(300,-200,q),
(326,-198,o),
(343,-154,o),
(322,-106,o),
(300,-100,q),
(300,-74,o),
(247,-55,o),
(196,-77,o),
(200,-100,q),
(178,-100,o),
(157,-150,o),
(175,-200,o),
(200,-200,q)
);
},
{
closed = 1;
nodes = (
(210,-122,o),
(251,-137,o),
(291,-121,o),
(300,-100,q),
(326,-98,o),
(343,-54,o),
(322,-6,o),
(300,0,q),
(300,26,o),
(247,45,o),
(196,23,o),
(200,0,q),
(178,0,o),
(157,-50,o),
(175,-100,o),
(200,-100,q)
);
},
{
closed = 1;
nodes = (
(410,478,o),
(451,463,o),
(491,479,o),
(500,500,q),
(526,502,o),
(543,546,o),
(522,594,o),
(500,600,q),
(500,626,o),
(447,645,o),
(396,623,o),
(400,600,q),
(378,600,o),
(357,550,o),
(375,500,o),
(400,500,q)
);
},
{
closed = 1;
nodes = (
(310,478,o),
(351,463,o),
(391,479,o),
(400,500,q),
(426,502,o),
(443,546,o),
(422,594,o),
(400,600,q),
(400,626,o),
(347,645,o),
(296,623,o),
(300,600,q),
(278,600,o),
(257,550,o),
(275,500,o),
(300,500,q)
);
},
{
closed = 1;
nodes = (
(210,478,o),
(251,463,o),
(291,479,o),
(300,500,q),
(326,502,o),
(343,546,o),
(322,594,o),
(300,600,q),
(300,626,o),
(247,645,o),
(196,623,o),
(200,600,q),
(178,600,o),
(157,550,o),
(175,500,o),
(200,500,q)
);
},
{
closed = 1;
nodes = (
(110,378,o),
(151,363,o),
(191,379,o),
(200,400,q),
(226,402,o),
(243,446,o),
(222,494,o),
(200,500,q),
(200,526,o),
(147,545,o),
(96,523,o),
(100,500,q),
(78,500,o),
(57,450,o),
(75,400,o),
(100,400,q)
);
},
{
closed = 1;
nodes = (
(110,278,o),
(151,263,o),
(191,279,o),
(200,300,q),
(226,302,o),
(243,346,o),
(222,394,o),
(200,400,q),
(200,426,o),
(147,445,o),
(96,423,o),
(100,400,q),
(78,400,o),
(57,350,o),
(75,300,o),
(100,300,q)
);
},
{
closed = 1;
nodes = (
(210,178,o),
(251,163,o),
(291,179,o),
(300,200,q),
(326,202,o),
(343,246,o),
(322,294,o),
(300,300,q),
(300,326,o),
(247,345,o),
(196,323,o),
(200,300,q),
(178,300,o),
(157,250,o),
(175,200,o),
(200,200,q)
);
},
{
closed = 1;
nodes = (
(310,178,o),
(351,163,o),
(391,179,o),
(400,200,q),
(426,202,o),
(443,246,o),
(422,294,o),
(400,300,q),
(400,326,o),
(347,345,o),
(296,323,o),
(300,300,q),
(278,300,o),
(257,250,o),
(275,200,o),
(300,200,q)
);
},
{
closed = 1;
nodes = (
(410,278,o),
(451,263,o),
(491,279,o),
(500,300,q),
(526,302,o),
(543,346,o),
(522,394,o),
(500,400,q),
(500,426,o),
(447,445,o),
(396,423,o),
(400,400,q),
(378,400,o),
(357,350,o),
(375,300,o),
(400,300,q)
);
},
{
closed = 1;
nodes = (
(410,378,o),
(451,363,o),
(491,379,o),
(500,400,q),
(526,402,o),
(543,446,o),
(522,494,o),
(500,500,q),
(500,526,o),
(447,545,o),
(396,523,o),
(400,500,q),
(378,500,o),
(357,450,o),
(375,400,o),
(400,400,q)
);
},
{
closed = 1;
nodes = (
(310,378,o),
(351,363,o),
(391,379,o),
(400,400,q),
(426,402,o),
(443,446,o),
(422,494,o),
(400,500,q),
(400,526,o),
(347,545,o),
(296,523,o),
(300,500,q),
(278,500,o),
(257,450,o),
(275,400,o),
(300,400,q)
);
}
);
width = 600;
}
);
note = g;
unicode = 71;
},
{
glyphname = H;
lastChange = "2025-10-03 20:31:35 +0000";
layers = (
{
layerId = m01;
shapes = (
{
closed = 1;
nodes = (
(125,700,o),
(150,700,o),
(175,700,o),
(200,700,q),
(200,725,o),
(200,750,o),
(200,775,o),
(200,800,q),
(175,800,o),
(150,800,o),
(125,800,o),
(100,800,q),
(100,775,o),
(100,750,o),
(100,725,o),
(100,700,q)
);
},
{
closed = 1;
nodes = (
(125,600,o),
(150,600,o),
(175,600,o),
(200,600,q),
(200,625,o),
(200,650,o),
(200,675,o),
(200,700,q),
(175,700,o),
(150,700,o),
(125,700,o),
(100,700,q),
(100,675,o),
(100,650,o),
(100,625,o),
(100,600,q)
);
},
{
closed = 1;
nodes = (
(25,700,o),
(50,700,o),
(75,700,o),
(100,700,q),
(100,725,o),
(100,750,o),
(100,775,o),
(100,800,q),
(75,800,o),
(50,800,o),
(25,800,o),
(0,800,q),
(0,775,o),
(0,750,o),
(0,725,o),
(0,700,q)
);
},
{
closed = 1;
nodes = (
(25,600,o),
(50,600,o),
(75,600,o),
(100,600,q),
(100,625,o),
(100,650,o),
(100,675,o),
(100,700,q),
(75,700,o),
(50,700,o),
(25,700,o),
(0,700,q),
(0,675,o),
(0,650,o),
(0,625,o),
(0,600,q)
);
},
{
closed = 1;
nodes = (
(25,500,o),
(50,500,o),
(75,500,o),
(100,500,q),
(100,525,o),
(100,550,o),
(100,575,o),
(100,600,q),
(75,600,o),
(50,600,o),
(25,600,o),
(0,600,q),
(0,575,o),
(0,550,o),
(0,525,o),
(0,500,q)
);
},
{
closed = 1;
nodes = (
(25,400,o),
(50,400,o),
(75,400,o),
(100,400,q),
(100,425,o),
(100,450,o),
(100,475,o),
(100,500,q),
(75,500,o),
(50,500,o),
(25,500,o),
(0,500,q),
(0,475,o),
(0,450,o),
(0,425,o),
(0,400,q)
);
},
{
closed = 1;
nodes = (
(25,300,o),
(50,300,o),
(75,300,o),
(100,300,q),
(100,325,o),
(100,350,o),
(100,375,o),
(100,400,q),
(75,400,o),
(50,400,o),
(25,400,o),
(0,400,q),
(0,375,o),
(0,350,o),
(0,325,o),
(0,300,q)
);
},
{
closed = 1;
nodes = (
(25,200,o),
(50,200,o),
(75,200,o),
(100,200,q),
(100,225,o),
(100,250,o),
(100,275,o),
(100,300,q),
(75,300,o),
(50,300,o),
(25,300,o),
(0,300,q),
(0,275,o),
(0,250,o),
(0,225,o),
(0,200,q)
);
},
{
closed = 1;
nodes = (
(225,400,o),
(250,400,o),
(275,400,o),
(300,400,q),
(300,425,o),
(300,450,o),
(300,475,o),
(300,500,q),
(275,500,o),
(250,500,o),
(225,500,o),
(200,500,q),
(200,475,o),
(200,450,o),
(200,425,o),
(200,400,q)
);
},
{
closed = 1;
nodes = (
(325,400,o),
(350,400,o),
(375,400,o),
(400,400,q),
(400,425,o),
(400,450,o),
(400,475,o),
(400,500,q),
(375,500,o),
(350,500,o),
(325,500,o),
(300,500,q),
(300,475,o),
(300,450,o),
(300,425,o),
(300,400,q)
);
},
{
closed = 1;
nodes = (
(425,300,o),
(450,300,o),
(475,300,o),
(500,300,q),
(500,325,o),
(500,350,o),
(500,375,o),
(500,400,q),
(475,400,o),
(450,400,o),
(425,400,o),
(400,400,q),
(400,375,o),
(400,350,o),
(400,325,o),
(400,300,q)
);
},
{
closed = 1;
nodes = (
(425,200,o),
(450,200,o),
(475,200,o),
(500,200,q),
(500,225,o),
(500,250,o),
(500,275,o),
(500,300,q),
(475,300,o),
(450,300,o),
(425,300,o),
(400,300,q),
(400,275,o),
(400,250,o),
(400,225,o),
(400,200,q)
);
},
{
closed = 1;
nodes = (
(125,300,o),
(150,300,o),
(175,300,o),
(200,300,q),
(200,325,o),
(200,350,o),
(200,375,o),
(200,400,q),
(175,400,o),
(150,400,o),
(125,400,o),
(100,400,q),
(100,375,o),
(100,350,o),
(100,325,o),
(100,300,q)
);
},
{
closed = 1;
nodes = (
(125,200,o),
(150,200,o),
(175,200,o),
(200,200,q),
(200,225,o),
(200,250,o),
(200,275,o),
(200,300,q),
(175,300,o),
(150,300,o),
(125,300,o),
(100,300,q),
(100,275,o),
(100,250,o),
(100,225,o),
(100,200,q)
);
},
{
closed = 1;
nodes = (
(125,100,o),
(150,100,o),
(175,100,o),
(200,100,q),
(200,125,o),
(200,150,o),
(200,175,o),
(200,200,q),
(175,200,o),
(150,200,o),
(125,200,o),
(100,200,q),
(100,175,o),
(100,150,o),
(100,125,o),
(100,100,q)
);
},
{
closed = 1;
nodes = (
(125,0,o),
(150,0,o),
(175,0,o),
(200,0,q),
(200,25,o),
(200,50,o),
(200,75,o),
(200,100,q),
(175,100,o),
(150,100,o),
(125,100,o),
(100,100,q),
(100,75,o),
(100,50,o),
(100,25,o),
(100,0,q)
);
},
{
closed = 1;
nodes = (
(25,0,o),
(50,0,o),
(75,0,o),
(100,0,q),
(100,25,o),
(100,50,o),
(100,75,o),
(100,100,q),
(75,100,o),
(50,100,o),
(25,100,o),
(0,100,q),
(0,75,o),
(0,50,o),
(0,25,o),
(0,0,q)
);
},
{
closed = 1;
nodes = (
(25,100,o),
(50,100,o),
(75,100,o),
(100,100,q),
(100,125,o),
(100,150,o),
(100,175,o),
(100,200,q),
(75,200,o),
(50,200,o),
(25,200,o),
(0,200,q),
(0,175,o),
(0,150,o),
(0,125,o),
(0,100,q)
);
},
{
closed = 1;
nodes = (
(425,100,o),
(450,100,o),
(475,100,o),
(500,100,q),
(500,125,o),
(500,150,o),
(500,175,o),
(500,200,q),
(475,200,o),
(450,200,o),
(425,200,o),
(400,200,q),
(400,175,o),
(400,150,o),
(400,125,o),
(400,100,q)
);
},
{
closed = 1;
nodes = (
(425,0,o),
(450,0,o),
(475,0,o),
(500,0,q),
(500,25,o),
(500,50,o),
(500,75,o),
(500,100,q),
(475,100,o),
(450,100,o),
(425,100,o),
(400,100,q),
(400,75,o),
(400,50,o),
(400,25,o),
(400,0,q)
);
},
{
closed = 1;
nodes = (
(125,400,o),
(150,400,o),
(175,400,o),
(200,400,q),
(200,425,o),
(200,450,o),
(200,475,o),
(200,500,q),
(175,500,o),
(150,500,o),
(125,500,o),
(100,500,q),
(100,475,o),
(100,450,o),
(100,425,o),
(100,400,q)
);
},
{
closed = 1;
nodes = (
(325,300,o),
(350,300,o),
(375,300,o),
(400,300,q),
(400,325,o),
(400,350,o),
(400,375,o),
(400,400,q),
(375,400,o),
(350,400,o),
(325,400,o),
(300,400,q),
(300,375,o),
(300,350,o),
(300,325,o),
(300,300,q)
);
},
{
closed = 1;
nodes = (
(125,500,o),
(150,500,o),
(175,500,o),
(200,500,q),
(200,525,o),
(200,550,o),
(200,575,o),
(200,600,q),
(175,600,o),
(150,600,o),
(125,600,o),
(100,600,q),
(100,575,o),
(100,550,o),
(100,525,o),
(100,500,q)
);
},
{
closed = 1;
nodes = (
(225,300,o),
(250,300,o),
(275,300,o),
(300,300,q),
(300,325,o),
(300,350,o),
(300,375,o),
(300,400,q),
(275,400,o),
(250,400,o),
(225,400,o),
(200,400,q),
(200,375,o),
(200,350,o),
(200,325,o),
(200,300,q)
);
},
{
closed = 1;
nodes = (
(325,200,o),
(350,200,o),
(375,200,o),
(400,200,q),
(400,225,o),
(400,250,o),
(400,275,o),
(400,300,q),
(375,300,o),
(350,300,o),
(325,300,o),
(300,300,q),
(300,275,o),
(300,250,o),
(300,225,o),
(300,200,q)
);
}
);
width = 600;
},
{
layerId = "FEF0E8F1-F572-4E0C-8E3A-3334D1706851";
shapes = (
{
closed = 1;
nodes = (
(110,678,o),
(151,663,o),
(191,679,o),
(200,700,q),
(226,702,o),
(243,746,o),
(222,794,o),
(200,800,q),
(200,826,o),
(147,845,o),
(96,823,o),
(100,800,q),
(78,800,o),
(57,750,o),
(75,700,o),
(100,700,q)
);
},
{
closed = 1;
nodes = (
(110,578,o),
(151,563,o),
(191,579,o),
(200,600,q),
(226,602,o),
(243,646,o),
(222,694,o),
(200,700,q),
(200,726,o),
(147,745,o),
(96,723,o),
(100,700,q),
(78,700,o),
(57,650,o),
(75,600,o),
(100,600,q)
);
},
{
closed = 1;
nodes = (
(10,678,o),
(51,663,o),
(91,679,o),
(100,700,q),
(126,702,o),
(143,746,o),
(122,794,o),
(100,800,q),
(100,826,o),
(47,845,o),
(-4,823,o),
(0,800,q),
(-22,800,o),
(-43,750,o),
(-25,700,o),
(0,700,q)
);
},
{
closed = 1;
nodes = (
(10,578,o),
(51,563,o),
(91,579,o),
(100,600,q),
(126,602,o),
(143,646,o),
(122,694,o),
(100,700,q),
(100,726,o),
(47,745,o),
(-4,723,o),
(0,700,q),
(-22,700,o),
(-43,650,o),
(-25,600,o),
(0,600,q)
);
},
{
closed = 1;
nodes = (
(10,478,o),
(51,463,o),
(91,479,o),
(100,500,q),
(126,502,o),
(143,546,o),
(122,594,o),
(100,600,q),
(100,626,o),
(47,645,o),
(-4,623,o),
(0,600,q),
(-22,600,o),
(-43,550,o),
(-25,500,o),
(0,500,q)
);
},
{
closed = 1;
nodes = (
(10,378,o),
(51,363,o),
(91,379,o),
(100,400,q),
(126,402,o),
(143,446,o),
(122,494,o),
(100,500,q),
(100,526,o),
(47,545,o),
(-4,523,o),
(0,500,q),
(-22,500,o),
(-43,450,o),
(-25,400,o),
(0,400,q)
);
},
{
closed = 1;
nodes = (
(10,278,o),
(51,263,o),
(91,279,o),
(100,300,q),
(126,302,o),
(143,346,o),
(122,394,o),
(100,400,q),
(100,426,o),
(47,445,o),
(-4,423,o),
(0,400,q),
(-22,400,o),
(-43,350,o),
(-25,300,o),
(0,300,q)
);
},
{
closed = 1;
nodes = (
(10,178,o),
(51,163,o),
(91,179,o),
(100,200,q),
(126,202,o),
(143,246,o),
(122,294,o),
(100,300,q),
(100,326,o),
(47,345,o),
(-4,323,o),
(0,300,q),
(-22,300,o),
(-43,250,o),
(-25,200,o),
(0,200,q)
);
},
{
closed = 1;
nodes = (
(210,378,o),
(251,363,o),
(291,379,o),
(300,400,q),
(326,402,o),
(343,446,o),
(322,494,o),
(300,500,q),
(300,526,o),
(247,545,o),
(196,523,o),
(200,500,q),
(178,500,o),
(157,450,o),
(175,400,o),
(200,400,q)
);
},
{
closed = 1;
nodes = (
(310,378,o),
(351,363,o),
(391,379,o),
(400,400,q),
(426,402,o),
(443,446,o),
(422,494,o),
(400,500,q),
(400,526,o),
(347,545,o),
(296,523,o),
(300,500,q),
(278,500,o),
(257,450,o),
(275,400,o),
(300,400,q)
);
},
{
closed = 1;
nodes = (
(410,278,o),
(451,263,o),
(491,279,o),
(500,300,q),
(526,302,o),
(543,346,o),
(522,394,o),
(500,400,q),
(500,426,o),
(447,445,o),
(396,423,o),
(400,400,q),
(378,400,o),
(357,350,o),
(375,300,o),
(400,300,q)
);
},
{
closed = 1;
nodes = (
(410,178,o),
(451,163,o),
(491,179,o),
(500,200,q),
(526,202,o),
(543,246,o),
(522,294,o),
(500,300,q),
(500,326,o),
(447,345,o),
(396,323,o),
(400,300,q),
(378,300,o),
(357,250,o),
(375,200,o),
(400,200,q)
);
},
{
closed = 1;
nodes = (
(110,278,o),
(151,263,o),
(191,279,o),
(200,300,q),
(226,302,o),
(243,346,o),
(222,394,o),
(200,400,q),
(200,426,o),
(147,445,o),
(96,423,o),
(100,400,q),
(78,400,o),
(57,350,o),
(75,300,o),
(100,300,q)
);
},
{
closed = 1;
nodes = (
(110,178,o),
(151,163,o),
(191,179,o),
(200,200,q),
(226,202,o),
(243,246,o),
(222,294,o),
(200,300,q),
(200,326,o),
(147,345,o),
(96,323,o),
(100,300,q),
(78,300,o),
(57,250,o),
(75,200,o),
(100,200,q)
);
},
{
closed = 1;
nodes = (
(110,78,o),
(151,63,o),
(191,79,o),
(200,100,q),
(226,102,o),
(243,146,o),
(222,194,o),
(200,200,q),
(200,226,o),
(147,245,o),
(96,223,o),
(100,200,q),
(78,200,o),
(57,150,o),
(75,100,o),
(100,100,q)
);
},
{
closed = 1;
nodes = (
(110,-22,o),
(151,-37,o),
(191,-21,o),
(200,0,q),
(226,2,o),
(243,46,o),
(222,94,o),
(200,100,q),
(200,126,o),
(147,145,o),
(96,123,o),
(100,100,q),
(78,100,o),
(57,50,o),
(75,0,o),
(100,0,q)
);
},
{
closed = 1;
nodes = (
(10,-22,o),
(51,-37,o),
(91,-21,o),
(100,0,q),
(126,2,o),
(143,46,o),
(122,94,o),
(100,100,q),
(100,126,o),
(47,145,o),
(-4,123,o),
(0,100,q),
(-22,100,o),
(-43,50,o),
(-25,0,o),
(0,0,q)
);
},
{
closed = 1;
nodes = (
(10,78,o),
(51,63,o),
(91,79,o),
(100,100,q),
(126,102,o),
(143,146,o),
(122,194,o),
(100,200,q),
(100,226,o),
(47,245,o),
(-4,223,o),
(0,200,q),
(-22,200,o),
(-43,150,o),
(-25,100,o),
(0,100,q)
);
},
{
closed = 1;
nodes = (
(410,78,o),
(451,63,o),
(491,79,o),
(500,100,q),
(526,102,o),
(543,146,o),
(522,194,o),
(500,200,q),
(500,226,o),
(447,245,o),
(396,223,o),
(400,200,q),
(378,200,o),
(357,150,o),
(375,100,o),
(400,100,q)
);
},
{
closed = 1;
nodes = (
(410,-22,o),
(451,-37,o),
(491,-21,o),
(500,0,q),
(526,2,o),
(543,46,o),
(522,94,o),
(500,100,q),
(500,126,o),
(447,145,o),
(396,123,o),
(400,100,q),
(378,100,o),
(357,50,o),
(375,0,o),
(400,0,q)
);
},
{
closed = 1;
nodes = (
(110,378,o),
(151,363,o),
(191,379,o),
(200,400,q),
(226,402,o),
(243,446,o),
(222,494,o),
(200,500,q),
(200,526,o),
(147,545,o),
(96,523,o),
(100,500,q),
(78,500,o),
(57,450,o),
(75,400,o),
(100,400,q)
);
},
{
closed = 1;
nodes = (
(310,278,o),
(351,263,o),
(391,279,o),
(400,300,q),
(426,302,o),
(443,346,o),
(422,394,o),
(400,400,q),
(400,426,o),
(347,445,o),
(296,423,o),
(300,400,q),
(278,400,o),
(257,350,o),
(275,300,o),
(300,300,q)
);
},
{
closed = 1;
nodes = (
(110,478,o),
(151,463,o),
(191,479,o),
(200,500,q),
(226,502,o),
(243,546,o),
(222,594,o),
(200,600,q),
(200,626,o),
(147,645,o),
(96,623,o),
(100,600,q),
(78,600,o),
(57,550,o),
(75,500,o),
(100,500,q)
);
},
{
closed = 1;
nodes = (
(210,278,o),
(251,263,o),
(291,279,o),
(300,300,q),
(326,302,o),
(343,346,o),
(322,394,o),
(300,400,q),
(300,426,o),
(247,445,o),
(196,423,o),
(200,400,q),
(178,400,o),
(157,350,o),
(175,300,o),
(200,300,q)
);
},
{
closed = 1;
nodes = (
(310,178,o),
(351,163,o),
(391,179,o),
(400,200,q),
(426,202,o),
(443,246,o),
(422,294,o),
(400,300,q),
(400,326,o),
(347,345,o),
(296,323,o),
(300,300,q),
(278,300,o),
(257,250,o),
(275,200,o),
(300,200,q)
);
}
);
width = 600;
}
);
note = h;
unicode = 72;
},
{
glyphname = I;
lastChange = "2025-10-03 20:31:35 +0000";
layers = (
{
layerId = m01;
shapes = (
{
closed = 1;
nodes = (
(325,300,o),
(350,300,o),
(375,300,o),
(400,300,q),
(400,325,o),
(400,350,o),
(400,375,o),
(400,400,q),
(375,400,o),
(350,400,o),
(325,400,o),
(300,400,q),
(300,375,o),
(300,350,o),
(300,325,o),
(300,300,q)
);
},
{
closed = 1;
nodes = (
(325,200,o),
(350,200,o),
(375,200,o),
(400,200,q),
(400,225,o),
(400,250,o),
(400,275,o),
(400,300,q),
(375,300,o),
(350,300,o),
(325,300,o),
(300,300,q),
(300,275,o),
(300,250,o),
(300,225,o),
(300,200,q)
);
},
{
closed = 1;
nodes = (
(325,100,o),
(350,100,o),
(375,100,o),
(400,100,q),
(400,125,o),
(400,150,o),
(400,175,o),
(400,200,q),
(375,200,o),
(350,200,o),
(325,200,o),
(300,200,q),
(300,175,o),
(300,150,o),
(300,125,o),
(300,100,q)
);
},
{
closed = 1;
nodes = (
(325,0,o),
(350,0,o),
(375,0,o),
(400,0,q),
(400,25,o),
(400,50,o),
(400,75,o),
(400,100,q),
(375,100,o),
(350,100,o),
(325,100,o),
(300,100,q),
(300,75,o),
(300,50,o),
(300,25,o),
(300,0,q)
);
},
{
closed = 1;
nodes = (
(325,700,o),
(350,700,o),
(375,700,o),
(400,700,q),
(400,725,o),
(400,750,o),
(400,775,o),
(400,800,q),
(375,800,o),
(350,800,o),
(325,800,o),
(300,800,q),
(300,775,o),
(300,750,o),
(300,725,o),
(300,700,q)
);
},
{
closed = 1;
nodes = (
(325,500,o),
(350,500,o),
(375,500,o),
(400,500,q),
(400,525,o),
(400,550,o),
(400,575,o),
(400,600,q),
(375,600,o),
(350,600,o),
(325,600,o),
(300,600,q),
(300,575,o),
(300,550,o),
(300,525,o),
(300,500,q)
);
},
{
closed = 1;
nodes = (
(325,400,o),
(350,400,o),
(375,400,o),
(400,400,q),
(400,425,o),
(400,450,o),
(400,475,o),
(400,500,q),
(375,500,o),
(350,500,o),
(325,500,o),
(300,500,q),
(300,475,o),
(300,450,o),
(300,425,o),
(300,400,q)
);
},
{
closed = 1;
nodes = (
(225,500,o),
(250,500,o),
(275,500,o),
(300,500,q),
(300,525,o),
(300,550,o),
(300,575,o),
(300,600,q),
(275,600,o),
(250,600,o),
(225,600,o),
(200,600,q),
(200,575,o),
(200,550,o),
(200,525,o),
(200,500,q)
);
},
{
closed = 1;
nodes = (
(225,0,o),
(250,0,o),
(275,0,o),
(300,0,q),
(300,25,o),
(300,50,o),
(300,75,o),
(300,100,q),
(275,100,o),
(250,100,o),
(225,100,o),
(200,100,q),
(200,75,o),
(200,50,o),
(200,25,o),
(200,0,q)
);
}
);
width = 600;
},
{
layerId = "FEF0E8F1-F572-4E0C-8E3A-3334D1706851";
shapes = (
{
closed = 1;
nodes = (
(310,278,o),
(351,263,o),
(391,279,o),
(400,300,q),
(426,302,o),
(443,346,o),
(422,394,o),
(400,400,q),
(400,426,o),
(347,445,o),
(296,423,o),
(300,400,q),
(278,400,o),
(257,350,o),
(275,300,o),
(300,300,q)
);
},
{
closed = 1;
nodes = (
(310,178,o),
(351,163,o),
(391,179,o),
(400,200,q),
(426,202,o),
(443,246,o),
(422,294,o),
(400,300,q),
(400,326,o),
(347,345,o),
(296,323,o),
(300,300,q),
(278,300,o),
(257,250,o),
(275,200,o),
(300,200,q)
);
},
{
closed = 1;
nodes = (
(310,78,o),
(351,63,o),
(391,79,o),
(400,100,q),
(426,102,o),
(443,146,o),
(422,194,o),
(400,200,q),
(400,226,o),
(347,245,o),
(296,223,o),
(300,200,q),
(278,200,o),
(257,150,o),
(275,100,o),
(300,100,q)
);
},
{
closed = 1;
nodes = (
(310,-22,o),
(351,-37,o),
(391,-21,o),
(400,0,q),
(426,2,o),
(443,46,o),
(422,94,o),
(400,100,q),
(400,126,o),
(347,145,o),
(296,123,o),
(300,100,q),
(278,100,o),
(257,50,o),
(275,0,o),
(300,0,q)
);
},
{
closed = 1;
nodes = (
(310,678,o),
(351,663,o),
(391,679,o),
(400,700,q),
(426,702,o),
(443,746,o),
(422,794,o),
(400,800,q),
(400,826,o),
(347,845,o),
(296,823,o),
(300,800,q),
(278,800,o),
(257,750,o),
(275,700,o),
(300,700,q)
);
},
{
closed = 1;
nodes = (
(310,478,o),
(351,463,o),
(391,479,o),
(400,500,q),
(426,502,o),
(443,546,o),
(422,594,o),
(400,600,q),
(400,626,o),
(347,645,o),
(296,623,o),
(300,600,q),
(278,600,o),
(257,550,o),
(275,500,o),
(300,500,q)
);
},
{
closed = 1;
nodes = (
(310,378,o),
(351,363,o),
(391,379,o),
(400,400,q),
(426,402,o),
(443,446,o),
(422,494,o),
(400,500,q),
(400,526,o),
(347,545,o),
(296,523,o),
(300,500,q),
(278,500,o),
(257,450,o),
(275,400,o),
(300,400,q)
);
},
{
closed = 1;
nodes = (
(210,478,o),
(251,463,o),
(291,479,o),
(300,500,q),
(326,502,o),
(343,546,o),
(322,594,o),
(300,600,q),
(300,626,o),
(247,645,o),
(196,623,o),
(200,600,q),
(178,600,o),
(157,550,o),
(175,500,o),
(200,500,q)
);
},
{
closed = 1;
nodes = (
(210,-22,o),
(251,-37,o),
(291,-21,o),
(300,0,q),
(326,2,o),
(343,46,o),
(322,94,o),
(300,100,q),
(300,126,o),
(247,145,o),
(196,123,o),
(200,100,q),
(178,100,o),
(157,50,o),
(175,0,o),
(200,0,q)
);
}
);
width = 600;
}
);
note = i;
unicode = 73;
},
{
glyphname = J;
lastChange = "2025-10-03 20:31:35 +0000";
layers = (
{
layerId = m01;
shapes = (
{
closed = 1;
nodes = (
(425,300,o),
(450,300,o),
(475,300,o),
(500,300,q),
(500,325,o),
(500,350,o),
(500,375,o),
(500,400,q),
(475,400,o),
(450,400,o),
(425,400,o),
(400,400,q),
(400,375,o),
(400,350,o),
(400,325,o),
(400,300,q)
);
},
{
closed = 1;
nodes = (
(425,200,o),
(450,200,o),
(475,200,o),
(500,200,q),
(500,225,o),
(500,250,o),
(500,275,o),
(500,300,q),
(475,300,o),
(450,300,o),
(425,300,o),
(400,300,q),
(400,275,o),
(400,250,o),
(400,225,o),
(400,200,q)
);
},
{
closed = 1;
nodes = (
(425,100,o),
(450,100,o),
(475,100,o),
(500,100,q),
(500,125,o),
(500,150,o),
(500,175,o),
(500,200,q),
(475,200,o),
(450,200,o),
(425,200,o),
(400,200,q),
(400,175,o),
(400,150,o),
(400,125,o),
(400,100,q)
);
},
{
closed = 1;
nodes = (
(425,0,o),
(450,0,o),
(475,0,o),
(500,0,q),
(500,25,o),
(500,50,o),
(500,75,o),
(500,100,q),
(475,100,o),
(450,100,o),
(425,100,o),
(400,100,q),
(400,75,o),
(400,50,o),
(400,25,o),
(400,0,q)
);
},
{
closed = 1;
nodes = (
(425,500,o),
(450,500,o),
(475,500,o),
(500,500,q),
(500,525,o),
(500,550,o),
(500,575,o),
(500,600,q),
(475,600,o),
(450,600,o),
(425,600,o),
(400,600,q),
(400,575,o),
(400,550,o),
(400,525,o),
(400,500,q)
);
},
{
closed = 1;
nodes = (
(425,700,o),
(450,700,o),
(475,700,o),
(500,700,q),
(500,725,o),
(500,750,o),
(500,775,o),
(500,800,q),
(475,800,o),
(450,800,o),
(425,800,o),
(400,800,q),
(400,775,o),
(400,750,o),
(400,725,o),
(400,700,q)
);
},
{
closed = 1;
nodes = (
(425,-100,o),
(450,-100,o),
(475,-100,o),
(500,-100,q),
(500,-75,o),
(500,-50,o),
(500,-25,o),
(500,0,q),
(475,0,o),
(450,0,o),
(425,0,o),
(400,0,q),
(400,-25,o),
(400,-50,o),
(400,-75,o),
(400,-100,q)
);
},
{
closed = 1;
nodes = (
(325,500,o),
(350,500,o),
(375,500,o),
(400,500,q),
(400,525,o),
(400,550,o),
(400,575,o),
(400,600,q),
(375,600,o),
(350,600,o),
(325,600,o),
(300,600,q),
(300,575,o),
(300,550,o),
(300,525,o),
(300,500,q)
);
},
{
closed = 1;
nodes = (
(425,400,o),
(450,400,o),
(475,400,o),
(500,400,q),
(500,425,o),
(500,450,o),
(500,475,o),
(500,500,q),
(475,500,o),
(450,500,o),
(425,500,o),
(400,500,q),
(400,475,o),
(400,450,o),
(400,425,o),
(400,400,q)
);
},
{
closed = 1;
nodes = (
(325,-200,o),
(350,-200,o),
(375,-200,o),
(400,-200,q),
(400,-175,o),
(400,-150,o),
(400,-125,o),
(400,-100,q),
(375,-100,o),
(350,-100,o),
(325,-100,o),
(300,-100,q),
(300,-125,o),
(300,-150,o),
(300,-175,o),
(300,-200,q)
);
},
{
closed = 1;
nodes = (
(225,-200,o),
(250,-200,o),
(275,-200,o),
(300,-200,q),
(300,-175,o),
(300,-150,o),
(300,-125,o),
(300,-100,q),
(275,-100,o),
(250,-100,o),
(225,-100,o),
(200,-100,q),
(200,-125,o),
(200,-150,o),
(200,-175,o),
(200,-200,q)
);
},
{
closed = 1;
nodes = (
(425,-200,o),
(450,-200,o),
(475,-200,o),
(500,-200,q),
(500,-175,o),
(500,-150,o),
(500,-125,o),
(500,-100,q),
(475,-100,o),
(450,-100,o),
(425,-100,o),
(400,-100,q),
(400,-125,o),
(400,-150,o),
(400,-175,o),
(400,-200,q)
);
},
{
closed = 1;
nodes = (
(125,-100,o),
(150,-100,o),
(175,-100,o),
(200,-100,q),
(200,-75,o),
(200,-50,o),
(200,-25,o),
(200,0,q),
(175,0,o),
(150,0,o),
(125,0,o),
(100,0,q),
(100,-25,o),
(100,-50,o),
(100,-75,o),
(100,-100,q)
);
},
{
closed = 1;
nodes = (
(125,0,o),
(150,0,o),
(175,0,o),
(200,0,q),
(200,25,o),
(200,50,o),
(200,75,o),
(200,100,q),
(175,100,o),
(150,100,o),
(125,100,o),
(100,100,q),
(100,75,o),
(100,50,o),
(100,25,o),
(100,0,q)
);
},
{
closed = 1;
nodes = (
(125,100,o),
(150,100,o),
(175,100,o),
(200,100,q),
(200,125,o),
(200,150,o),
(200,175,o),
(200,200,q),
(175,200,o),
(150,200,o),
(125,200,o),
(100,200,q),
(100,175,o),
(100,150,o),
(100,125,o),
(100,100,q)
);
}
);
width = 600;
},
{
layerId = "FEF0E8F1-F572-4E0C-8E3A-3334D1706851";
shapes = (
{
closed = 1;
nodes = (
(410,278,o),
(451,263,o),
(491,279,o),
(500,300,q),
(526,302,o),
(543,346,o),
(522,394,o),
(500,400,q),
(500,426,o),
(447,445,o),
(396,423,o),
(400,400,q),
(378,400,o),
(357,350,o),
(375,300,o),
(400,300,q)
);
},
{
closed = 1;
nodes = (
(410,178,o),
(451,163,o),
(491,179,o),
(500,200,q),
(526,202,o),
(543,246,o),
(522,294,o),
(500,300,q),
(500,326,o),
(447,345,o),
(396,323,o),
(400,300,q),
(378,300,o),
(357,250,o),
(375,200,o),
(400,200,q)
);
},
{
closed = 1;
nodes = (
(410,78,o),
(451,63,o),
(491,79,o),
(500,100,q),
(526,102,o),
(543,146,o),
(522,194,o),
(500,200,q),
(500,226,o),
(447,245,o),
(396,223,o),
(400,200,q),
(378,200,o),
(357,150,o),
(375,100,o),
(400,100,q)
);
},
{
closed = 1;
nodes = (
(410,-22,o),
(451,-37,o),
(491,-21,o),
(500,0,q),
(526,2,o),
(543,46,o),
(522,94,o),
(500,100,q),
(500,126,o),
(447,145,o),
(396,123,o),
(400,100,q),
(378,100,o),
(357,50,o),
(375,0,o),
(400,0,q)
);
},
{
closed = 1;
nodes = (
(410,478,o),
(451,463,o),
(491,479,o),
(500,500,q),
(526,502,o),
(543,546,o),
(522,594,o),
(500,600,q),
(500,626,o),
(447,645,o),
(396,623,o),
(400,600,q),
(378,600,o),
(357,550,o),
(375,500,o),
(400,500,q)
);
},
{
closed = 1;
nodes = (
(410,678,o),
(451,663,o),
(491,679,o),
(500,700,q),
(526,702,o),
(543,746,o),
(522,794,o),
(500,800,q),
(500,826,o),
(447,845,o),
(396,823,o),
(400,800,q),
(378,800,o),
(357,750,o),
(375,700,o),
(400,700,q)
);
},
{
closed = 1;
nodes = (
(410,-122,o),
(451,-137,o),
(491,-121,o),
(500,-100,q),
(526,-98,o),
(543,-54,o),
(522,-6,o),
(500,0,q),
(500,26,o),
(447,45,o),
(396,23,o),
(400,0,q),
(378,0,o),
(357,-50,o),
(375,-100,o),
(400,-100,q)
);
},
{
closed = 1;
nodes = (
(310,478,o),
(351,463,o),
(391,479,o),
(400,500,q),
(426,502,o),
(443,546,o),
(422,594,o),
(400,600,q),
(400,626,o),
(347,645,o),
(296,623,o),
(300,600,q),
(278,600,o),
(257,550,o),
(275,500,o),
(300,500,q)
);
},
{
closed = 1;
nodes = (
(410,378,o),
(451,363,o),
(491,379,o),
(500,400,q),
(526,402,o),
(543,446,o),
(522,494,o),
(500,500,q),
(500,526,o),
(447,545,o),
(396,523,o),
(400,500,q),
(378,500,o),
(357,450,o),
(375,400,o),
(400,400,q)
);
},
{
closed = 1;
nodes = (
(310,-222,o),
(351,-237,o),
(391,-221,o),
(400,-200,q),
(426,-198,o),
(443,-154,o),
(422,-106,o),
(400,-100,q),
(400,-74,o),
(347,-55,o),
(296,-77,o),
(300,-100,q),
(278,-100,o),
(257,-150,o),
(275,-200,o),
(300,-200,q)
);
},
{
closed = 1;
nodes = (
(210,-222,o),
(251,-237,o),
(291,-221,o),
(300,-200,q),
(326,-198,o),
(343,-154,o),
(322,-106,o),
(300,-100,q),
(300,-74,o),
(247,-55,o),
(196,-77,o),
(200,-100,q),
(178,-100,o),
(157,-150,o),
(175,-200,o),
(200,-200,q)
);
},
{
closed = 1;
nodes = (
(410,-222,o),
(451,-237,o),
(491,-221,o),
(500,-200,q),
(526,-198,o),
(543,-154,o),
(522,-106,o),
(500,-100,q),
(500,-74,o),
(447,-55,o),
(396,-77,o),
(400,-100,q),
(378,-100,o),
(357,-150,o),
(375,-200,o),
(400,-200,q)
);
},
{
closed = 1;
nodes = (
(110,-122,o),
(151,-137,o),
(191,-121,o),
(200,-100,q),
(226,-98,o),
(243,-54,o),
(222,-6,o),
(200,0,q),
(200,26,o),
(147,45,o),
(96,23,o),
(100,0,q),
(78,0,o),
(57,-50,o),
(75,-100,o),
(100,-100,q)
);
},
{
closed = 1;
nodes = (
(110,-22,o),
(151,-37,o),
(191,-21,o),
(200,0,q),
(226,2,o),
(243,46,o),
(222,94,o),
(200,100,q),
(200,126,o),
(147,145,o),
(96,123,o),
(100,100,q),
(78,100,o),
(57,50,o),
(75,0,o),
(100,0,q)
);
},
{
closed = 1;
nodes = (
(110,78,o),
(151,63,o),
(191,79,o),
(200,100,q),
(226,102,o),
(243,146,o),
(222,194,o),
(200,200,q),
(200,226,o),
(147,245,o),
(96,223,o),
(100,200,q),
(78,200,o),
(57,150,o),
(75,100,o),
(100,100,q)
);
}
);
width = 600;
}
);
note = j;
unicode = 74;
},
{
glyphname = K;
lastChange = "2025-10-03 20:31:35 +0000";
layers = (
{
layerId = m01;
shapes = (
{
closed = 1;
nodes = (
(25,700,o),
(50,700,o),
(75,700,o),
(100,700,q),
(100,725,o),
(100,750,o),
(100,775,o),
(100,800,q),
(75,800,o),
(50,800,o),
(25,800,o),
(0,800,q),
(0,775,o),
(0,750,o),
(0,725,o),
(0,700,q)
);
},
{
closed = 1;
nodes = (
(25,600,o),
(50,600,o),
(75,600,o),
(100,600,q),
(100,625,o),
(100,650,o),
(100,675,o),
(100,700,q),
(75,700,o),
(50,700,o),
(25,700,o),
(0,700,q),
(0,675,o),
(0,650,o),
(0,625,o),
(0,600,q)
);
},
{
closed = 1;
nodes = (
(25,500,o),
(50,500,o),
(75,500,o),
(100,500,q),
(100,525,o),
(100,550,o),
(100,575,o),
(100,600,q),
(75,600,o),
(50,600,o),
(25,600,o),
(0,600,q),
(0,575,o),
(0,550,o),
(0,525,o),
(0,500,q)
);
},
{
closed = 1;
nodes = (
(25,400,o),
(50,400,o),
(75,400,o),
(100,400,q),
(100,425,o),
(100,450,o),
(100,475,o),
(100,500,q),
(75,500,o),
(50,500,o),
(25,500,o),
(0,500,q),
(0,475,o),
(0,450,o),
(0,425,o),
(0,400,q)
);
},
{
closed = 1;
nodes = (
(125,300,o),
(150,300,o),
(175,300,o),
(200,300,q),
(200,325,o),
(200,350,o),
(200,375,o),
(200,400,q),
(175,400,o),
(150,400,o),
(125,400,o),
(100,400,q),
(100,375,o),
(100,350,o),
(100,325,o),
(100,300,q)
);
},
{
closed = 1;
nodes = (
(25,300,o),
(50,300,o),
(75,300,o),
(100,300,q),
(100,325,o),
(100,350,o),
(100,375,o),
(100,400,q),
(75,400,o),
(50,400,o),
(25,400,o),
(0,400,q),
(0,375,o),
(0,350,o),
(0,325,o),
(0,300,q)
);
},
{
closed = 1;
nodes = (
(25,200,o),
(50,200,o),
(75,200,o),
(100,200,q),
(100,225,o),
(100,250,o),
(100,275,o),
(100,300,q),
(75,300,o),
(50,300,o),
(25,300,o),
(0,300,q),
(0,275,o),
(0,250,o),
(0,225,o),
(0,200,q)
);
},
{
closed = 1;
nodes = (
(25,100,o),
(50,100,o),
(75,100,o),
(100,100,q),
(100,125,o),
(100,150,o),
(100,175,o),
(100,200,q),
(75,200,o),
(50,200,o),
(25,200,o),
(0,200,q),
(0,175,o),
(0,150,o),
(0,125,o),
(0,100,q)
);
},
{
closed = 1;
nodes = (
(25,0,o),
(50,0,o),
(75,0,o),
(100,0,q),
(100,25,o),
(100,50,o),
(100,75,o),
(100,100,q),
(75,100,o),
(50,100,o),
(25,100,o),
(0,100,q),
(0,75,o),
(0,50,o),
(0,25,o),
(0,0,q)
);
},
{
closed = 1;
nodes = (
(325,100,o),
(350,100,o),
(375,100,o),
(400,100,q),
(400,125,o),
(400,150,o),
(400,175,o),
(400,200,q),
(375,200,o),
(350,200,o),
(325,200,o),
(300,200,q),
(300,175,o),
(300,150,o),
(300,125,o),
(300,100,q)
);
},
{
closed = 1;
nodes = (
(325,500,o),
(350,500,o),
(375,500,o),
(400,500,q),
(400,525,o),
(400,550,o),
(400,575,o),
(400,600,q),
(375,600,o),
(350,600,o),
(325,600,o),
(300,600,q),
(300,575,o),
(300,550,o),
(300,525,o),
(300,500,q)
);
},
{
closed = 1;
nodes = (
(225,200,o),
(250,200,o),
(275,200,o),
(300,200,q),
(300,225,o),
(300,250,o),
(300,275,o),
(300,300,q),
(275,300,o),
(250,300,o),
(225,300,o),
(200,300,q),
(200,275,o),
(200,250,o),
(200,225,o),
(200,200,q)
);
},
{
closed = 1;
nodes = (
(225,400,o),
(250,400,o),
(275,400,o),
(300,400,q),
(300,425,o),
(300,450,o),
(300,475,o),
(300,500,q),
(275,500,o),
(250,500,o),
(225,500,o),
(200,500,q),
(200,475,o),
(200,450,o),
(200,425,o),
(200,400,q)
);
},
{
closed = 1;
nodes = (
(325,600,o),
(350,600,o),
(375,600,o),
(400,600,q),
(400,625,o),
(400,650,o),
(400,675,o),
(400,700,q),
(375,700,o),
(350,700,o),
(325,700,o),
(300,700,q),
(300,675,o),
(300,650,o),
(300,625,o),
(300,600,q)
);
},
{
closed = 1;
nodes = (
(325,0,o),
(350,0,o),
(375,0,o),
(400,0,q),
(400,25,o),
(400,50,o),
(400,75,o),
(400,100,q),
(375,100,o),
(350,100,o),
(325,100,o),
(300,100,q),
(300,75,o),
(300,50,o),
(300,25,o),
(300,0,q)
);
},
{
closed = 1;
nodes = (
(125,200,o),
(150,200,o),
(175,200,o),
(200,200,q),
(200,225,o),
(200,250,o),
(200,275,o),
(200,300,q),
(175,300,o),
(150,300,o),
(125,300,o),
(100,300,q),
(100,275,o),
(100,250,o),
(100,225,o),
(100,200,q)
);
},
{
closed = 1;
nodes = (
(125,400,o),
(150,400,o),
(175,400,o),
(200,400,q),
(200,425,o),
(200,450,o),
(200,475,o),
(200,500,q),
(175,500,o),
(150,500,o),
(125,500,o),
(100,500,q),
(100,475,o),
(100,450,o),
(100,425,o),
(100,400,q)
);
},
{
closed = 1;
nodes = (
(225,500,o),
(250,500,o),
(275,500,o),
(300,500,q),
(300,525,o),
(300,550,o),
(300,575,o),
(300,600,q),
(275,600,o),
(250,600,o),
(225,600,o),
(200,600,q),
(200,575,o),
(200,550,o),
(200,525,o),
(200,500,q)
);
},
{
closed = 1;
nodes = (
(425,0,o),
(450,0,o),
(475,0,o),
(500,0,q),
(500,25,o),
(500,50,o),
(500,75,o),
(500,100,q),
(475,100,o),
(450,100,o),
(425,100,o),
(400,100,q),
(400,75,o),
(400,50,o),
(400,25,o),
(400,0,q)
);
},
{
closed = 1;
nodes = (
(225,100,o),
(250,100,o),
(275,100,o),
(300,100,q),
(300,125,o),
(300,150,o),
(300,175,o),
(300,200,q),
(275,200,o),
(250,200,o),
(225,200,o),
(200,200,q),
(200,175,o),
(200,150,o),
(200,125,o),
(200,100,q)
);
}
);
width = 600;
},
{
layerId = "FEF0E8F1-F572-4E0C-8E3A-3334D1706851";
shapes = (
{
closed = 1;
nodes = (
(10,678,o),
(51,663,o),
(91,679,o),
(100,700,q),
(126,702,o),
(143,746,o),
(122,794,o),
(100,800,q),
(100,826,o),
(47,845,o),
(-4,823,o),
(0,800,q),
(-22,800,o),
(-43,750,o),
(-25,700,o),
(0,700,q)
);
},
{
closed = 1;
nodes = (
(10,578,o),
(51,563,o),
(91,579,o),
(100,600,q),
(126,602,o),
(143,646,o),
(122,694,o),
(100,700,q),
(100,726,o),
(47,745,o),
(-4,723,o),
(0,700,q),
(-22,700,o),
(-43,650,o),
(-25,600,o),
(0,600,q)
);
},
{
closed = 1;
nodes = (
(10,478,o),
(51,463,o),
(91,479,o),
(100,500,q),
(126,502,o),
(143,546,o),
(122,594,o),
(100,600,q),
(100,626,o),
(47,645,o),
(-4,623,o),
(0,600,q),
(-22,600,o),
(-43,550,o),
(-25,500,o),
(0,500,q)
);
},
{
closed = 1;
nodes = (
(10,378,o),
(51,363,o),
(91,379,o),
(100,400,q),
(126,402,o),
(143,446,o),
(122,494,o),
(100,500,q),
(100,526,o),
(47,545,o),
(-4,523,o),
(0,500,q),
(-22,500,o),
(-43,450,o),
(-25,400,o),
(0,400,q)
);
},
{
closed = 1;
nodes = (
(110,278,o),
(151,263,o),
(191,279,o),
(200,300,q),
(226,302,o),
(243,346,o),
(222,394,o),
(200,400,q),
(200,426,o),
(147,445,o),
(96,423,o),
(100,400,q),
(78,400,o),
(57,350,o),
(75,300,o),
(100,300,q)
);
},
{
closed = 1;
nodes = (
(10,278,o),
(51,263,o),
(91,279,o),
(100,300,q),
(126,302,o),
(143,346,o),
(122,394,o),
(100,400,q),
(100,426,o),
(47,445,o),
(-4,423,o),
(0,400,q),
(-22,400,o),
(-43,350,o),
(-25,300,o),
(0,300,q)
);
},
{
closed = 1;
nodes = (
(10,178,o),
(51,163,o),
(91,179,o),
(100,200,q),
(126,202,o),
(143,246,o),
(122,294,o),
(100,300,q),
(100,326,o),
(47,345,o),
(-4,323,o),
(0,300,q),
(-22,300,o),
(-43,250,o),
(-25,200,o),
(0,200,q)
);
},
{
closed = 1;
nodes = (
(10,78,o),
(51,63,o),
(91,79,o),
(100,100,q),
(126,102,o),
(143,146,o),
(122,194,o),
(100,200,q),
(100,226,o),
(47,245,o),
(-4,223,o),
(0,200,q),
(-22,200,o),
(-43,150,o),
(-25,100,o),
(0,100,q)
);
},
{
closed = 1;
nodes = (
(10,-22,o),
(51,-37,o),
(91,-21,o),
(100,0,q),
(126,2,o),
(143,46,o),
(122,94,o),
(100,100,q),
(100,126,o),
(47,145,o),
(-4,123,o),
(0,100,q),
(-22,100,o),
(-43,50,o),
(-25,0,o),
(0,0,q)
);
},
{
closed = 1;
nodes = (
(310,78,o),
(351,63,o),
(391,79,o),
(400,100,q),
(426,102,o),
(443,146,o),
(422,194,o),
(400,200,q),
(400,226,o),
(347,245,o),
(296,223,o),
(300,200,q),
(278,200,o),
(257,150,o),
(275,100,o),
(300,100,q)
);
},
{
closed = 1;
nodes = (
(310,478,o),
(351,463,o),
(391,479,o),
(400,500,q),
(426,502,o),
(443,546,o),
(422,594,o),
(400,600,q),
(400,626,o),
(347,645,o),
(296,623,o),
(300,600,q),
(278,600,o),
(257,550,o),
(275,500,o),
(300,500,q)
);
},
{
closed = 1;
nodes = (
(210,178,o),
(251,163,o),
(291,179,o),
(300,200,q),
(326,202,o),
(343,246,o),
(322,294,o),
(300,300,q),
(300,326,o),
(247,345,o),
(196,323,o),
(200,300,q),
(178,300,o),
(157,250,o),
(175,200,o),
(200,200,q)
);
},
{
closed = 1;
nodes = (
(210,378,o),
(251,363,o),
(291,379,o),
(300,400,q),
(326,402,o),
(343,446,o),
(322,494,o),
(300,500,q),
(300,526,o),
(247,545,o),
(196,523,o),
(200,500,q),
(178,500,o),
(157,450,o),
(175,400,o),
(200,400,q)
);
},
{
closed = 1;
nodes = (
(310,578,o),
(351,563,o),
(391,579,o),
(400,600,q),
(426,602,o),
(443,646,o),
(422,694,o),
(400,700,q),
(400,726,o),
(347,745,o),
(296,723,o),
(300,700,q),
(278,700,o),
(257,650,o),
(275,600,o),
(300,600,q)
);
},
{
closed = 1;
nodes = (
(310,-22,o),
(351,-37,o),
(391,-21,o),
(400,0,q),
(426,2,o),
(443,46,o),
(422,94,o),
(400,100,q),
(400,126,o),
(347,145,o),
(296,123,o),
(300,100,q),
(278,100,o),
(257,50,o),
(275,0,o),
(300,0,q)
);
},
{
closed = 1;
nodes = (
(110,178,o),
(151,163,o),
(191,179,o),
(200,200,q),
(226,202,o),
(243,246,o),
(222,294,o),
(200,300,q),
(200,326,o),
(147,345,o),
(96,323,o),
(100,300,q),
(78,300,o),
(57,250,o),
(75,200,o),
(100,200,q)
);
},
{
closed = 1;
nodes = (
(110,378,o),
(151,363,o),
(191,379,o),
(200,400,q),
(226,402,o),
(243,446,o),
(222,494,o),
(200,500,q),
(200,526,o),
(147,545,o),
(96,523,o),
(100,500,q),
(78,500,o),
(57,450,o),
(75,400,o),
(100,400,q)
);
},
{
closed = 1;
nodes = (
(210,478,o),
(251,463,o),
(291,479,o),
(300,500,q),
(326,502,o),
(343,546,o),
(322,594,o),
(300,600,q),
(300,626,o),
(247,645,o),
(196,623,o),
(200,600,q),
(178,600,o),
(157,550,o),
(175,500,o),
(200,500,q)
);
},
{
closed = 1;
nodes = (
(410,-22,o),
(451,-37,o),
(491,-21,o),
(500,0,q),
(526,2,o),
(543,46,o),
(522,94,o),
(500,100,q),
(500,126,o),
(447,145,o),
(396,123,o),
(400,100,q),
(378,100,o),
(357,50,o),
(375,0,o),
(400,0,q)
);
},
{
closed = 1;
nodes = (
(210,78,o),
(251,63,o),
(291,79,o),
(300,100,q),
(326,102,o),
(343,146,o),
(322,194,o),
(300,200,q),
(300,226,o),
(247,245,o),
(196,223,o),
(200,200,q),
(178,200,o),
(157,150,o),
(175,100,o),
(200,100,q)
);
}
);
width = 600;
}
);
note = k;
unicode = 75;
},
{
glyphname = L;
lastChange = "2025-10-03 20:31:35 +0000";
layers = (
{
layerId = m01;
shapes = (
{
closed = 1;
nodes = (
(-375,200,o),
(-350,200,o),
(-325,200,o),
(-300,200,q),
(-300,225,o),
(-300,250,o),
(-300,275,o),
(-300,300,q),
(-325,300,o),
(-350,300,o),
(-375,300,o),
(-400,300,q),
(-400,275,o),
(-400,250,o),
(-400,225,o),
(-400,200,q)
);
},
{
closed = 1;
nodes = (
(225,600,o),
(250,600,o),
(275,600,o),
(300,600,q),
(300,625,o),
(300,650,o),
(300,675,o),
(300,700,q),
(275,700,o),
(250,700,o),
(225,700,o),
(200,700,q),
(200,675,o),
(200,650,o),
(200,625,o),
(200,600,q)
);
},
{
closed = 1;
nodes = (
(225,500,o),
(250,500,o),
(275,500,o),
(300,500,q),
(300,525,o),
(300,550,o),
(300,575,o),
(300,600,q),
(275,600,o),
(250,600,o),
(225,600,o),
(200,600,q),
(200,575,o),
(200,550,o),
(200,525,o),
(200,500,q)
);
},
{
closed = 1;
nodes = (
(225,0,o),
(250,0,o),
(275,0,o),
(300,0,q),
(300,25,o),
(300,50,o),
(300,75,o),
(300,100,q),
(275,100,o),
(250,100,o),
(225,100,o),
(200,100,q),
(200,75,o),
(200,50,o),
(200,25,o),
(200,0,q)
);
},
{
closed = 1;
nodes = (
(325,0,o),
(350,0,o),
(375,0,o),
(400,0,q),
(400,25,o),
(400,50,o),
(400,75,o),
(400,100,q),
(375,100,o),
(350,100,o),
(325,100,o),
(300,100,q),
(300,75,o),
(300,50,o),
(300,25,o),
(300,0,q)
);
},
{
closed = 1;
nodes = (
(225,400,o),
(250,400,o),
(275,400,o),
(300,400,q),
(300,425,o),
(300,450,o),
(300,475,o),
(300,500,q),
(275,500,o),
(250,500,o),
(225,500,o),
(200,500,q),
(200,475,o),
(200,450,o),
(200,425,o),
(200,400,q)
);
},
{
closed = 1;
nodes = (
(225,300,o),
(250,300,o),
(275,300,o),
(300,300,q),
(300,325,o),
(300,350,o),
(300,375,o),
(300,400,q),
(275,400,o),
(250,400,o),
(225,400,o),
(200,400,q),
(200,375,o),
(200,350,o),
(200,325,o),
(200,300,q)
);
},
{
closed = 1;
nodes = (
(225,200,o),
(250,200,o),
(275,200,o),
(300,200,q),
(300,225,o),
(300,250,o),
(300,275,o),
(300,300,q),
(275,300,o),
(250,300,o),
(225,300,o),
(200,300,q),
(200,275,o),
(200,250,o),
(200,225,o),
(200,200,q)
);
},
{
closed = 1;
nodes = (
(225,100,o),
(250,100,o),
(275,100,o),
(300,100,q),
(300,125,o),
(300,150,o),
(300,175,o),
(300,200,q),
(275,200,o),
(250,200,o),
(225,200,o),
(200,200,q),
(200,175,o),
(200,150,o),
(200,125,o),
(200,100,q)
);
},
{
closed = 1;
nodes = (
(325,700,o),
(350,700,o),
(375,700,o),
(400,700,q),
(400,725,o),
(400,750,o),
(400,775,o),
(400,800,q),
(375,800,o),
(350,800,o),
(325,800,o),
(300,800,q),
(300,775,o),
(300,750,o),
(300,725,o),
(300,700,q)
);
}
);
width = 600;
},
{
layerId = "FEF0E8F1-F572-4E0C-8E3A-3334D1706851";
shapes = (
{
closed = 1;
nodes = (
(-390,178,o),
(-349,163,o),
(-309,179,o),
(-300,200,q),
(-274,202,o),
(-257,246,o),
(-278,294,o),
(-300,300,q),
(-300,326,o),
(-353,345,o),
(-404,323,o),
(-400,300,q),
(-422,300,o),
(-443,250,o),
(-425,200,o),
(-400,200,q)
);
},
{
closed = 1;
nodes = (
(210,578,o),
(251,563,o),
(291,579,o),
(300,600,q),
(326,602,o),
(343,646,o),
(322,694,o),
(300,700,q),
(300,726,o),
(247,745,o),
(196,723,o),
(200,700,q),
(178,700,o),
(157,650,o),
(175,600,o),
(200,600,q)
);
},
{
closed = 1;
nodes = (
(210,478,o),
(251,463,o),
(291,479,o),
(300,500,q),
(326,502,o),
(343,546,o),
(322,594,o),
(300,600,q),
(300,626,o),
(247,645,o),
(196,623,o),
(200,600,q),
(178,600,o),
(157,550,o),
(175,500,o),
(200,500,q)
);
},
{
closed = 1;
nodes = (
(210,-22,o),
(251,-37,o),
(291,-21,o),
(300,0,q),
(326,2,o),
(343,46,o),
(322,94,o),
(300,100,q),
(300,126,o),
(247,145,o),
(196,123,o),
(200,100,q),
(178,100,o),
(157,50,o),
(175,0,o),
(200,0,q)
);
},
{
closed = 1;
nodes = (
(310,-22,o),
(351,-37,o),
(391,-21,o),
(400,0,q),
(426,2,o),
(443,46,o),
(422,94,o),
(400,100,q),
(400,126,o),
(347,145,o),
(296,123,o),
(300,100,q),
(278,100,o),
(257,50,o),
(275,0,o),
(300,0,q)
);
},
{
closed = 1;
nodes = (
(210,378,o),
(251,363,o),
(291,379,o),
(300,400,q),
(326,402,o),
(343,446,o),
(322,494,o),
(300,500,q),
(300,526,o),
(247,545,o),
(196,523,o),
(200,500,q),
(178,500,o),
(157,450,o),
(175,400,o),
(200,400,q)
);
},
{
closed = 1;
nodes = (
(210,278,o),
(251,263,o),
(291,279,o),
(300,300,q),
(326,302,o),
(343,346,o),
(322,394,o),
(300,400,q),
(300,426,o),
(247,445,o),
(196,423,o),
(200,400,q),
(178,400,o),
(157,350,o),
(175,300,o),
(200,300,q)
);
},
{
closed = 1;
nodes = (
(210,178,o),
(251,163,o),
(291,179,o),
(300,200,q),
(326,202,o),
(343,246,o),
(322,294,o),
(300,300,q),
(300,326,o),
(247,345,o),
(196,323,o),
(200,300,q),
(178,300,o),
(157,250,o),
(175,200,o),
(200,200,q)
);
},
{
closed = 1;
nodes = (
(210,78,o),
(251,63,o),
(291,79,o),
(300,100,q),
(326,102,o),
(343,146,o),
(322,194,o),
(300,200,q),
(300,226,o),
(247,245,o),
(196,223,o),
(200,200,q),
(178,200,o),
(157,150,o),
(175,100,o),
(200,100,q)
);
},
{
closed = 1;
nodes = (
(310,678,o),
(351,663,o),
(391,679,o),
(400,700,q),
(426,702,o),
(443,746,o),
(422,794,o),
(400,800,q),
(400,826,o),
(347,845,o),
(296,823,o),
(300,800,q),
(278,800,o),
(257,750,o),
(275,700,o),
(300,700,q)
);
}
);
width = 600;
}
);
note = l;
unicode = 76;
},
{
glyphname = M;
lastChange = "2025-10-03 20:31:35 +0000";
layers = (
{
layerId = m01;
shapes = (
{
closed = 1;
nodes = (
(325,300,o),
(350,300,o),
(375,300,o),
(400,300,q),
(400,325,o),
(400,350,o),
(400,375,o),
(400,400,q),
(375,400,o),
(350,400,o),
(325,400,o),
(300,400,q),
(300,375,o),
(300,350,o),
(300,325,o),
(300,300,q)
);
},
{
closed = 1;
nodes = (
(525,300,o),
(550,300,o),
(575,300,o),
(600,300,q),
(600,325,o),
(600,350,o),
(600,375,o),
(600,400,q),
(575,400,o),
(550,400,o),
(525,400,o),
(500,400,q),
(500,375,o),
(500,350,o),
(500,325,o),
(500,300,q)
);
},
{
closed = 1;
nodes = (
(525,200,o),
(550,200,o),
(575,200,o),
(600,200,q),
(600,225,o),
(600,250,o),
(600,275,o),
(600,300,q),
(575,300,o),
(550,300,o),
(525,300,o),
(500,300,q),
(500,275,o),
(500,250,o),
(500,225,o),
(500,200,q)
);
},
{
closed = 1;
nodes = (
(525,100,o),
(550,100,o),
(575,100,o),
(600,100,q),
(600,125,o),
(600,150,o),
(600,175,o),
(600,200,q),
(575,200,o),
(550,200,o),
(525,200,o),
(500,200,q),
(500,175,o),
(500,150,o),
(500,125,o),
(500,100,q)
);
},
{
closed = 1;
nodes = (
(525,0,o),
(550,0,o),
(575,0,o),
(600,0,q),
(600,25,o),
(600,50,o),
(600,75,o),
(600,100,q),
(575,100,o),
(550,100,o),
(525,100,o),
(500,100,q),
(500,75,o),
(500,50,o),
(500,25,o),
(500,0,q)
);
},
{
closed = 1;
nodes = (
(425,400,o),
(450,400,o),
(475,400,o),
(500,400,q),
(500,425,o),
(500,450,o),
(500,475,o),
(500,500,q),
(475,500,o),
(450,500,o),
(425,500,o),
(400,500,q),
(400,475,o),
(400,450,o),
(400,425,o),
(400,400,q)
);
},
{
closed = 1;
nodes = (
(125,100,o),
(150,100,o),
(175,100,o),
(200,100,q),
(200,125,o),
(200,150,o),
(200,175,o),
(200,200,q),
(175,200,o),
(150,200,o),
(125,200,o),
(100,200,q),
(100,175,o),
(100,150,o),
(100,125,o),
(100,100,q)
);
},
{
closed = 1;
nodes = (
(125,0,o),
(150,0,o),
(175,0,o),
(200,0,q),
(200,25,o),
(200,50,o),
(200,75,o),
(200,100,q),
(175,100,o),
(150,100,o),
(125,100,o),
(100,100,q),
(100,75,o),
(100,50,o),
(100,25,o),
(100,0,q)
);
},
{
closed = 1;
nodes = (
(525,400,o),
(550,400,o),
(575,400,o),
(600,400,q),
(600,425,o),
(600,450,o),
(600,475,o),
(600,500,q),
(575,500,o),
(550,500,o),
(525,500,o),
(500,500,q),
(500,475,o),
(500,450,o),
(500,425,o),
(500,400,q)
);
},
{
closed = 1;
nodes = (
(125,200,o),
(150,200,o),
(175,200,o),
(200,200,q),
(200,225,o),
(200,250,o),
(200,275,o),
(200,300,q),
(175,300,o),
(150,300,o),
(125,300,o),
(100,300,q),
(100,275,o),
(100,250,o),
(100,225,o),
(100,200,q)
);
},
{
closed = 1;
nodes = (
(125,400,o),
(150,400,o),
(175,400,o),
(200,400,q),
(200,425,o),
(200,450,o),
(200,475,o),
(200,500,q),
(175,500,o),
(150,500,o),
(125,500,o),
(100,500,q),
(100,475,o),
(100,450,o),
(100,425,o),
(100,400,q)
);
},
{
closed = 1;
nodes = (
(325,400,o),
(350,400,o),
(375,400,o),
(400,400,q),
(400,425,o),
(400,450,o),
(400,475,o),
(400,500,q),
(375,500,o),
(350,500,o),
(325,500,o),
(300,500,q),
(300,475,o),
(300,450,o),
(300,425,o),
(300,400,q)
);
},
{
closed = 1;
nodes = (
(225,500,o),
(250,500,o),
(275,500,o),
(300,500,q),
(300,525,o),
(300,550,o),
(300,575,o),
(300,600,q),
(275,600,o),
(250,600,o),
(225,600,o),
(200,600,q),
(200,575,o),
(200,550,o),
(200,525,o),
(200,500,q)
);
},
{
closed = 1;
nodes = (
(225,400,o),
(250,400,o),
(275,400,o),
(300,400,q),
(300,425,o),
(300,450,o),
(300,475,o),
(300,500,q),
(275,500,o),
(250,500,o),
(225,500,o),
(200,500,q),
(200,475,o),
(200,450,o),
(200,425,o),
(200,400,q)
);
},
{
closed = 1;
nodes = (
(25,400,o),
(50,400,o),
(75,400,o),
(100,400,q),
(100,425,o),
(100,450,o),
(100,475,o),
(100,500,q),
(75,500,o),
(50,500,o),
(25,500,o),
(0,500,q),
(0,475,o),
(0,450,o),
(0,425,o),
(0,400,q)
);
},
{
closed = 1;
nodes = (
(25,300,o),
(50,300,o),
(75,300,o),
(100,300,q),
(100,325,o),
(100,350,o),
(100,375,o),
(100,400,q),
(75,400,o),
(50,400,o),
(25,400,o),
(0,400,q),
(0,375,o),
(0,350,o),
(0,325,o),
(0,300,q)
);
},
{
closed = 1;
nodes = (
(25,200,o),
(50,200,o),
(75,200,o),
(100,200,q),
(100,225,o),
(100,250,o),
(100,275,o),
(100,300,q),
(75,300,o),
(50,300,o),
(25,300,o),
(0,300,q),
(0,275,o),
(0,250,o),
(0,225,o),
(0,200,q)
);
},
{
closed = 1;
nodes = (
(25,100,o),
(50,100,o),
(75,100,o),
(100,100,q),
(100,125,o),
(100,150,o),
(100,175,o),
(100,200,q),
(75,200,o),
(50,200,o),
(25,200,o),
(0,200,q),
(0,175,o),
(0,150,o),
(0,125,o),
(0,100,q)
);
},
{
closed = 1;
nodes = (
(25,0,o),
(50,0,o),
(75,0,o),
(100,0,q),
(100,25,o),
(100,50,o),
(100,75,o),
(100,100,q),
(75,100,o),
(50,100,o),
(25,100,o),
(0,100,q),
(0,75,o),
(0,50,o),
(0,25,o),
(0,0,q)
);
},
{
closed = 1;
nodes = (
(25,500,o),
(50,500,o),
(75,500,o),
(100,500,q),
(100,525,o),
(100,550,o),
(100,575,o),
(100,600,q),
(75,600,o),
(50,600,o),
(25,600,o),
(0,600,q),
(0,575,o),
(0,550,o),
(0,525,o),
(0,500,q)
);
},
{
closed = 1;
nodes = (
(125,500,o),
(150,500,o),
(175,500,o),
(200,500,q),
(200,525,o),
(200,550,o),
(200,575,o),
(200,600,q),
(175,600,o),
(150,600,o),
(125,600,o),
(100,600,q),
(100,575,o),
(100,550,o),
(100,525,o),
(100,500,q)
);
},
{
closed = 1;
nodes = (
(325,200,o),
(350,200,o),
(375,200,o),
(400,200,q),
(400,225,o),
(400,250,o),
(400,275,o),
(400,300,q),
(375,300,o),
(350,300,o),
(325,300,o),
(300,300,q),
(300,275,o),
(300,250,o),
(300,225,o),
(300,200,q)
);
},
{
closed = 1;
nodes = (
(125,300,o),
(150,300,o),
(175,300,o),
(200,300,q),
(200,325,o),
(200,350,o),
(200,375,o),
(200,400,q),
(175,400,o),
(150,400,o),
(125,400,o),
(100,400,q),
(100,375,o),
(100,350,o),
(100,325,o),
(100,300,q)
);
},
{
closed = 1;
nodes = (
(425,500,o),
(450,500,o),
(475,500,o),
(500,500,q),
(500,525,o),
(500,550,o),
(500,575,o),
(500,600,q),
(475,600,o),
(450,600,o),
(425,600,o),
(400,600,q),
(400,575,o),
(400,550,o),
(400,525,o),
(400,500,q)
);
}
);
width = 600;
},
{
layerId = "FEF0E8F1-F572-4E0C-8E3A-3334D1706851";
shapes = (
{
closed = 1;
nodes = (
(310,278,o),
(351,263,o),
(391,279,o),
(400,300,q),
(426,302,o),
(443,346,o),
(422,394,o),
(400,400,q),
(400,426,o),
(347,445,o),
(296,423,o),
(300,400,q),
(278,400,o),
(257,350,o),
(275,300,o),
(300,300,q)
);
},
{
closed = 1;
nodes = (
(510,278,o),
(551,263,o),
(591,279,o),
(600,300,q),
(626,302,o),
(643,346,o),
(622,394,o),
(600,400,q),
(600,426,o),
(547,445,o),
(496,423,o),
(500,400,q),
(478,400,o),
(457,350,o),
(475,300,o),
(500,300,q)
);
},
{
closed = 1;
nodes = (
(510,178,o),
(551,163,o),
(591,179,o),
(600,200,q),
(626,202,o),
(643,246,o),
(622,294,o),
(600,300,q),
(600,326,o),
(547,345,o),
(496,323,o),
(500,300,q),
(478,300,o),
(457,250,o),
(475,200,o),
(500,200,q)
);
},
{
closed = 1;
nodes = (
(510,78,o),
(551,63,o),
(591,79,o),
(600,100,q),
(626,102,o),
(643,146,o),
(622,194,o),
(600,200,q),
(600,226,o),
(547,245,o),
(496,223,o),
(500,200,q),
(478,200,o),
(457,150,o),
(475,100,o),
(500,100,q)
);
},
{
closed = 1;
nodes = (
(510,-22,o),
(551,-37,o),
(591,-21,o),
(600,0,q),
(626,2,o),
(643,46,o),
(622,94,o),
(600,100,q),
(600,126,o),
(547,145,o),
(496,123,o),
(500,100,q),
(478,100,o),
(457,50,o),
(475,0,o),
(500,0,q)
);
},
{
closed = 1;
nodes = (
(410,378,o),
(451,363,o),
(491,379,o),
(500,400,q),
(526,402,o),
(543,446,o),
(522,494,o),
(500,500,q),
(500,526,o),
(447,545,o),
(396,523,o),
(400,500,q),
(378,500,o),
(357,450,o),
(375,400,o),
(400,400,q)
);
},
{
closed = 1;
nodes = (
(110,78,o),
(151,63,o),
(191,79,o),
(200,100,q),
(226,102,o),
(243,146,o),
(222,194,o),
(200,200,q),
(200,226,o),
(147,245,o),
(96,223,o),
(100,200,q),
(78,200,o),
(57,150,o),
(75,100,o),
(100,100,q)
);
},
{
closed = 1;
nodes = (
(110,-22,o),
(151,-37,o),
(191,-21,o),
(200,0,q),
(226,2,o),
(243,46,o),
(222,94,o),
(200,100,q),
(200,126,o),
(147,145,o),
(96,123,o),
(100,100,q),
(78,100,o),
(57,50,o),
(75,0,o),
(100,0,q)
);
},
{
closed = 1;
nodes = (
(510,378,o),
(551,363,o),
(591,379,o),
(600,400,q),
(626,402,o),
(643,446,o),
(622,494,o),
(600,500,q),
(600,526,o),
(547,545,o),
(496,523,o),
(500,500,q),
(478,500,o),
(457,450,o),
(475,400,o),
(500,400,q)
);
},
{
closed = 1;
nodes = (
(110,178,o),
(151,163,o),
(191,179,o),
(200,200,q),
(226,202,o),
(243,246,o),
(222,294,o),
(200,300,q),
(200,326,o),
(147,345,o),
(96,323,o),
(100,300,q),
(78,300,o),
(57,250,o),
(75,200,o),
(100,200,q)
);
},
{
closed = 1;
nodes = (
(110,378,o),
(151,363,o),
(191,379,o),
(200,400,q),
(226,402,o),
(243,446,o),
(222,494,o),
(200,500,q),
(200,526,o),
(147,545,o),
(96,523,o),
(100,500,q),
(78,500,o),
(57,450,o),
(75,400,o),
(100,400,q)
);
},
{
closed = 1;
nodes = (
(310,378,o),
(351,363,o),
(391,379,o),
(400,400,q),
(426,402,o),
(443,446,o),
(422,494,o),
(400,500,q),
(400,526,o),
(347,545,o),
(296,523,o),
(300,500,q),
(278,500,o),
(257,450,o),
(275,400,o),
(300,400,q)
);
},
{
closed = 1;
nodes = (
(210,478,o),
(251,463,o),
(291,479,o),
(300,500,q),
(326,502,o),
(343,546,o),
(322,594,o),
(300,600,q),
(300,626,o),
(247,645,o),
(196,623,o),
(200,600,q),
(178,600,o),
(157,550,o),
(175,500,o),
(200,500,q)
);
},
{
closed = 1;
nodes = (
(210,378,o),
(251,363,o),
(291,379,o),
(300,400,q),
(326,402,o),
(343,446,o),
(322,494,o),
(300,500,q),
(300,526,o),
(247,545,o),
(196,523,o),
(200,500,q),
(178,500,o),
(157,450,o),
(175,400,o),
(200,400,q)
);
},
{
closed = 1;
nodes = (
(10,378,o),
(51,363,o),
(91,379,o),
(100,400,q),
(126,402,o),
(143,446,o),
(122,494,o),
(100,500,q),
(100,526,o),
(47,545,o),
(-4,523,o),
(0,500,q),
(-22,500,o),
(-43,450,o),
(-25,400,o),
(0,400,q)
);
},
{
closed = 1;
nodes = (
(10,278,o),
(51,263,o),
(91,279,o),
(100,300,q),
(126,302,o),
(143,346,o),
(122,394,o),
(100,400,q),
(100,426,o),
(47,445,o),
(-4,423,o),
(0,400,q),
(-22,400,o),
(-43,350,o),
(-25,300,o),
(0,300,q)
);
},
{
closed = 1;
nodes = (
(10,178,o),
(51,163,o),
(91,179,o),
(100,200,q),
(126,202,o),
(143,246,o),
(122,294,o),
(100,300,q),
(100,326,o),
(47,345,o),
(-4,323,o),
(0,300,q),
(-22,300,o),
(-43,250,o),
(-25,200,o),
(0,200,q)
);
},
{
closed = 1;
nodes = (
(10,78,o),
(51,63,o),
(91,79,o),
(100,100,q),
(126,102,o),
(143,146,o),
(122,194,o),
(100,200,q),
(100,226,o),
(47,245,o),
(-4,223,o),
(0,200,q),
(-22,200,o),
(-43,150,o),
(-25,100,o),
(0,100,q)
);
},
{
closed = 1;
nodes = (
(10,-22,o),
(51,-37,o),
(91,-21,o),
(100,0,q),
(126,2,o),
(143,46,o),
(122,94,o),
(100,100,q),
(100,126,o),
(47,145,o),
(-4,123,o),
(0,100,q),
(-22,100,o),
(-43,50,o),
(-25,0,o),
(0,0,q)
);
},
{
closed = 1;
nodes = (
(10,478,o),
(51,463,o),
(91,479,o),
(100,500,q),
(126,502,o),
(143,546,o),
(122,594,o),
(100,600,q),
(100,626,o),
(47,645,o),
(-4,623,o),
(0,600,q),
(-22,600,o),
(-43,550,o),
(-25,500,o),
(0,500,q)
);
},
{
closed = 1;
nodes = (
(110,478,o),
(151,463,o),
(191,479,o),
(200,500,q),
(226,502,o),
(243,546,o),
(222,594,o),
(200,600,q),
(200,626,o),
(147,645,o),
(96,623,o),
(100,600,q),
(78,600,o),
(57,550,o),
(75,500,o),
(100,500,q)
);
},
{
closed = 1;
nodes = (
(310,178,o),
(351,163,o),
(391,179,o),
(400,200,q),
(426,202,o),
(443,246,o),
(422,294,o),
(400,300,q),
(400,326,o),
(347,345,o),
(296,323,o),
(300,300,q),
(278,300,o),
(257,250,o),
(275,200,o),
(300,200,q)
);
},
{
closed = 1;
nodes = (
(110,278,o),
(151,263,o),
(191,279,o),
(200,300,q),
(226,302,o),
(243,346,o),
(222,394,o),
(200,400,q),
(200,426,o),
(147,445,o),
(96,423,o),
(100,400,q),
(78,400,o),
(57,350,o),
(75,300,o),
(100,300,q)
);
},
{
closed = 1;
nodes = (
(410,478,o),
(451,463,o),
(491,479,o),
(500,500,q),
(526,502,o),
(543,546,o),
(522,594,o),
(500,600,q),
(500,626,o),
(447,645,o),
(396,623,o),
(400,600,q),
(378,600,o),
(357,550,o),
(375,500,o),
(400,500,q)
);
}
);
width = 600;
}
);
note = m;
unicode = 77;
},
{
glyphname = N;
lastChange = "2025-10-03 20:31:35 +0000";
layers = (
{
layerId = m01;
shapes = (
{
closed = 1;
nodes = (
(125,400,o),
(150,400,o),
(175,400,o),
(200,400,q),
(200,425,o),
(200,450,o),
(200,475,o),
(200,500,q),
(175,500,o),
(150,500,o),
(125,500,o),
(100,500,q),
(100,475,o),
(100,450,o),
(100,425,o),
(100,400,q)
);
},
{
closed = 1;
nodes = (
(25,500,o),
(50,500,o),
(75,500,o),
(100,500,q),
(100,525,o),
(100,550,o),
(100,575,o),
(100,600,q),
(75,600,o),
(50,600,o),
(25,600,o),
(0,600,q),
(0,575,o),
(0,550,o),
(0,525,o),
(0,500,q)
);
},
{
closed = 1;
nodes = (
(25,300,o),
(50,300,o),
(75,300,o),
(100,300,q),
(100,325,o),
(100,350,o),
(100,375,o),
(100,400,q),
(75,400,o),
(50,400,o),
(25,400,o),
(0,400,q),
(0,375,o),
(0,350,o),
(0,325,o),
(0,300,q)
);
},
{
closed = 1;
nodes = (
(25,400,o),
(50,400,o),
(75,400,o),
(100,400,q),
(100,425,o),
(100,450,o),
(100,475,o),
(100,500,q),
(75,500,o),
(50,500,o),
(25,500,o),
(0,500,q),
(0,475,o),
(0,450,o),
(0,425,o),
(0,400,q)
);
},
{
closed = 1;
nodes = (
(225,400,o),
(250,400,o),
(275,400,o),
(300,400,q),
(300,425,o),
(300,450,o),
(300,475,o),
(300,500,q),
(275,500,o),
(250,500,o),
(225,500,o),
(200,500,q),
(200,475,o),
(200,450,o),
(200,425,o),
(200,400,q)
);
},
{
closed = 1;
nodes = (
(325,400,o),
(350,400,o),
(375,400,o),
(400,400,q),
(400,425,o),
(400,450,o),
(400,475,o),
(400,500,q),
(375,500,o),
(350,500,o),
(325,500,o),
(300,500,q),
(300,475,o),
(300,450,o),
(300,425,o),
(300,400,q)
);
},
{
closed = 1;
nodes = (
(425,300,o),
(450,300,o),
(475,300,o),
(500,300,q),
(500,325,o),
(500,350,o),
(500,375,o),
(500,400,q),
(475,400,o),
(450,400,o),
(425,400,o),
(400,400,q),
(400,375,o),
(400,350,o),
(400,325,o),
(400,300,q)
);
},
{
closed = 1;
nodes = (
(425,200,o),
(450,200,o),
(475,200,o),
(500,200,q),
(500,225,o),
(500,250,o),
(500,275,o),
(500,300,q),
(475,300,o),
(450,300,o),
(425,300,o),
(400,300,q),
(400,275,o),
(400,250,o),
(400,225,o),
(400,200,q)
);
},
{
closed = 1;
nodes = (
(425,100,o),
(450,100,o),
(475,100,o),
(500,100,q),
(500,125,o),
(500,150,o),
(500,175,o),
(500,200,q),
(475,200,o),
(450,200,o),
(425,200,o),
(400,200,q),
(400,175,o),
(400,150,o),
(400,125,o),
(400,100,q)
);
},
{
closed = 1;
nodes = (
(425,0,o),
(450,0,o),
(475,0,o),
(500,0,q),
(500,25,o),
(500,50,o),
(500,75,o),
(500,100,q),
(475,100,o),
(450,100,o),
(425,100,o),
(400,100,q),
(400,75,o),
(400,50,o),
(400,25,o),
(400,0,q)
);
},
{
closed = 1;
nodes = (
(25,200,o),
(50,200,o),
(75,200,o),
(100,200,q),
(100,225,o),
(100,250,o),
(100,275,o),
(100,300,q),
(75,300,o),
(50,300,o),
(25,300,o),
(0,300,q),
(0,275,o),
(0,250,o),
(0,225,o),
(0,200,q)
);
},
{
closed = 1;
nodes = (
(25,100,o),
(50,100,o),
(75,100,o),
(100,100,q),
(100,125,o),
(100,150,o),
(100,175,o),
(100,200,q),
(75,200,o),
(50,200,o),
(25,200,o),
(0,200,q),
(0,175,o),
(0,150,o),
(0,125,o),
(0,100,q)
);
},
{
closed = 1;
nodes = (
(25,0,o),
(50,0,o),
(75,0,o),
(100,0,q),
(100,25,o),
(100,50,o),
(100,75,o),
(100,100,q),
(75,100,o),
(50,100,o),
(25,100,o),
(0,100,q),
(0,75,o),
(0,50,o),
(0,25,o),
(0,0,q)
);
},
{
closed = 1;
nodes = (
(125,300,o),
(150,300,o),
(175,300,o),
(200,300,q),
(200,325,o),
(200,350,o),
(200,375,o),
(200,400,q),
(175,400,o),
(150,400,o),
(125,400,o),
(100,400,q),
(100,375,o),
(100,350,o),
(100,325,o),
(100,300,q)
);
},
{
closed = 1;
nodes = (
(325,300,o),
(350,300,o),
(375,300,o),
(400,300,q),
(400,325,o),
(400,350,o),
(400,375,o),
(400,400,q),
(375,400,o),
(350,400,o),
(325,400,o),
(300,400,q),
(300,375,o),
(300,350,o),
(300,325,o),
(300,300,q)
);
}
);
width = 600;
},
{
layerId = "FEF0E8F1-F572-4E0C-8E3A-3334D1706851";
shapes = (
{
closed = 1;
nodes = (
(110,378,o),
(151,363,o),
(191,379,o),
(200,400,q),
(226,402,o),
(243,446,o),
(222,494,o),
(200,500,q),
(200,526,o),
(147,545,o),
(96,523,o),
(100,500,q),
(78,500,o),
(57,450,o),
(75,400,o),
(100,400,q)
);
},
{
closed = 1;
nodes = (
(10,478,o),
(51,463,o),
(91,479,o),
(100,500,q),
(126,502,o),
(143,546,o),
(122,594,o),
(100,600,q),
(100,626,o),
(47,645,o),
(-4,623,o),
(0,600,q),
(-22,600,o),
(-43,550,o),
(-25,500,o),
(0,500,q)
);
},
{
closed = 1;
nodes = (
(10,278,o),
(51,263,o),
(91,279,o),
(100,300,q),
(126,302,o),
(143,346,o),
(122,394,o),
(100,400,q),
(100,426,o),
(47,445,o),
(-4,423,o),
(0,400,q),
(-22,400,o),
(-43,350,o),
(-25,300,o),
(0,300,q)
);
},
{
closed = 1;
nodes = (
(10,378,o),
(51,363,o),
(91,379,o),
(100,400,q),
(126,402,o),
(143,446,o),
(122,494,o),
(100,500,q),
(100,526,o),
(47,545,o),
(-4,523,o),
(0,500,q),
(-22,500,o),
(-43,450,o),
(-25,400,o),
(0,400,q)
);
},
{
closed = 1;
nodes = (
(210,378,o),
(251,363,o),
(291,379,o),
(300,400,q),
(326,402,o),
(343,446,o),
(322,494,o),
(300,500,q),
(300,526,o),
(247,545,o),
(196,523,o),
(200,500,q),
(178,500,o),
(157,450,o),
(175,400,o),
(200,400,q)
);
},
{
closed = 1;
nodes = (
(310,378,o),
(351,363,o),
(391,379,o),
(400,400,q),
(426,402,o),
(443,446,o),
(422,494,o),
(400,500,q),
(400,526,o),
(347,545,o),
(296,523,o),
(300,500,q),
(278,500,o),
(257,450,o),
(275,400,o),
(300,400,q)
);
},
{
closed = 1;
nodes = (
(410,278,o),
(451,263,o),
(491,279,o),
(500,300,q),
(526,302,o),
(543,346,o),
(522,394,o),
(500,400,q),
(500,426,o),
(447,445,o),
(396,423,o),
(400,400,q),
(378,400,o),
(357,350,o),
(375,300,o),
(400,300,q)
);
},
{
closed = 1;
nodes = (
(410,178,o),
(451,163,o),
(491,179,o),
(500,200,q),
(526,202,o),
(543,246,o),
(522,294,o),
(500,300,q),
(500,326,o),
(447,345,o),
(396,323,o),
(400,300,q),
(378,300,o),
(357,250,o),
(375,200,o),
(400,200,q)
);
},
{
closed = 1;
nodes = (
(410,78,o),
(451,63,o),
(491,79,o),
(500,100,q),
(526,102,o),
(543,146,o),
(522,194,o),
(500,200,q),
(500,226,o),
(447,245,o),
(396,223,o),
(400,200,q),
(378,200,o),
(357,150,o),
(375,100,o),
(400,100,q)
);
},
{
closed = 1;
nodes = (
(410,-22,o),
(451,-37,o),
(491,-21,o),
(500,0,q),
(526,2,o),
(543,46,o),
(522,94,o),
(500,100,q),
(500,126,o),
(447,145,o),
(396,123,o),
(400,100,q),
(378,100,o),
(357,50,o),
(375,0,o),
(400,0,q)
);
},
{
closed = 1;
nodes = (
(10,178,o),
(51,163,o),
(91,179,o),
(100,200,q),
(126,202,o),
(143,246,o),
(122,294,o),
(100,300,q),
(100,326,o),
(47,345,o),
(-4,323,o),
(0,300,q),
(-22,300,o),
(-43,250,o),
(-25,200,o),
(0,200,q)
);
},
{
closed = 1;
nodes = (
(10,78,o),
(51,63,o),
(91,79,o),
(100,100,q),
(126,102,o),
(143,146,o),
(122,194,o),
(100,200,q),
(100,226,o),
(47,245,o),
(-4,223,o),
(0,200,q),
(-22,200,o),
(-43,150,o),
(-25,100,o),
(0,100,q)
);
},
{
closed = 1;
nodes = (
(10,-22,o),
(51,-37,o),
(91,-21,o),
(100,0,q),
(126,2,o),
(143,46,o),
(122,94,o),
(100,100,q),
(100,126,o),
(47,145,o),
(-4,123,o),
(0,100,q),
(-22,100,o),
(-43,50,o),
(-25,0,o),
(0,0,q)
);
},
{
closed = 1;
nodes = (
(110,278,o),
(151,263,o),
(191,279,o),
(200,300,q),
(226,302,o),
(243,346,o),
(222,394,o),
(200,400,q),
(200,426,o),
(147,445,o),
(96,423,o),
(100,400,q),
(78,400,o),
(57,350,o),
(75,300,o),
(100,300,q)
);
},
{
closed = 1;
nodes = (
(310,278,o),
(351,263,o),
(391,279,o),
(400,300,q),
(426,302,o),
(443,346,o),
(422,394,o),
(400,400,q),
(400,426,o),
(347,445,o),
(296,423,o),
(300,400,q),
(278,400,o),
(257,350,o),
(275,300,o),
(300,300,q)
);
}
);
width = 600;
}
);
note = n;
unicode = 78;
},
{
glyphname = O;
lastChange = "2025-10-03 20:31:35 +0000";
layers = (
{
layerId = m01;
shapes = (
{
closed = 1;
nodes = (
(225,500,o),
(250,500,o),
(275,500,o),
(300,500,q),
(300,525,o),
(300,550,o),
(300,575,o),
(300,600,q),
(275,600,o),
(250,600,o),
(225,600,o),
(200,600,q),
(200,575,o),
(200,550,o),
(200,525,o),
(200,500,q)
);
},
{
closed = 1;
nodes = (
(125,500,o),
(150,500,o),
(175,500,o),
(200,500,q),
(200,525,o),
(200,550,o),
(200,575,o),
(200,600,q),
(175,600,o),
(150,600,o),
(125,600,o),
(100,600,q),
(100,575,o),
(100,550,o),
(100,525,o),
(100,500,q)
);
},
{
closed = 1;
nodes = (
(25,400,o),
(50,400,o),
(75,400,o),
(100,400,q),
(100,425,o),
(100,450,o),
(100,475,o),
(100,500,q),
(75,500,o),
(50,500,o),
(25,500,o),
(0,500,q),
(0,475,o),
(0,450,o),
(0,425,o),
(0,400,q)
);
},
{
closed = 1;
nodes = (
(325,500,o),
(350,500,o),
(375,500,o),
(400,500,q),
(400,525,o),
(400,550,o),
(400,575,o),
(400,600,q),
(375,600,o),
(350,600,o),
(325,600,o),
(300,600,q),
(300,575,o),
(300,550,o),
(300,525,o),
(300,500,q)
);
},
{
closed = 1;
nodes = (
(425,400,o),
(450,400,o),
(475,400,o),
(500,400,q),
(500,425,o),
(500,450,o),
(500,475,o),
(500,500,q),
(475,500,o),
(450,500,o),
(425,500,o),
(400,500,q),
(400,475,o),
(400,450,o),
(400,425,o),
(400,400,q)
);
},
{
closed = 1;
nodes = (
(425,300,o),
(450,300,o),
(475,300,o),
(500,300,q),
(500,325,o),
(500,350,o),
(500,375,o),
(500,400,q),
(475,400,o),
(450,400,o),
(425,400,o),
(400,400,q),
(400,375,o),
(400,350,o),
(400,325,o),
(400,300,q)
);
},
{
closed = 1;
nodes = (
(425,200,o),
(450,200,o),
(475,200,o),
(500,200,q),
(500,225,o),
(500,250,o),
(500,275,o),
(500,300,q),
(475,300,o),
(450,300,o),
(425,300,o),
(400,300,q),
(400,275,o),
(400,250,o),
(400,225,o),
(400,200,q)
);
},
{
closed = 1;
nodes = (
(425,100,o),
(450,100,o),
(475,100,o),
(500,100,q),
(500,125,o),
(500,150,o),
(500,175,o),
(500,200,q),
(475,200,o),
(450,200,o),
(425,200,o),
(400,200,q),
(400,175,o),
(400,150,o),
(400,125,o),
(400,100,q)
);
},
{
closed = 1;
nodes = (
(325,0,o),
(350,0,o),
(375,0,o),
(400,0,q),
(400,25,o),
(400,50,o),
(400,75,o),
(400,100,q),
(375,100,o),
(350,100,o),
(325,100,o),
(300,100,q),
(300,75,o),
(300,50,o),
(300,25,o),
(300,0,q)
);
},
{
closed = 1;
nodes = (
(225,0,o),
(250,0,o),
(275,0,o),
(300,0,q),
(300,25,o),
(300,50,o),
(300,75,o),
(300,100,q),
(275,100,o),
(250,100,o),
(225,100,o),
(200,100,q),
(200,75,o),
(200,50,o),
(200,25,o),
(200,0,q)
);
},
{
closed = 1;
nodes = (
(125,0,o),
(150,0,o),
(175,0,o),
(200,0,q),
(200,25,o),
(200,50,o),
(200,75,o),
(200,100,q),
(175,100,o),
(150,100,o),
(125,100,o),
(100,100,q),
(100,75,o),
(100,50,o),
(100,25,o),
(100,0,q)
);
},
{
closed = 1;
nodes = (
(25,100,o),
(50,100,o),
(75,100,o),
(100,100,q),
(100,125,o),
(100,150,o),
(100,175,o),
(100,200,q),
(75,200,o),
(50,200,o),
(25,200,o),
(0,200,q),
(0,175,o),
(0,150,o),
(0,125,o),
(0,100,q)
);
},
{
closed = 1;
nodes = (
(25,200,o),
(50,200,o),
(75,200,o),
(100,200,q),
(100,225,o),
(100,250,o),
(100,275,o),
(100,300,q),
(75,300,o),
(50,300,o),
(25,300,o),
(0,300,q),
(0,275,o),
(0,250,o),
(0,225,o),
(0,200,q)
);
},
{
closed = 1;
nodes = (
(25,300,o),
(50,300,o),
(75,300,o),
(100,300,q),
(100,325,o),
(100,350,o),
(100,375,o),
(100,400,q),
(75,400,o),
(50,400,o),
(25,400,o),
(0,400,q),
(0,375,o),
(0,350,o),
(0,325,o),
(0,300,q)
);
},
{
closed = 1;
nodes = (
(125,100,o),
(150,100,o),
(175,100,o),
(200,100,q),
(200,125,o),
(200,150,o),
(200,175,o),
(200,200,q),
(175,200,o),
(150,200,o),
(125,200,o),
(100,200,q),
(100,175,o),
(100,150,o),
(100,125,o),
(100,100,q)
);
},
{
closed = 1;
nodes = (
(325,100,o),
(350,100,o),
(375,100,o),
(400,100,q),
(400,125,o),
(400,150,o),
(400,175,o),
(400,200,q),
(375,200,o),
(350,200,o),
(325,200,o),
(300,200,q),
(300,175,o),
(300,150,o),
(300,125,o),
(300,100,q)
);
},
{
closed = 1;
nodes = (
(325,400,o),
(350,400,o),
(375,400,o),
(400,400,q),
(400,425,o),
(400,450,o),
(400,475,o),
(400,500,q),
(375,500,o),
(350,500,o),
(325,500,o),
(300,500,q),
(300,475,o),
(300,450,o),
(300,425,o),
(300,400,q)
);
},
{
closed = 1;
nodes = (
(125,400,o),
(150,400,o),
(175,400,o),
(200,400,q),
(200,425,o),
(200,450,o),
(200,475,o),
(200,500,q),
(175,500,o),
(150,500,o),
(125,500,o),
(100,500,q),
(100,475,o),
(100,450,o),
(100,425,o),
(100,400,q)
);
}
);
width = 600;
},
{
layerId = "FEF0E8F1-F572-4E0C-8E3A-3334D1706851";
shapes = (
{
closed = 1;
nodes = (
(210,478,o),
(251,463,o),
(291,479,o),
(300,500,q),
(326,502,o),
(343,546,o),
(322,594,o),
(300,600,q),
(300,626,o),
(247,645,o),
(196,623,o),
(200,600,q),
(178,600,o),
(157,550,o),
(175,500,o),
(200,500,q)
);
},
{
closed = 1;
nodes = (
(110,478,o),
(151,463,o),
(191,479,o),
(200,500,q),
(226,502,o),
(243,546,o),
(222,594,o),
(200,600,q),
(200,626,o),
(147,645,o),
(96,623,o),
(100,600,q),
(78,600,o),
(57,550,o),
(75,500,o),
(100,500,q)
);
},
{
closed = 1;
nodes = (
(10,378,o),
(51,363,o),
(91,379,o),
(100,400,q),
(126,402,o),
(143,446,o),
(122,494,o),
(100,500,q),
(100,526,o),
(47,545,o),
(-4,523,o),
(0,500,q),
(-22,500,o),
(-43,450,o),
(-25,400,o),
(0,400,q)
);
},
{
closed = 1;
nodes = (
(310,478,o),
(351,463,o),
(391,479,o),
(400,500,q),
(426,502,o),
(443,546,o),
(422,594,o),
(400,600,q),
(400,626,o),
(347,645,o),
(296,623,o),
(300,600,q),
(278,600,o),
(257,550,o),
(275,500,o),
(300,500,q)
);
},
{
closed = 1;
nodes = (
(410,378,o),
(451,363,o),
(491,379,o),
(500,400,q),
(526,402,o),
(543,446,o),
(522,494,o),
(500,500,q),
(500,526,o),
(447,545,o),
(396,523,o),
(400,500,q),
(378,500,o),
(357,450,o),
(375,400,o),
(400,400,q)
);
},
{
closed = 1;
nodes = (
(410,278,o),
(451,263,o),
(491,279,o),
(500,300,q),
(526,302,o),
(543,346,o),
(522,394,o),
(500,400,q),
(500,426,o),
(447,445,o),
(396,423,o),
(400,400,q),
(378,400,o),
(357,350,o),
(375,300,o),
(400,300,q)
);
},
{
closed = 1;
nodes = (
(410,178,o),
(451,163,o),
(491,179,o),
(500,200,q),
(526,202,o),
(543,246,o),
(522,294,o),
(500,300,q),
(500,326,o),
(447,345,o),
(396,323,o),
(400,300,q),
(378,300,o),
(357,250,o),
(375,200,o),
(400,200,q)
);
},
{
closed = 1;
nodes = (
(410,78,o),
(451,63,o),
(491,79,o),
(500,100,q),
(526,102,o),
(543,146,o),
(522,194,o),
(500,200,q),
(500,226,o),
(447,245,o),
(396,223,o),
(400,200,q),
(378,200,o),
(357,150,o),
(375,100,o),
(400,100,q)
);
},
{
closed = 1;
nodes = (
(310,-22,o),
(351,-37,o),
(391,-21,o),
(400,0,q),
(426,2,o),
(443,46,o),
(422,94,o),
(400,100,q),
(400,126,o),
(347,145,o),
(296,123,o),
(300,100,q),
(278,100,o),
(257,50,o),
(275,0,o),
(300,0,q)
);
},
{
closed = 1;
nodes = (
(210,-22,o),
(251,-37,o),
(291,-21,o),
(300,0,q),
(326,2,o),
(343,46,o),
(322,94,o),
(300,100,q),
(300,126,o),
(247,145,o),
(196,123,o),
(200,100,q),
(178,100,o),
(157,50,o),
(175,0,o),
(200,0,q)
);
},
{
closed = 1;
nodes = (
(110,-22,o),
(151,-37,o),
(191,-21,o),
(200,0,q),
(226,2,o),
(243,46,o),
(222,94,o),
(200,100,q),
(200,126,o),
(147,145,o),
(96,123,o),
(100,100,q),
(78,100,o),
(57,50,o),
(75,0,o),
(100,0,q)
);
},
{
closed = 1;
nodes = (
(10,78,o),
(51,63,o),
(91,79,o),
(100,100,q),
(126,102,o),
(143,146,o),
(122,194,o),
(100,200,q),
(100,226,o),
(47,245,o),
(-4,223,o),
(0,200,q),
(-22,200,o),
(-43,150,o),
(-25,100,o),
(0,100,q)
);
},
{
closed = 1;
nodes = (
(10,178,o),
(51,163,o),
(91,179,o),
(100,200,q),
(126,202,o),
(143,246,o),
(122,294,o),
(100,300,q),
(100,326,o),
(47,345,o),
(-4,323,o),
(0,300,q),
(-22,300,o),
(-43,250,o),
(-25,200,o),
(0,200,q)
);
},
{
closed = 1;
nodes = (
(10,278,o),
(51,263,o),
(91,279,o),
(100,300,q),
(126,302,o),
(143,346,o),
(122,394,o),
(100,400,q),
(100,426,o),
(47,445,o),
(-4,423,o),
(0,400,q),
(-22,400,o),
(-43,350,o),
(-25,300,o),
(0,300,q)
);
},
{
closed = 1;
nodes = (
(110,78,o),
(151,63,o),
(191,79,o),
(200,100,q),
(226,102,o),
(243,146,o),
(222,194,o),
(200,200,q),
(200,226,o),
(147,245,o),
(96,223,o),
(100,200,q),
(78,200,o),
(57,150,o),
(75,100,o),
(100,100,q)
);
},
{
closed = 1;
nodes = (
(310,78,o),
(351,63,o),
(391,79,o),
(400,100,q),
(426,102,o),
(443,146,o),
(422,194,o),
(400,200,q),
(400,226,o),
(347,245,o),
(296,223,o),
(300,200,q),
(278,200,o),
(257,150,o),
(275,100,o),
(300,100,q)
);
},
{
closed = 1;
nodes = (
(310,378,o),
(351,363,o),
(391,379,o),
(400,400,q),
(426,402,o),
(443,446,o),
(422,494,o),
(400,500,q),
(400,526,o),
(347,545,o),
(296,523,o),
(300,500,q),
(278,500,o),
(257,450,o),
(275,400,o),
(300,400,q)
);
},
{
closed = 1;
nodes = (
(110,378,o),
(151,363,o),
(191,379,o),
(200,400,q),
(226,402,o),
(243,446,o),
(222,494,o),
(200,500,q),
(200,526,o),
(147,545,o),
(96,523,o),
(100,500,q),
(78,500,o),
(57,450,o),
(75,400,o),
(100,400,q)
);
}
);
width = 600;
}
);
note = o;
unicode = 79;
},
{
glyphname = P;
lastChange = "2025-10-03 20:31:35 +0000";
layers = (
{
layerId = m01;
shapes = (
{
closed = 1;
nodes = (
(125,500,o),
(150,500,o),
(175,500,o),
(200,500,q),
(200,525,o),
(200,550,o),
(200,575,o),
(200,600,q),
(175,600,o),
(150,600,o),
(125,600,o),
(100,600,q),
(100,575,o),
(100,550,o),
(100,525,o),
(100,500,q)
);
},
{
closed = 1;
nodes = (
(225,400,o),
(250,400,o),
(275,400,o),
(300,400,q),
(300,425,o),
(300,450,o),
(300,475,o),
(300,500,q),
(275,500,o),
(250,500,o),
(225,500,o),
(200,500,q),
(200,475,o),
(200,450,o),
(200,425,o),
(200,400,q)
);
},
{
closed = 1;
nodes = (
(325,500,o),
(350,500,o),
(375,500,o),
(400,500,q),
(400,525,o),
(400,550,o),
(400,575,o),
(400,600,q),
(375,600,o),
(350,600,o),
(325,600,o),
(300,600,q),
(300,575,o),
(300,550,o),
(300,525,o),
(300,500,q)
);
},
{
closed = 1;
nodes = (
(425,500,o),
(450,500,o),
(475,500,o),
(500,500,q),
(500,525,o),
(500,550,o),
(500,575,o),
(500,600,q),
(475,600,o),
(450,600,o),
(425,600,o),
(400,600,q),
(400,575,o),
(400,550,o),
(400,525,o),
(400,500,q)
);
},
{
closed = 1;
nodes = (
(525,400,o),
(550,400,o),
(575,400,o),
(600,400,q),
(600,425,o),
(600,450,o),
(600,475,o),
(600,500,q),
(575,500,o),
(550,500,o),
(525,500,o),
(500,500,q),
(500,475,o),
(500,450,o),
(500,425,o),
(500,400,q)
);
},
{
closed = 1;
nodes = (
(525,300,o),
(550,300,o),
(575,300,o),
(600,300,q),
(600,325,o),
(600,350,o),
(600,375,o),
(600,400,q),
(575,400,o),
(550,400,o),
(525,400,o),
(500,400,q),
(500,375,o),
(500,350,o),
(500,325,o),
(500,300,q)
);
},
{
closed = 1;
nodes = (
(425,200,o),
(450,200,o),
(475,200,o),
(500,200,q),
(500,225,o),
(500,250,o),
(500,275,o),
(500,300,q),
(475,300,o),
(450,300,o),
(425,300,o),
(400,300,q),
(400,275,o),
(400,250,o),
(400,225,o),
(400,200,q)
);
},
{
closed = 1;
nodes = (
(325,200,o),
(350,200,o),
(375,200,o),
(400,200,q),
(400,225,o),
(400,250,o),
(400,275,o),
(400,300,q),
(375,300,o),
(350,300,o),
(325,300,o),
(300,300,q),
(300,275,o),
(300,250,o),
(300,225,o),
(300,200,q)
);
},
{
closed = 1;
nodes = (
(225,100,o),
(250,100,o),
(275,100,o),
(300,100,q),
(300,125,o),
(300,150,o),
(300,175,o),
(300,200,q),
(275,200,o),
(250,200,o),
(225,200,o),
(200,200,q),
(200,175,o),
(200,150,o),
(200,125,o),
(200,100,q)
);
},
{
closed = 1;
nodes = (
(225,0,o),
(250,0,o),
(275,0,o),
(300,0,q),
(300,25,o),
(300,50,o),
(300,75,o),
(300,100,q),
(275,100,o),
(250,100,o),
(225,100,o),
(200,100,q),
(200,75,o),
(200,50,o),
(200,25,o),
(200,0,q)
);
},
{
closed = 1;
nodes = (
(225,-100,o),
(250,-100,o),
(275,-100,o),
(300,-100,q),
(300,-75,o),
(300,-50,o),
(300,-25,o),
(300,0,q),
(275,0,o),
(250,0,o),
(225,0,o),
(200,0,q),
(200,-25,o),
(200,-50,o),
(200,-75,o),
(200,-100,q)
);
},
{
closed = 1;
nodes = (
(225,-200,o),
(250,-200,o),
(275,-200,o),
(300,-200,q),
(300,-175,o),
(300,-150,o),
(300,-125,o),
(300,-100,q),
(275,-100,o),
(250,-100,o),
(225,-100,o),
(200,-100,q),
(200,-125,o),
(200,-150,o),
(200,-175,o),
(200,-200,q)
);
},
{
closed = 1;
nodes = (
(225,300,o),
(250,300,o),
(275,300,o),
(300,300,q),
(300,325,o),
(300,350,o),
(300,375,o),
(300,400,q),
(275,400,o),
(250,400,o),
(225,400,o),
(200,400,q),
(200,375,o),
(200,350,o),
(200,325,o),
(200,300,q)
);
},
{
closed = 1;
nodes = (
(225,200,o),
(250,200,o),
(275,200,o),
(300,200,q),
(300,225,o),
(300,250,o),
(300,275,o),
(300,300,q),
(275,300,o),
(250,300,o),
(225,300,o),
(200,300,q),
(200,275,o),
(200,250,o),
(200,225,o),
(200,200,q)
);
},
{
closed = 1;
nodes = (
(225,500,o),
(250,500,o),
(275,500,o),
(300,500,q),
(300,525,o),
(300,550,o),
(300,575,o),
(300,600,q),
(275,600,o),
(250,600,o),
(225,600,o),
(200,600,q),
(200,575,o),
(200,550,o),
(200,525,o),
(200,500,q)
);
},
{
closed = 1;
nodes = (
(25,400,o),
(50,400,o),
(75,400,o),
(100,400,q),
(100,425,o),
(100,450,o),
(100,475,o),
(100,500,q),
(75,500,o),
(50,500,o),
(25,500,o),
(0,500,q),
(0,475,o),
(0,450,o),
(0,425,o),
(0,400,q)
);
}
);
width = 600;
},
{
layerId = "FEF0E8F1-F572-4E0C-8E3A-3334D1706851";
shapes = (
{
closed = 1;
nodes = (
(110,478,o),
(151,463,o),
(191,479,o),
(200,500,q),
(226,502,o),
(243,546,o),
(222,594,o),
(200,600,q),
(200,626,o),
(147,645,o),
(96,623,o),
(100,600,q),
(78,600,o),
(57,550,o),
(75,500,o),
(100,500,q)
);
},
{
closed = 1;
nodes = (
(210,378,o),
(251,363,o),
(291,379,o),
(300,400,q),
(326,402,o),
(343,446,o),
(322,494,o),
(300,500,q),
(300,526,o),
(247,545,o),
(196,523,o),
(200,500,q),
(178,500,o),
(157,450,o),
(175,400,o),
(200,400,q)
);
},
{
closed = 1;
nodes = (
(310,478,o),
(351,463,o),
(391,479,o),
(400,500,q),
(426,502,o),
(443,546,o),
(422,594,o),
(400,600,q),
(400,626,o),
(347,645,o),
(296,623,o),
(300,600,q),
(278,600,o),
(257,550,o),
(275,500,o),
(300,500,q)
);
},
{
closed = 1;
nodes = (
(410,478,o),
(451,463,o),
(491,479,o),
(500,500,q),
(526,502,o),
(543,546,o),
(522,594,o),
(500,600,q),
(500,626,o),
(447,645,o),
(396,623,o),
(400,600,q),
(378,600,o),
(357,550,o),
(375,500,o),
(400,500,q)
);
},
{
closed = 1;
nodes = (
(510,378,o),
(551,363,o),
(591,379,o),
(600,400,q),
(626,402,o),
(643,446,o),
(622,494,o),
(600,500,q),
(600,526,o),
(547,545,o),
(496,523,o),
(500,500,q),
(478,500,o),
(457,450,o),
(475,400,o),
(500,400,q)
);
},
{
closed = 1;
nodes = (
(510,278,o),
(551,263,o),
(591,279,o),
(600,300,q),
(626,302,o),
(643,346,o),
(622,394,o),
(600,400,q),
(600,426,o),
(547,445,o),
(496,423,o),
(500,400,q),
(478,400,o),
(457,350,o),
(475,300,o),
(500,300,q)
);
},
{
closed = 1;
nodes = (
(410,178,o),
(451,163,o),
(491,179,o),
(500,200,q),
(526,202,o),
(543,246,o),
(522,294,o),
(500,300,q),
(500,326,o),
(447,345,o),
(396,323,o),
(400,300,q),
(378,300,o),
(357,250,o),
(375,200,o),
(400,200,q)
);
},
{
closed = 1;
nodes = (
(310,178,o),
(351,163,o),
(391,179,o),
(400,200,q),
(426,202,o),
(443,246,o),
(422,294,o),
(400,300,q),
(400,326,o),
(347,345,o),
(296,323,o),
(300,300,q),
(278,300,o),
(257,250,o),
(275,200,o),
(300,200,q)
);
},
{
closed = 1;
nodes = (
(210,78,o),
(251,63,o),
(291,79,o),
(300,100,q),
(326,102,o),
(343,146,o),
(322,194,o),
(300,200,q),
(300,226,o),
(247,245,o),
(196,223,o),
(200,200,q),
(178,200,o),
(157,150,o),
(175,100,o),
(200,100,q)
);
},
{
closed = 1;
nodes = (
(210,-22,o),
(251,-37,o),
(291,-21,o),
(300,0,q),
(326,2,o),
(343,46,o),
(322,94,o),
(300,100,q),
(300,126,o),
(247,145,o),
(196,123,o),
(200,100,q),
(178,100,o),
(157,50,o),
(175,0,o),
(200,0,q)
);
},
{
closed = 1;
nodes = (
(210,-122,o),
(251,-137,o),
(291,-121,o),
(300,-100,q),
(326,-98,o),
(343,-54,o),
(322,-6,o),
(300,0,q),
(300,26,o),
(247,45,o),
(196,23,o),
(200,0,q),
(178,0,o),
(157,-50,o),
(175,-100,o),
(200,-100,q)
);
},
{
closed = 1;
nodes = (
(210,-222,o),
(251,-237,o),
(291,-221,o),
(300,-200,q),
(326,-198,o),
(343,-154,o),
(322,-106,o),
(300,-100,q),
(300,-74,o),
(247,-55,o),
(196,-77,o),
(200,-100,q),
(178,-100,o),
(157,-150,o),
(175,-200,o),
(200,-200,q)
);
},
{
closed = 1;
nodes = (
(210,278,o),
(251,263,o),
(291,279,o),
(300,300,q),
(326,302,o),
(343,346,o),
(322,394,o),
(300,400,q),
(300,426,o),
(247,445,o),
(196,423,o),
(200,400,q),
(178,400,o),
(157,350,o),
(175,300,o),
(200,300,q)
);
},
{
closed = 1;
nodes = (
(210,178,o),
(251,163,o),
(291,179,o),
(300,200,q),
(326,202,o),
(343,246,o),
(322,294,o),
(300,300,q),
(300,326,o),
(247,345,o),
(196,323,o),
(200,300,q),
(178,300,o),
(157,250,o),
(175,200,o),
(200,200,q)
);
},
{
closed = 1;
nodes = (
(210,478,o),
(251,463,o),
(291,479,o),
(300,500,q),
(326,502,o),
(343,546,o),
(322,594,o),
(300,600,q),
(300,626,o),
(247,645,o),
(196,623,o),
(200,600,q),
(178,600,o),
(157,550,o),
(175,500,o),
(200,500,q)
);
},
{
closed = 1;
nodes = (
(10,378,o),
(51,363,o),
(91,379,o),
(100,400,q),
(126,402,o),
(143,446,o),
(122,494,o),
(100,500,q),
(100,526,o),
(47,545,o),
(-4,523,o),
(0,500,q),
(-22,500,o),
(-43,450,o),
(-25,400,o),
(0,400,q)
);
}
);
width = 600;
}
);
note = p;
unicode = 80;
},
{
glyphname = Q;
lastChange = "2025-10-03 20:31:35 +0000";
layers = (
{
layerId = m01;
shapes = (
{
closed = 1;
nodes = (
(525,500,o),
(550,500,o),
(575,500,o),
(600,500,q),
(600,525,o),
(600,550,o),
(600,575,o),
(600,600,q),
(575,600,o),
(550,600,o),
(525,600,o),
(500,600,q),
(500,575,o),
(500,550,o),
(500,525,o),
(500,500,q)
);
},
{
closed = 1;
nodes = (
(425,400,o),
(450,400,o),
(475,400,o),
(500,400,q),
(500,425,o),
(500,450,o),
(500,475,o),
(500,500,q),
(475,500,o),
(450,500,o),
(425,500,o),
(400,500,q),
(400,475,o),
(400,450,o),
(400,425,o),
(400,400,q)
);
},
{
closed = 1;
nodes = (
(325,500,o),
(350,500,o),
(375,500,o),
(400,500,q),
(400,525,o),
(400,550,o),
(400,575,o),
(400,600,q),
(375,600,o),
(350,600,o),
(325,600,o),
(300,600,q),
(300,575,o),
(300,550,o),
(300,525,o),
(300,500,q)
);
},
{
closed = 1;
nodes = (
(225,500,o),
(250,500,o),
(275,500,o),
(300,500,q),
(300,525,o),
(300,550,o),
(300,575,o),
(300,600,q),
(275,600,o),
(250,600,o),
(225,600,o),
(200,600,q),
(200,575,o),
(200,550,o),
(200,525,o),
(200,500,q)
);
},
{
closed = 1;
nodes = (
(125,400,o),
(150,400,o),
(175,400,o),
(200,400,q),
(200,425,o),
(200,450,o),
(200,475,o),
(200,500,q),
(175,500,o),
(150,500,o),
(125,500,o),
(100,500,q),
(100,475,o),
(100,450,o),
(100,425,o),
(100,400,q)
);
},
{
closed = 1;
nodes = (
(125,300,o),
(150,300,o),
(175,300,o),
(200,300,q),
(200,325,o),
(200,350,o),
(200,375,o),
(200,400,q),
(175,400,o),
(150,400,o),
(125,400,o),
(100,400,q),
(100,375,o),
(100,350,o),
(100,325,o),
(100,300,q)
);
},
{
closed = 1;
nodes = (
(225,200,o),
(250,200,o),
(275,200,o),
(300,200,q),
(300,225,o),
(300,250,o),
(300,275,o),
(300,300,q),
(275,300,o),
(250,300,o),
(225,300,o),
(200,300,q),
(200,275,o),
(200,250,o),
(200,225,o),
(200,200,q)
);
},
{
closed = 1;
nodes = (
(325,200,o),
(350,200,o),
(375,200,o),
(400,200,q),
(400,225,o),
(400,250,o),
(400,275,o),
(400,300,q),
(375,300,o),
(350,300,o),
(325,300,o),
(300,300,q),
(300,275,o),
(300,250,o),
(300,225,o),
(300,200,q)
);
},
{
closed = 1;
nodes = (
(425,300,o),
(450,300,o),
(475,300,o),
(500,300,q),
(500,325,o),
(500,350,o),
(500,375,o),
(500,400,q),
(475,400,o),
(450,400,o),
(425,400,o),
(400,400,q),
(400,375,o),
(400,350,o),
(400,325,o),
(400,300,q)
);
},
{
closed = 1;
nodes = (
(425,200,o),
(450,200,o),
(475,200,o),
(500,200,q),
(500,225,o),
(500,250,o),
(500,275,o),
(500,300,q),
(475,300,o),
(450,300,o),
(425,300,o),
(400,300,q),
(400,275,o),
(400,250,o),
(400,225,o),
(400,200,q)
);
},
{
closed = 1;
nodes = (
(425,100,o),
(450,100,o),
(475,100,o),
(500,100,q),
(500,125,o),
(500,150,o),
(500,175,o),
(500,200,q),
(475,200,o),
(450,200,o),
(425,200,o),
(400,200,q),
(400,175,o),
(400,150,o),
(400,125,o),
(400,100,q)
);
},
{
closed = 1;
nodes = (
(425,0,o),
(450,0,o),
(475,0,o),
(500,0,q),
(500,25,o),
(500,50,o),
(500,75,o),
(500,100,q),
(475,100,o),
(450,100,o),
(425,100,o),
(400,100,q),
(400,75,o),
(400,50,o),
(400,25,o),
(400,0,q)
);
},
{
closed = 1;
nodes = (
(425,-100,o),
(450,-100,o),
(475,-100,o),
(500,-100,q),
(500,-75,o),
(500,-50,o),
(500,-25,o),
(500,0,q),
(475,0,o),
(450,0,o),
(425,0,o),
(400,0,q),
(400,-25,o),
(400,-50,o),
(400,-75,o),
(400,-100,q)
);
},
{
closed = 1;
nodes = (
(525,-200,o),
(550,-200,o),
(575,-200,o),
(600,-200,q),
(600,-175,o),
(600,-150,o),
(600,-125,o),
(600,-100,q),
(575,-100,o),
(550,-100,o),
(525,-100,o),
(500,-100,q),
(500,-125,o),
(500,-150,o),
(500,-175,o),
(500,-200,q)
);
}
);
width = 600;
},
{
layerId = "FEF0E8F1-F572-4E0C-8E3A-3334D1706851";
shapes = (
{
closed = 1;
nodes = (
(510,478,o),
(551,463,o),
(591,479,o),
(600,500,q),
(626,502,o),
(643,546,o),
(622,594,o),
(600,600,q),
(600,626,o),
(547,645,o),
(496,623,o),
(500,600,q),
(478,600,o),
(457,550,o),
(475,500,o),
(500,500,q)
);
},
{
closed = 1;
nodes = (
(410,378,o),
(451,363,o),
(491,379,o),
(500,400,q),
(526,402,o),
(543,446,o),
(522,494,o),
(500,500,q),
(500,526,o),
(447,545,o),
(396,523,o),
(400,500,q),
(378,500,o),
(357,450,o),
(375,400,o),
(400,400,q)
);
},
{
closed = 1;
nodes = (
(310,478,o),
(351,463,o),
(391,479,o),
(400,500,q),
(426,502,o),
(443,546,o),
(422,594,o),
(400,600,q),
(400,626,o),
(347,645,o),
(296,623,o),
(300,600,q),
(278,600,o),
(257,550,o),
(275,500,o),
(300,500,q)
);
},
{
closed = 1;
nodes = (
(210,478,o),
(251,463,o),
(291,479,o),
(300,500,q),
(326,502,o),
(343,546,o),
(322,594,o),
(300,600,q),
(300,626,o),
(247,645,o),
(196,623,o),
(200,600,q),
(178,600,o),
(157,550,o),
(175,500,o),
(200,500,q)
);
},
{
closed = 1;
nodes = (
(110,378,o),
(151,363,o),
(191,379,o),
(200,400,q),
(226,402,o),
(243,446,o),
(222,494,o),
(200,500,q),
(200,526,o),
(147,545,o),
(96,523,o),
(100,500,q),
(78,500,o),
(57,450,o),
(75,400,o),
(100,400,q)
);
},
{
closed = 1;
nodes = (
(110,278,o),
(151,263,o),
(191,279,o),
(200,300,q),
(226,302,o),
(243,346,o),
(222,394,o),
(200,400,q),
(200,426,o),
(147,445,o),
(96,423,o),
(100,400,q),
(78,400,o),
(57,350,o),
(75,300,o),
(100,300,q)
);
},
{
closed = 1;
nodes = (
(210,178,o),
(251,163,o),
(291,179,o),
(300,200,q),
(326,202,o),
(343,246,o),
(322,294,o),
(300,300,q),
(300,326,o),
(247,345,o),
(196,323,o),
(200,300,q),
(178,300,o),
(157,250,o),
(175,200,o),
(200,200,q)
);
},
{
closed = 1;
nodes = (
(310,178,o),
(351,163,o),
(391,179,o),
(400,200,q),
(426,202,o),
(443,246,o),
(422,294,o),
(400,300,q),
(400,326,o),
(347,345,o),
(296,323,o),
(300,300,q),
(278,300,o),
(257,250,o),
(275,200,o),
(300,200,q)
);
},
{
closed = 1;
nodes = (
(410,278,o),
(451,263,o),
(491,279,o),
(500,300,q),
(526,302,o),
(543,346,o),
(522,394,o),
(500,400,q),
(500,426,o),
(447,445,o),
(396,423,o),
(400,400,q),
(378,400,o),
(357,350,o),
(375,300,o),
(400,300,q)
);
},
{
closed = 1;
nodes = (
(410,178,o),
(451,163,o),
(491,179,o),
(500,200,q),
(526,202,o),
(543,246,o),
(522,294,o),
(500,300,q),
(500,326,o),
(447,345,o),
(396,323,o),
(400,300,q),
(378,300,o),
(357,250,o),
(375,200,o),
(400,200,q)
);
},
{
closed = 1;
nodes = (
(410,78,o),
(451,63,o),
(491,79,o),
(500,100,q),
(526,102,o),
(543,146,o),
(522,194,o),
(500,200,q),
(500,226,o),
(447,245,o),
(396,223,o),
(400,200,q),
(378,200,o),
(357,150,o),
(375,100,o),
(400,100,q)
);
},
{
closed = 1;
nodes = (
(410,-22,o),
(451,-37,o),
(491,-21,o),
(500,0,q),
(526,2,o),
(543,46,o),
(522,94,o),
(500,100,q),
(500,126,o),
(447,145,o),
(396,123,o),
(400,100,q),
(378,100,o),
(357,50,o),
(375,0,o),
(400,0,q)
);
},
{
closed = 1;
nodes = (
(410,-122,o),
(451,-137,o),
(491,-121,o),
(500,-100,q),
(526,-98,o),
(543,-54,o),
(522,-6,o),
(500,0,q),
(500,26,o),
(447,45,o),
(396,23,o),
(400,0,q),
(378,0,o),
(357,-50,o),
(375,-100,o),
(400,-100,q)
);
},
{
closed = 1;
nodes = (
(510,-222,o),
(551,-237,o),
(591,-221,o),
(600,-200,q),
(626,-198,o),
(643,-154,o),
(622,-106,o),
(600,-100,q),
(600,-74,o),
(547,-55,o),
(496,-77,o),
(500,-100,q),
(478,-100,o),
(457,-150,o),
(475,-200,o),
(500,-200,q)
);
}
);
width = 600;
}
);
note = q;
unicode = 81;
},
{
glyphname = R;
lastChange = "2025-10-03 20:31:35 +0000";
layers = (
{
layerId = m01;
shapes = (
{
closed = 1;
nodes = (
(125,500,o),
(150,500,o),
(175,500,o),
(200,500,q),
(200,525,o),
(200,550,o),
(200,575,o),
(200,600,q),
(175,600,o),
(150,600,o),
(125,600,o),
(100,600,q),
(100,575,o),
(100,550,o),
(100,525,o),
(100,500,q)
);
},
{
closed = 1;
nodes = (
(225,400,o),
(250,400,o),
(275,400,o),
(300,400,q),
(300,425,o),
(300,450,o),
(300,475,o),
(300,500,q),
(275,500,o),
(250,500,o),
(225,500,o),
(200,500,q),
(200,475,o),
(200,450,o),
(200,425,o),
(200,400,q)
);
},
{
closed = 1;
nodes = (
(325,500,o),
(350,500,o),
(375,500,o),
(400,500,q),
(400,525,o),
(400,550,o),
(400,575,o),
(400,600,q),
(375,600,o),
(350,600,o),
(325,600,o),
(300,600,q),
(300,575,o),
(300,550,o),
(300,525,o),
(300,500,q)
);
},
{
closed = 1;
nodes = (
(425,500,o),
(450,500,o),
(475,500,o),
(500,500,q),
(500,525,o),
(500,550,o),
(500,575,o),
(500,600,q),
(475,600,o),
(450,600,o),
(425,600,o),
(400,600,q),
(400,575,o),
(400,550,o),
(400,525,o),
(400,500,q)
);
},
{
closed = 1;
nodes = (
(125,400,o),
(150,400,o),
(175,400,o),
(200,400,q),
(200,425,o),
(200,450,o),
(200,475,o),
(200,500,q),
(175,500,o),
(150,500,o),
(125,500,o),
(100,500,q),
(100,475,o),
(100,450,o),
(100,425,o),
(100,400,q)
);
},
{
closed = 1;
nodes = (
(125,300,o),
(150,300,o),
(175,300,o),
(200,300,q),
(200,325,o),
(200,350,o),
(200,375,o),
(200,400,q),
(175,400,o),
(150,400,o),
(125,400,o),
(100,400,q),
(100,375,o),
(100,350,o),
(100,325,o),
(100,300,q)
);
},
{
closed = 1;
nodes = (
(125,200,o),
(150,200,o),
(175,200,o),
(200,200,q),
(200,225,o),
(200,250,o),
(200,275,o),
(200,300,q),
(175,300,o),
(150,300,o),
(125,300,o),
(100,300,q),
(100,275,o),
(100,250,o),
(100,225,o),
(100,200,q)
);
},
{
closed = 1;
nodes = (
(225,200,o),
(250,200,o),
(275,200,o),
(300,200,q),
(300,225,o),
(300,250,o),
(300,275,o),
(300,300,q),
(275,300,o),
(250,300,o),
(225,300,o),
(200,300,q),
(200,275,o),
(200,250,o),
(200,225,o),
(200,200,q)
);
},
{
closed = 1;
nodes = (
(125,100,o),
(150,100,o),
(175,100,o),
(200,100,q),
(200,125,o),
(200,150,o),
(200,175,o),
(200,200,q),
(175,200,o),
(150,200,o),
(125,200,o),
(100,200,q),
(100,175,o),
(100,150,o),
(100,125,o),
(100,100,q)
);
},
{
closed = 1;
nodes = (
(225,100,o),
(250,100,o),
(275,100,o),
(300,100,q),
(300,125,o),
(300,150,o),
(300,175,o),
(300,200,q),
(275,200,o),
(250,200,o),
(225,200,o),
(200,200,q),
(200,175,o),
(200,150,o),
(200,125,o),
(200,100,q)
);
},
{
closed = 1;
nodes = (
(125,0,o),
(150,0,o),
(175,0,o),
(200,0,q),
(200,25,o),
(200,50,o),
(200,75,o),
(200,100,q),
(175,100,o),
(150,100,o),
(125,100,o),
(100,100,q),
(100,75,o),
(100,50,o),
(100,25,o),
(100,0,q)
);
},
{
closed = 1;
nodes = (
(225,0,o),
(250,0,o),
(275,0,o),
(300,0,q),
(300,25,o),
(300,50,o),
(300,75,o),
(300,100,q),
(275,100,o),
(250,100,o),
(225,100,o),
(200,100,q),
(200,75,o),
(200,50,o),
(200,25,o),
(200,0,q)
);
},
{
closed = 1;
nodes = (
(225,300,o),
(250,300,o),
(275,300,o),
(300,300,q),
(300,325,o),
(300,350,o),
(300,375,o),
(300,400,q),
(275,400,o),
(250,400,o),
(225,400,o),
(200,400,q),
(200,375,o),
(200,350,o),
(200,325,o),
(200,300,q)
);
},
{
closed = 1;
nodes = (
(525,400,o),
(550,400,o),
(575,400,o),
(600,400,q),
(600,425,o),
(600,450,o),
(600,475,o),
(600,500,q),
(575,500,o),
(550,500,o),
(525,500,o),
(500,500,q),
(500,475,o),
(500,450,o),
(500,425,o),
(500,400,q)
);
},
{
closed = 1;
nodes = (
(525,500,o),
(550,500,o),
(575,500,o),
(600,500,q),
(600,525,o),
(600,550,o),
(600,575,o),
(600,600,q),
(575,600,o),
(550,600,o),
(525,600,o),
(500,600,q),
(500,575,o),
(500,550,o),
(500,525,o),
(500,500,q)
);
}
);
width = 600;
},
{
layerId = "FEF0E8F1-F572-4E0C-8E3A-3334D1706851";
shapes = (
{
closed = 1;
nodes = (
(110,478,o),
(151,463,o),
(191,479,o),
(200,500,q),
(226,502,o),
(243,546,o),
(222,594,o),
(200,600,q),
(200,626,o),
(147,645,o),
(96,623,o),
(100,600,q),
(78,600,o),
(57,550,o),
(75,500,o),
(100,500,q)
);
},
{
closed = 1;
nodes = (
(210,378,o),
(251,363,o),
(291,379,o),
(300,400,q),
(326,402,o),
(343,446,o),
(322,494,o),
(300,500,q),
(300,526,o),
(247,545,o),
(196,523,o),
(200,500,q),
(178,500,o),
(157,450,o),
(175,400,o),
(200,400,q)
);
},
{
closed = 1;
nodes = (
(310,478,o),
(351,463,o),
(391,479,o),
(400,500,q),
(426,502,o),
(443,546,o),
(422,594,o),
(400,600,q),
(400,626,o),
(347,645,o),
(296,623,o),
(300,600,q),
(278,600,o),
(257,550,o),
(275,500,o),
(300,500,q)
);
},
{
closed = 1;
nodes = (
(410,478,o),
(451,463,o),
(491,479,o),
(500,500,q),
(526,502,o),
(543,546,o),
(522,594,o),
(500,600,q),
(500,626,o),
(447,645,o),
(396,623,o),
(400,600,q),
(378,600,o),
(357,550,o),
(375,500,o),
(400,500,q)
);
},
{
closed = 1;
nodes = (
(110,378,o),
(151,363,o),
(191,379,o),
(200,400,q),
(226,402,o),
(243,446,o),
(222,494,o),
(200,500,q),
(200,526,o),
(147,545,o),
(96,523,o),
(100,500,q),
(78,500,o),
(57,450,o),
(75,400,o),
(100,400,q)
);
},
{
closed = 1;
nodes = (
(110,278,o),
(151,263,o),
(191,279,o),
(200,300,q),
(226,302,o),
(243,346,o),
(222,394,o),
(200,400,q),
(200,426,o),
(147,445,o),
(96,423,o),
(100,400,q),
(78,400,o),
(57,350,o),
(75,300,o),
(100,300,q)
);
},
{
closed = 1;
nodes = (
(110,178,o),
(151,163,o),
(191,179,o),
(200,200,q),
(226,202,o),
(243,246,o),
(222,294,o),
(200,300,q),
(200,326,o),
(147,345,o),
(96,323,o),
(100,300,q),
(78,300,o),
(57,250,o),
(75,200,o),
(100,200,q)
);
},
{
closed = 1;
nodes = (
(210,178,o),
(251,163,o),
(291,179,o),
(300,200,q),
(326,202,o),
(343,246,o),
(322,294,o),
(300,300,q),
(300,326,o),
(247,345,o),
(196,323,o),
(200,300,q),
(178,300,o),
(157,250,o),
(175,200,o),
(200,200,q)
);
},
{
closed = 1;
nodes = (
(110,78,o),
(151,63,o),
(191,79,o),
(200,100,q),
(226,102,o),
(243,146,o),
(222,194,o),
(200,200,q),
(200,226,o),
(147,245,o),
(96,223,o),
(100,200,q),
(78,200,o),
(57,150,o),
(75,100,o),
(100,100,q)
);
},
{
closed = 1;
nodes = (
(210,78,o),
(251,63,o),
(291,79,o),
(300,100,q),
(326,102,o),
(343,146,o),
(322,194,o),
(300,200,q),
(300,226,o),
(247,245,o),
(196,223,o),
(200,200,q),
(178,200,o),
(157,150,o),
(175,100,o),
(200,100,q)
);
},
{
closed = 1;
nodes = (
(110,-22,o),
(151,-37,o),
(191,-21,o),
(200,0,q),
(226,2,o),
(243,46,o),
(222,94,o),
(200,100,q),
(200,126,o),
(147,145,o),
(96,123,o),
(100,100,q),
(78,100,o),
(57,50,o),
(75,0,o),
(100,0,q)
);
},
{
closed = 1;
nodes = (
(210,-22,o),
(251,-37,o),
(291,-21,o),
(300,0,q),
(326,2,o),
(343,46,o),
(322,94,o),
(300,100,q),
(300,126,o),
(247,145,o),
(196,123,o),
(200,100,q),
(178,100,o),
(157,50,o),
(175,0,o),
(200,0,q)
);
},
{
closed = 1;
nodes = (
(210,278,o),
(251,263,o),
(291,279,o),
(300,300,q),
(326,302,o),
(343,346,o),
(322,394,o),
(300,400,q),
(300,426,o),
(247,445,o),
(196,423,o),
(200,400,q),
(178,400,o),
(157,350,o),
(175,300,o),
(200,300,q)
);
},
{
closed = 1;
nodes = (
(510,378,o),
(551,363,o),
(591,379,o),
(600,400,q),
(626,402,o),
(643,446,o),
(622,494,o),
(600,500,q),
(600,526,o),
(547,545,o),
(496,523,o),
(500,500,q),
(478,500,o),
(457,450,o),
(475,400,o),
(500,400,q)
);
},
{
closed = 1;
nodes = (
(510,478,o),
(551,463,o),
(591,479,o),
(600,500,q),
(626,502,o),
(643,546,o),
(622,594,o),
(600,600,q),
(600,626,o),
(547,645,o),
(496,623,o),
(500,600,q),
(478,600,o),
(457,550,o),
(475,500,o),
(500,500,q)
);
}
);
width = 600;
}
);
note = r;
unicode = 82;
},
{
glyphname = S;
lastChange = "2025-10-03 20:31:35 +0000";
layers = (
{
layerId = m01;
shapes = (
{
closed = 1;
nodes = (
(325,500,o),
(350,500,o),
(375,500,o),
(400,500,q),
(400,525,o),
(400,550,o),
(400,575,o),
(400,600,q),
(375,600,o),
(350,600,o),
(325,600,o),
(300,600,q),
(300,575,o),
(300,550,o),
(300,525,o),
(300,500,q)
);
},
{
closed = 1;
nodes = (
(225,500,o),
(250,500,o),
(275,500,o),
(300,500,q),
(300,525,o),
(300,550,o),
(300,575,o),
(300,600,q),
(275,600,o),
(250,600,o),
(225,600,o),
(200,600,q),
(200,575,o),
(200,550,o),
(200,525,o),
(200,500,q)
);
},
{
closed = 1;
nodes = (
(325,200,o),
(350,200,o),
(375,200,o),
(400,200,q),
(400,225,o),
(400,250,o),
(400,275,o),
(400,300,q),
(375,300,o),
(350,300,o),
(325,300,o),
(300,300,q),
(300,275,o),
(300,250,o),
(300,225,o),
(300,200,q)
);
},
{
closed = 1;
nodes = (
(225,0,o),
(250,0,o),
(275,0,o),
(300,0,q),
(300,25,o),
(300,50,o),
(300,75,o),
(300,100,q),
(275,100,o),
(250,100,o),
(225,100,o),
(200,100,q),
(200,75,o),
(200,50,o),
(200,25,o),
(200,0,q)
);
},
{
closed = 1;
nodes = (
(125,0,o),
(150,0,o),
(175,0,o),
(200,0,q),
(200,25,o),
(200,50,o),
(200,75,o),
(200,100,q),
(175,100,o),
(150,100,o),
(125,100,o),
(100,100,q),
(100,75,o),
(100,50,o),
(100,25,o),
(100,0,q)
);
},
{
closed = 1;
nodes = (
(125,400,o),
(150,400,o),
(175,400,o),
(200,400,q),
(200,425,o),
(200,450,o),
(200,475,o),
(200,500,q),
(175,500,o),
(150,500,o),
(125,500,o),
(100,500,q),
(100,475,o),
(100,450,o),
(100,425,o),
(100,400,q)
);
},
{
closed = 1;
nodes = (
(425,200,o),
(450,200,o),
(475,200,o),
(500,200,q),
(500,225,o),
(500,250,o),
(500,275,o),
(500,300,q),
(475,300,o),
(450,300,o),
(425,300,o),
(400,300,q),
(400,275,o),
(400,250,o),
(400,225,o),
(400,200,q)
);
},
{
closed = 1;
nodes = (
(325,0,o),
(350,0,o),
(375,0,o),
(400,0,q),
(400,25,o),
(400,50,o),
(400,75,o),
(400,100,q),
(375,100,o),
(350,100,o),
(325,100,o),
(300,100,q),
(300,75,o),
(300,50,o),
(300,25,o),
(300,0,q)
);
},
{
closed = 1;
nodes = (
(125,100,o),
(150,100,o),
(175,100,o),
(200,100,q),
(200,125,o),
(200,150,o),
(200,175,o),
(200,200,q),
(175,200,o),
(150,200,o),
(125,200,o),
(100,200,q),
(100,175,o),
(100,150,o),
(100,125,o),
(100,100,q)
);
},
{
closed = 1;
nodes = (
(425,400,o),
(450,400,o),
(475,400,o),
(500,400,q),
(500,425,o),
(500,450,o),
(500,475,o),
(500,500,q),
(475,500,o),
(450,500,o),
(425,500,o),
(400,500,q),
(400,475,o),
(400,450,o),
(400,425,o),
(400,400,q)
);
},
{
closed = 1;
nodes = (
(425,100,o),
(450,100,o),
(475,100,o),
(500,100,q),
(500,125,o),
(500,150,o),
(500,175,o),
(500,200,q),
(475,200,o),
(450,200,o),
(425,200,o),
(400,200,q),
(400,175,o),
(400,150,o),
(400,125,o),
(400,100,q)
);
},
{
closed = 1;
nodes = (
(225,300,o),
(250,300,o),
(275,300,o),
(300,300,q),
(300,325,o),
(300,350,o),
(300,375,o),
(300,400,q),
(275,400,o),
(250,400,o),
(225,400,o),
(200,400,q),
(200,375,o),
(200,350,o),
(200,325,o),
(200,300,q)
);
},
{
closed = 1;
nodes = (
(125,300,o),
(150,300,o),
(175,300,o),
(200,300,q),
(200,325,o),
(200,350,o),
(200,375,o),
(200,400,q),
(175,400,o),
(150,400,o),
(125,400,o),
(100,400,q),
(100,375,o),
(100,350,o),
(100,325,o),
(100,300,q)
);
},
{
closed = 1;
nodes = (
(425,500,o),
(450,500,o),
(475,500,o),
(500,500,q),
(500,525,o),
(500,550,o),
(500,575,o),
(500,600,q),
(475,600,o),
(450,600,o),
(425,600,o),
(400,600,q),
(400,575,o),
(400,550,o),
(400,525,o),
(400,500,q)
);
}
);
width = 600;
},
{
layerId = "FEF0E8F1-F572-4E0C-8E3A-3334D1706851";
shapes = (
{
closed = 1;
nodes = (
(310,478,o),
(351,463,o),
(391,479,o),
(400,500,q),
(426,502,o),
(443,546,o),
(422,594,o),
(400,600,q),
(400,626,o),
(347,645,o),
(296,623,o),
(300,600,q),
(278,600,o),
(257,550,o),
(275,500,o),
(300,500,q)
);
},
{
closed = 1;
nodes = (
(210,478,o),
(251,463,o),
(291,479,o),
(300,500,q),
(326,502,o),
(343,546,o),
(322,594,o),
(300,600,q),
(300,626,o),
(247,645,o),
(196,623,o),
(200,600,q),
(178,600,o),
(157,550,o),
(175,500,o),
(200,500,q)
);
},
{
closed = 1;
nodes = (
(310,178,o),
(351,163,o),
(391,179,o),
(400,200,q),
(426,202,o),
(443,246,o),
(422,294,o),
(400,300,q),
(400,326,o),
(347,345,o),
(296,323,o),
(300,300,q),
(278,300,o),
(257,250,o),
(275,200,o),
(300,200,q)
);
},
{
closed = 1;
nodes = (
(210,-22,o),
(251,-37,o),
(291,-21,o),
(300,0,q),
(326,2,o),
(343,46,o),
(322,94,o),
(300,100,q),
(300,126,o),
(247,145,o),
(196,123,o),
(200,100,q),
(178,100,o),
(157,50,o),
(175,0,o),
(200,0,q)
);
},
{
closed = 1;
nodes = (
(110,-22,o),
(151,-37,o),
(191,-21,o),
(200,0,q),
(226,2,o),
(243,46,o),
(222,94,o),
(200,100,q),
(200,126,o),
(147,145,o),
(96,123,o),
(100,100,q),
(78,100,o),
(57,50,o),
(75,0,o),
(100,0,q)
);
},
{
closed = 1;
nodes = (
(110,378,o),
(151,363,o),
(191,379,o),
(200,400,q),
(226,402,o),
(243,446,o),
(222,494,o),
(200,500,q),
(200,526,o),
(147,545,o),
(96,523,o),
(100,500,q),
(78,500,o),
(57,450,o),
(75,400,o),
(100,400,q)
);
},
{
closed = 1;
nodes = (
(410,178,o),
(451,163,o),
(491,179,o),
(500,200,q),
(526,202,o),
(543,246,o),
(522,294,o),
(500,300,q),
(500,326,o),
(447,345,o),
(396,323,o),
(400,300,q),
(378,300,o),
(357,250,o),
(375,200,o),
(400,200,q)
);
},
{
closed = 1;
nodes = (
(310,-22,o),
(351,-37,o),
(391,-21,o),
(400,0,q),
(426,2,o),
(443,46,o),
(422,94,o),
(400,100,q),
(400,126,o),
(347,145,o),
(296,123,o),
(300,100,q),
(278,100,o),
(257,50,o),
(275,0,o),
(300,0,q)
);
},
{
closed = 1;
nodes = (
(110,78,o),
(151,63,o),
(191,79,o),
(200,100,q),
(226,102,o),
(243,146,o),
(222,194,o),
(200,200,q),
(200,226,o),
(147,245,o),
(96,223,o),
(100,200,q),
(78,200,o),
(57,150,o),
(75,100,o),
(100,100,q)
);
},
{
closed = 1;
nodes = (
(410,378,o),
(451,363,o),
(491,379,o),
(500,400,q),
(526,402,o),
(543,446,o),
(522,494,o),
(500,500,q),
(500,526,o),
(447,545,o),
(396,523,o),
(400,500,q),
(378,500,o),
(357,450,o),
(375,400,o),
(400,400,q)
);
},
{
closed = 1;
nodes = (
(410,78,o),
(451,63,o),
(491,79,o),
(500,100,q),
(526,102,o),
(543,146,o),
(522,194,o),
(500,200,q),
(500,226,o),
(447,245,o),
(396,223,o),
(400,200,q),
(378,200,o),
(357,150,o),
(375,100,o),
(400,100,q)
);
},
{
closed = 1;
nodes = (
(210,278,o),
(251,263,o),
(291,279,o),
(300,300,q),
(326,302,o),
(343,346,o),
(322,394,o),
(300,400,q),
(300,426,o),
(247,445,o),
(196,423,o),
(200,400,q),
(178,400,o),
(157,350,o),
(175,300,o),
(200,300,q)
);
},
{
closed = 1;
nodes = (
(110,278,o),
(151,263,o),
(191,279,o),
(200,300,q),
(226,302,o),
(243,346,o),
(222,394,o),
(200,400,q),
(200,426,o),
(147,445,o),
(96,423,o),
(100,400,q),
(78,400,o),
(57,350,o),
(75,300,o),
(100,300,q)
);
},
{
closed = 1;
nodes = (
(410,478,o),
(451,463,o),
(491,479,o),
(500,500,q),
(526,502,o),
(543,546,o),
(522,594,o),
(500,600,q),
(500,626,o),
(447,645,o),
(396,623,o),
(400,600,q),
(378,600,o),
(357,550,o),
(375,500,o),
(400,500,q)
);
}
);
width = 600;
}
);
note = s;
unicode = 83;
},
{
glyphname = T;
lastChange = "2025-10-03 20:31:35 +0000";
layers = (
{
layerId = m01;
shapes = (
{
closed = 1;
nodes = (
(225,600,o),
(250,600,o),
(275,600,o),
(300,600,q),
(300,625,o),
(300,650,o),
(300,675,o),
(300,700,q),
(275,700,o),
(250,700,o),
(225,700,o),
(200,700,q),
(200,675,o),
(200,650,o),
(200,625,o),
(200,600,q)
);
},
{
closed = 1;
nodes = (
(225,500,o),
(250,500,o),
(275,500,o),
(300,500,q),
(300,525,o),
(300,550,o),
(300,575,o),
(300,600,q),
(275,600,o),
(250,600,o),
(225,600,o),
(200,600,q),
(200,575,o),
(200,550,o),
(200,525,o),
(200,500,q)
);
},
{
closed = 1;
nodes = (
(125,400,o),
(150,400,o),
(175,400,o),
(200,400,q),
(200,425,o),
(200,450,o),
(200,475,o),
(200,500,q),
(175,500,o),
(150,500,o),
(125,500,o),
(100,500,q),
(100,475,o),
(100,450,o),
(100,425,o),
(100,400,q)
);
},
{
closed = 1;
nodes = (
(225,400,o),
(250,400,o),
(275,400,o),
(300,400,q),
(300,425,o),
(300,450,o),
(300,475,o),
(300,500,q),
(275,500,o),
(250,500,o),
(225,500,o),
(200,500,q),
(200,475,o),
(200,450,o),
(200,425,o),
(200,400,q)
);
},
{
closed = 1;
nodes = (
(325,400,o),
(350,400,o),
(375,400,o),
(400,400,q),
(400,425,o),
(400,450,o),
(400,475,o),
(400,500,q),
(375,500,o),
(350,500,o),
(325,500,o),
(300,500,q),
(300,475,o),
(300,450,o),
(300,425,o),
(300,400,q)
);
},
{
closed = 1;
nodes = (
(225,300,o),
(250,300,o),
(275,300,o),
(300,300,q),
(300,325,o),
(300,350,o),
(300,375,o),
(300,400,q),
(275,400,o),
(250,400,o),
(225,400,o),
(200,400,q),
(200,375,o),
(200,350,o),
(200,325,o),
(200,300,q)
);
},
{
closed = 1;
nodes = (
(225,200,o),
(250,200,o),
(275,200,o),
(300,200,q),
(300,225,o),
(300,250,o),
(300,275,o),
(300,300,q),
(275,300,o),
(250,300,o),
(225,300,o),
(200,300,q),
(200,275,o),
(200,250,o),
(200,225,o),
(200,200,q)
);
},
{
closed = 1;
nodes = (
(225,100,o),
(250,100,o),
(275,100,o),
(300,100,q),
(300,125,o),
(300,150,o),
(300,175,o),
(300,200,q),
(275,200,o),
(250,200,o),
(225,200,o),
(200,200,q),
(200,175,o),
(200,150,o),
(200,125,o),
(200,100,q)
);
},
{
closed = 1;
nodes = (
(225,0,o),
(250,0,o),
(275,0,o),
(300,0,q),
(300,25,o),
(300,50,o),
(300,75,o),
(300,100,q),
(275,100,o),
(250,100,o),
(225,100,o),
(200,100,q),
(200,75,o),
(200,50,o),
(200,25,o),
(200,0,q)
);
},
{
closed = 1;
nodes = (
(325,0,o),
(350,0,o),
(375,0,o),
(400,0,q),
(400,25,o),
(400,50,o),
(400,75,o),
(400,100,q),
(375,100,o),
(350,100,o),
(325,100,o),
(300,100,q),
(300,75,o),
(300,50,o),
(300,25,o),
(300,0,q)
);
},
{
closed = 1;
nodes = (
(425,100,o),
(450,100,o),
(475,100,o),
(500,100,q),
(500,125,o),
(500,150,o),
(500,175,o),
(500,200,q),
(475,200,o),
(450,200,o),
(425,200,o),
(400,200,q),
(400,175,o),
(400,150,o),
(400,125,o),
(400,100,q)
);
},
{
closed = 1;
nodes = (
(425,400,o),
(450,400,o),
(475,400,o),
(500,400,q),
(500,425,o),
(500,450,o),
(500,475,o),
(500,500,q),
(475,500,o),
(450,500,o),
(425,500,o),
(400,500,q),
(400,475,o),
(400,450,o),
(400,425,o),
(400,400,q)
);
},
{
closed = 1;
nodes = (
(325,700,o),
(350,700,o),
(375,700,o),
(400,700,q),
(400,725,o),
(400,750,o),
(400,775,o),
(400,800,q),
(375,800,o),
(350,800,o),
(325,800,o),
(300,800,q),
(300,775,o),
(300,750,o),
(300,725,o),
(300,700,q)
);
}
);
width = 600;
},
{
layerId = "FEF0E8F1-F572-4E0C-8E3A-3334D1706851";
shapes = (
{
closed = 1;
nodes = (
(210,578,o),
(251,563,o),
(291,579,o),
(300,600,q),
(326,602,o),
(343,646,o),
(322,694,o),
(300,700,q),
(300,726,o),
(247,745,o),
(196,723,o),
(200,700,q),
(178,700,o),
(157,650,o),
(175,600,o),
(200,600,q)
);
},
{
closed = 1;
nodes = (
(210,478,o),
(251,463,o),
(291,479,o),
(300,500,q),
(326,502,o),
(343,546,o),
(322,594,o),
(300,600,q),
(300,626,o),
(247,645,o),
(196,623,o),
(200,600,q),
(178,600,o),
(157,550,o),
(175,500,o),
(200,500,q)
);
},
{
closed = 1;
nodes = (
(110,378,o),
(151,363,o),
(191,379,o),
(200,400,q),
(226,402,o),
(243,446,o),
(222,494,o),
(200,500,q),
(200,526,o),
(147,545,o),
(96,523,o),
(100,500,q),
(78,500,o),
(57,450,o),
(75,400,o),
(100,400,q)
);
},
{
closed = 1;
nodes = (
(210,378,o),
(251,363,o),
(291,379,o),
(300,400,q),
(326,402,o),
(343,446,o),
(322,494,o),
(300,500,q),
(300,526,o),
(247,545,o),
(196,523,o),
(200,500,q),
(178,500,o),
(157,450,o),
(175,400,o),
(200,400,q)
);
},
{
closed = 1;
nodes = (
(310,378,o),
(351,363,o),
(391,379,o),
(400,400,q),
(426,402,o),
(443,446,o),
(422,494,o),
(400,500,q),
(400,526,o),
(347,545,o),
(296,523,o),
(300,500,q),
(278,500,o),
(257,450,o),
(275,400,o),
(300,400,q)
);
},
{
closed = 1;
nodes = (
(210,278,o),
(251,263,o),
(291,279,o),
(300,300,q),
(326,302,o),
(343,346,o),
(322,394,o),
(300,400,q),
(300,426,o),
(247,445,o),
(196,423,o),
(200,400,q),
(178,400,o),
(157,350,o),
(175,300,o),
(200,300,q)
);
},
{
closed = 1;
nodes = (
(210,178,o),
(251,163,o),
(291,179,o),
(300,200,q),
(326,202,o),
(343,246,o),
(322,294,o),
(300,300,q),
(300,326,o),
(247,345,o),
(196,323,o),
(200,300,q),
(178,300,o),
(157,250,o),
(175,200,o),
(200,200,q)
);
},
{
closed = 1;
nodes = (
(210,78,o),
(251,63,o),
(291,79,o),
(300,100,q),
(326,102,o),
(343,146,o),
(322,194,o),
(300,200,q),
(300,226,o),
(247,245,o),
(196,223,o),
(200,200,q),
(178,200,o),
(157,150,o),
(175,100,o),
(200,100,q)
);
},
{
closed = 1;
nodes = (
(210,-22,o),
(251,-37,o),
(291,-21,o),
(300,0,q),
(326,2,o),
(343,46,o),
(322,94,o),
(300,100,q),
(300,126,o),
(247,145,o),
(196,123,o),
(200,100,q),
(178,100,o),
(157,50,o),
(175,0,o),
(200,0,q)
);
},
{
closed = 1;
nodes = (
(310,-22,o),
(351,-37,o),
(391,-21,o),
(400,0,q),
(426,2,o),
(443,46,o),
(422,94,o),
(400,100,q),
(400,126,o),
(347,145,o),
(296,123,o),
(300,100,q),
(278,100,o),
(257,50,o),
(275,0,o),
(300,0,q)
);
},
{
closed = 1;
nodes = (
(410,78,o),
(451,63,o),
(491,79,o),
(500,100,q),
(526,102,o),
(543,146,o),
(522,194,o),
(500,200,q),
(500,226,o),
(447,245,o),
(396,223,o),
(400,200,q),
(378,200,o),
(357,150,o),
(375,100,o),
(400,100,q)
);
},
{
closed = 1;
nodes = (
(410,378,o),
(451,363,o),
(491,379,o),
(500,400,q),
(526,402,o),
(543,446,o),
(522,494,o),
(500,500,q),
(500,526,o),
(447,545,o),
(396,523,o),
(400,500,q),
(378,500,o),
(357,450,o),
(375,400,o),
(400,400,q)
);
},
{
closed = 1;
nodes = (
(310,678,o),
(351,663,o),
(391,679,o),
(400,700,q),
(426,702,o),
(443,746,o),
(422,794,o),
(400,800,q),
(400,826,o),
(347,845,o),
(296,823,o),
(300,800,q),
(278,800,o),
(257,750,o),
(275,700,o),
(300,700,q)
);
}
);
width = 600;
}
);
note = t;
unicode = 84;
},
{
glyphname = U;
lastChange = "2025-10-03 20:31:35 +0000";
layers = (
{
layerId = m01;
shapes = (
{
closed = 1;
nodes = (
(25,400,o),
(50,400,o),
(75,400,o),
(100,400,q),
(100,425,o),
(100,450,o),
(100,475,o),
(100,500,q),
(75,500,o),
(50,500,o),
(25,500,o),
(0,500,q),
(0,475,o),
(0,450,o),
(0,425,o),
(0,400,q)
);
},
{
closed = 1;
nodes = (
(125,400,o),
(150,400,o),
(175,400,o),
(200,400,q),
(200,425,o),
(200,450,o),
(200,475,o),
(200,500,q),
(175,500,o),
(150,500,o),
(125,500,o),
(100,500,q),
(100,475,o),
(100,450,o),
(100,425,o),
(100,400,q)
);
},
{
closed = 1;
nodes = (
(25,500,o),
(50,500,o),
(75,500,o),
(100,500,q),
(100,525,o),
(100,550,o),
(100,575,o),
(100,600,q),
(75,600,o),
(50,600,o),
(25,600,o),
(0,600,q),
(0,575,o),
(0,550,o),
(0,525,o),
(0,500,q)
);
},
{
closed = 1;
nodes = (
(125,500,o),
(150,500,o),
(175,500,o),
(200,500,q),
(200,525,o),
(200,550,o),
(200,575,o),
(200,600,q),
(175,600,o),
(150,600,o),
(125,600,o),
(100,600,q),
(100,575,o),
(100,550,o),
(100,525,o),
(100,500,q)
);
},
{
closed = 1;
nodes = (
(125,300,o),
(150,300,o),
(175,300,o),
(200,300,q),
(200,325,o),
(200,350,o),
(200,375,o),
(200,400,q),
(175,400,o),
(150,400,o),
(125,400,o),
(100,400,q),
(100,375,o),
(100,350,o),
(100,325,o),
(100,300,q)
);
},
{
closed = 1;
nodes = (
(25,300,o),
(50,300,o),
(75,300,o),
(100,300,q),
(100,325,o),
(100,350,o),
(100,375,o),
(100,400,q),
(75,400,o),
(50,400,o),
(25,400,o),
(0,400,q),
(0,375,o),
(0,350,o),
(0,325,o),
(0,300,q)
);
},
{
closed = 1;
nodes = (
(25,200,o),
(50,200,o),
(75,200,o),
(100,200,q),
(100,225,o),
(100,250,o),
(100,275,o),
(100,300,q),
(75,300,o),
(50,300,o),
(25,300,o),
(0,300,q),
(0,275,o),
(0,250,o),
(0,225,o),
(0,200,q)
);
},
{
closed = 1;
nodes = (
(125,200,o),
(150,200,o),
(175,200,o),
(200,200,q),
(200,225,o),
(200,250,o),
(200,275,o),
(200,300,q),
(175,300,o),
(150,300,o),
(125,300,o),
(100,300,q),
(100,275,o),
(100,250,o),
(100,225,o),
(100,200,q)
);
},
{
closed = 1;
nodes = (
(125,100,o),
(150,100,o),
(175,100,o),
(200,100,q),
(200,125,o),
(200,150,o),
(200,175,o),
(200,200,q),
(175,200,o),
(150,200,o),
(125,200,o),
(100,200,q),
(100,175,o),
(100,150,o),
(100,125,o),
(100,100,q)
);
},
{
closed = 1;
nodes = (
(225,0,o),
(250,0,o),
(275,0,o),
(300,0,q),
(300,25,o),
(300,50,o),
(300,75,o),
(300,100,q),
(275,100,o),
(250,100,o),
(225,100,o),
(200,100,q),
(200,75,o),
(200,50,o),
(200,25,o),
(200,0,q)
);
},
{
closed = 1;
nodes = (
(425,100,o),
(450,100,o),
(475,100,o),
(500,100,q),
(500,125,o),
(500,150,o),
(500,175,o),
(500,200,q),
(475,200,o),
(450,200,o),
(425,200,o),
(400,200,q),
(400,175,o),
(400,150,o),
(400,125,o),
(400,100,q)
);
},
{
closed = 1;
nodes = (
(425,200,o),
(450,200,o),
(475,200,o),
(500,200,q),
(500,225,o),
(500,250,o),
(500,275,o),
(500,300,q),
(475,300,o),
(450,300,o),
(425,300,o),
(400,300,q),
(400,275,o),
(400,250,o),
(400,225,o),
(400,200,q)
);
},
{
closed = 1;
nodes = (
(425,300,o),
(450,300,o),
(475,300,o),
(500,300,q),
(500,325,o),
(500,350,o),
(500,375,o),
(500,400,q),
(475,400,o),
(450,400,o),
(425,400,o),
(400,400,q),
(400,375,o),
(400,350,o),
(400,325,o),
(400,300,q)
);
},
{
closed = 1;
nodes = (
(425,400,o),
(450,400,o),
(475,400,o),
(500,400,q),
(500,425,o),
(500,450,o),
(500,475,o),
(500,500,q),
(475,500,o),
(450,500,o),
(425,500,o),
(400,500,q),
(400,475,o),
(400,450,o),
(400,425,o),
(400,400,q)
);
},
{
closed = 1;
nodes = (
(425,500,o),
(450,500,o),
(475,500,o),
(500,500,q),
(500,525,o),
(500,550,o),
(500,575,o),
(500,600,q),
(475,600,o),
(450,600,o),
(425,600,o),
(400,600,q),
(400,575,o),
(400,550,o),
(400,525,o),
(400,500,q)
);
},
{
closed = 1;
nodes = (
(125,0,o),
(150,0,o),
(175,0,o),
(200,0,q),
(200,25,o),
(200,50,o),
(200,75,o),
(200,100,q),
(175,100,o),
(150,100,o),
(125,100,o),
(100,100,q),
(100,75,o),
(100,50,o),
(100,25,o),
(100,0,q)
);
},
{
closed = 1;
nodes = (
(325,100,o),
(350,100,o),
(375,100,o),
(400,100,q),
(400,125,o),
(400,150,o),
(400,175,o),
(400,200,q),
(375,200,o),
(350,200,o),
(325,200,o),
(300,200,q),
(300,175,o),
(300,150,o),
(300,125,o),
(300,100,q)
);
},
{
closed = 1;
nodes = (
(325,0,o),
(350,0,o),
(375,0,o),
(400,0,q),
(400,25,o),
(400,50,o),
(400,75,o),
(400,100,q),
(375,100,o),
(350,100,o),
(325,100,o),
(300,100,q),
(300,75,o),
(300,50,o),
(300,25,o),
(300,0,q)
);
},
{
closed = 1;
nodes = (
(25,100,o),
(50,100,o),
(75,100,o),
(100,100,q),
(100,125,o),
(100,150,o),
(100,175,o),
(100,200,q),
(75,200,o),
(50,200,o),
(25,200,o),
(0,200,q),
(0,175,o),
(0,150,o),
(0,125,o),
(0,100,q)
);
}
);
width = 600;
},
{
layerId = "FEF0E8F1-F572-4E0C-8E3A-3334D1706851";
shapes = (
{
closed = 1;
nodes = (
(10,378,o),
(51,363,o),
(91,379,o),
(100,400,q),
(126,402,o),
(143,446,o),
(122,494,o),
(100,500,q),
(100,526,o),
(47,545,o),
(-4,523,o),
(0,500,q),
(-22,500,o),
(-43,450,o),
(-25,400,o),
(0,400,q)
);
},
{
closed = 1;
nodes = (
(110,378,o),
(151,363,o),
(191,379,o),
(200,400,q),
(226,402,o),
(243,446,o),
(222,494,o),
(200,500,q),
(200,526,o),
(147,545,o),
(96,523,o),
(100,500,q),
(78,500,o),
(57,450,o),
(75,400,o),
(100,400,q)
);
},
{
closed = 1;
nodes = (
(10,478,o),
(51,463,o),
(91,479,o),
(100,500,q),
(126,502,o),
(143,546,o),
(122,594,o),
(100,600,q),
(100,626,o),
(47,645,o),
(-4,623,o),
(0,600,q),
(-22,600,o),
(-43,550,o),
(-25,500,o),
(0,500,q)
);
},
{
closed = 1;
nodes = (
(110,478,o),
(151,463,o),
(191,479,o),
(200,500,q),
(226,502,o),
(243,546,o),
(222,594,o),
(200,600,q),
(200,626,o),
(147,645,o),
(96,623,o),
(100,600,q),
(78,600,o),
(57,550,o),
(75,500,o),
(100,500,q)
);
},
{
closed = 1;
nodes = (
(110,278,o),
(151,263,o),
(191,279,o),
(200,300,q),
(226,302,o),
(243,346,o),
(222,394,o),
(200,400,q),
(200,426,o),
(147,445,o),
(96,423,o),
(100,400,q),
(78,400,o),
(57,350,o),
(75,300,o),
(100,300,q)
);
},
{
closed = 1;
nodes = (
(10,278,o),
(51,263,o),
(91,279,o),
(100,300,q),
(126,302,o),
(143,346,o),
(122,394,o),
(100,400,q),
(100,426,o),
(47,445,o),
(-4,423,o),
(0,400,q),
(-22,400,o),
(-43,350,o),
(-25,300,o),
(0,300,q)
);
},
{
closed = 1;
nodes = (
(10,178,o),
(51,163,o),
(91,179,o),
(100,200,q),
(126,202,o),
(143,246,o),
(122,294,o),
(100,300,q),
(100,326,o),
(47,345,o),
(-4,323,o),
(0,300,q),
(-22,300,o),
(-43,250,o),
(-25,200,o),
(0,200,q)
);
},
{
closed = 1;
nodes = (
(110,178,o),
(151,163,o),
(191,179,o),
(200,200,q),
(226,202,o),
(243,246,o),
(222,294,o),
(200,300,q),
(200,326,o),
(147,345,o),
(96,323,o),
(100,300,q),
(78,300,o),
(57,250,o),
(75,200,o),
(100,200,q)
);
},
{
closed = 1;
nodes = (
(110,78,o),
(151,63,o),
(191,79,o),
(200,100,q),
(226,102,o),
(243,146,o),
(222,194,o),
(200,200,q),
(200,226,o),
(147,245,o),
(96,223,o),
(100,200,q),
(78,200,o),
(57,150,o),
(75,100,o),
(100,100,q)
);
},
{
closed = 1;
nodes = (
(210,-22,o),
(251,-37,o),
(291,-21,o),
(300,0,q),
(326,2,o),
(343,46,o),
(322,94,o),
(300,100,q),
(300,126,o),
(247,145,o),
(196,123,o),
(200,100,q),
(178,100,o),
(157,50,o),
(175,0,o),
(200,0,q)
);
},
{
closed = 1;
nodes = (
(410,78,o),
(451,63,o),
(491,79,o),
(500,100,q),
(526,102,o),
(543,146,o),
(522,194,o),
(500,200,q),
(500,226,o),
(447,245,o),
(396,223,o),
(400,200,q),
(378,200,o),
(357,150,o),
(375,100,o),
(400,100,q)
);
},
{
closed = 1;
nodes = (
(410,178,o),
(451,163,o),
(491,179,o),
(500,200,q),
(526,202,o),
(543,246,o),
(522,294,o),
(500,300,q),
(500,326,o),
(447,345,o),
(396,323,o),
(400,300,q),
(378,300,o),
(357,250,o),
(375,200,o),
(400,200,q)
);
},
{
closed = 1;
nodes = (
(410,278,o),
(451,263,o),
(491,279,o),
(500,300,q),
(526,302,o),
(543,346,o),
(522,394,o),
(500,400,q),
(500,426,o),
(447,445,o),
(396,423,o),
(400,400,q),
(378,400,o),
(357,350,o),
(375,300,o),
(400,300,q)
);
},
{
closed = 1;
nodes = (
(410,378,o),
(451,363,o),
(491,379,o),
(500,400,q),
(526,402,o),
(543,446,o),
(522,494,o),
(500,500,q),
(500,526,o),
(447,545,o),
(396,523,o),
(400,500,q),
(378,500,o),
(357,450,o),
(375,400,o),
(400,400,q)
);
},
{
closed = 1;
nodes = (
(410,478,o),
(451,463,o),
(491,479,o),
(500,500,q),
(526,502,o),
(543,546,o),
(522,594,o),
(500,600,q),
(500,626,o),
(447,645,o),
(396,623,o),
(400,600,q),
(378,600,o),
(357,550,o),
(375,500,o),
(400,500,q)
);
},
{
closed = 1;
nodes = (
(110,-22,o),
(151,-37,o),
(191,-21,o),
(200,0,q),
(226,2,o),
(243,46,o),
(222,94,o),
(200,100,q),
(200,126,o),
(147,145,o),
(96,123,o),
(100,100,q),
(78,100,o),
(57,50,o),
(75,0,o),
(100,0,q)
);
},
{
closed = 1;
nodes = (
(310,78,o),
(351,63,o),
(391,79,o),
(400,100,q),
(426,102,o),
(443,146,o),
(422,194,o),
(400,200,q),
(400,226,o),
(347,245,o),
(296,223,o),
(300,200,q),
(278,200,o),
(257,150,o),
(275,100,o),
(300,100,q)
);
},
{
closed = 1;
nodes = (
(310,-22,o),
(351,-37,o),
(391,-21,o),
(400,0,q),
(426,2,o),
(443,46,o),
(422,94,o),
(400,100,q),
(400,126,o),
(347,145,o),
(296,123,o),
(300,100,q),
(278,100,o),
(257,50,o),
(275,0,o),
(300,0,q)
);
},
{
closed = 1;
nodes = (
(10,78,o),
(51,63,o),
(91,79,o),
(100,100,q),
(126,102,o),
(143,146,o),
(122,194,o),
(100,200,q),
(100,226,o),
(47,245,o),
(-4,223,o),
(0,200,q),
(-22,200,o),
(-43,150,o),
(-25,100,o),
(0,100,q)
);
}
);
width = 600;
}
);
note = u;
unicode = 85;
},
{
glyphname = V;
lastChange = "2025-10-03 20:31:35 +0000";
layers = (
{
layerId = m01;
shapes = (
{
closed = 1;
nodes = (
(125,500,o),
(150,500,o),
(175,500,o),
(200,500,q),
(200,525,o),
(200,550,o),
(200,575,o),
(200,600,q),
(175,600,o),
(150,600,o),
(125,600,o),
(100,600,q),
(100,575,o),
(100,550,o),
(100,525,o),
(100,500,q)
);
},
{
closed = 1;
nodes = (
(525,300,o),
(550,300,o),
(575,300,o),
(600,300,q),
(600,325,o),
(600,350,o),
(600,375,o),
(600,400,q),
(575,400,o),
(550,400,o),
(525,400,o),
(500,400,q),
(500,375,o),
(500,350,o),
(500,325,o),
(500,300,q)
);
},
{
closed = 1;
nodes = (
(525,400,o),
(550,400,o),
(575,400,o),
(600,400,q),
(600,425,o),
(600,450,o),
(600,475,o),
(600,500,q),
(575,500,o),
(550,500,o),
(525,500,o),
(500,500,q),
(500,475,o),
(500,450,o),
(500,425,o),
(500,400,q)
);
},
{
closed = 1;
nodes = (
(525,500,o),
(550,500,o),
(575,500,o),
(600,500,q),
(600,525,o),
(600,550,o),
(600,575,o),
(600,600,q),
(575,600,o),
(550,600,o),
(525,600,o),
(500,600,q),
(500,575,o),
(500,550,o),
(500,525,o),
(500,500,q)
);
},
{
closed = 1;
nodes = (
(525,200,o),
(550,200,o),
(575,200,o),
(600,200,q),
(600,225,o),
(600,250,o),
(600,275,o),
(600,300,q),
(575,300,o),
(550,300,o),
(525,300,o),
(500,300,q),
(500,275,o),
(500,250,o),
(500,225,o),
(500,200,q)
);
},
{
closed = 1;
nodes = (
(125,300,o),
(150,300,o),
(175,300,o),
(200,300,q),
(200,325,o),
(200,350,o),
(200,375,o),
(200,400,q),
(175,400,o),
(150,400,o),
(125,400,o),
(100,400,q),
(100,375,o),
(100,350,o),
(100,325,o),
(100,300,q)
);
},
{
closed = 1;
nodes = (
(125,200,o),
(150,200,o),
(175,200,o),
(200,200,q),
(200,225,o),
(200,250,o),
(200,275,o),
(200,300,q),
(175,300,o),
(150,300,o),
(125,300,o),
(100,300,q),
(100,275,o),
(100,250,o),
(100,225,o),
(100,200,q)
);
},
{
closed = 1;
nodes = (
(325,100,o),
(350,100,o),
(375,100,o),
(400,100,q),
(400,125,o),
(400,150,o),
(400,175,o),
(400,200,q),
(375,200,o),
(350,200,o),
(325,200,o),
(300,200,q),
(300,175,o),
(300,150,o),
(300,125,o),
(300,100,q)
);
},
{
closed = 1;
nodes = (
(125,400,o),
(150,400,o),
(175,400,o),
(200,400,q),
(200,425,o),
(200,450,o),
(200,475,o),
(200,500,q),
(175,500,o),
(150,500,o),
(125,500,o),
(100,500,q),
(100,475,o),
(100,450,o),
(100,425,o),
(100,400,q)
);
},
{
closed = 1;
nodes = (
(325,0,o),
(350,0,o),
(375,0,o),
(400,0,q),
(400,25,o),
(400,50,o),
(400,75,o),
(400,100,q),
(375,100,o),
(350,100,o),
(325,100,o),
(300,100,q),
(300,75,o),
(300,50,o),
(300,25,o),
(300,0,q)
);
},
{
closed = 1;
nodes = (
(225,100,o),
(250,100,o),
(275,100,o),
(300,100,q),
(300,125,o),
(300,150,o),
(300,175,o),
(300,200,q),
(275,200,o),
(250,200,o),
(225,200,o),
(200,200,q),
(200,175,o),
(200,150,o),
(200,125,o),
(200,100,q)
);
},
{
closed = 1;
nodes = (
(425,100,o),
(450,100,o),
(475,100,o),
(500,100,q),
(500,125,o),
(500,150,o),
(500,175,o),
(500,200,q),
(475,200,o),
(450,200,o),
(425,200,o),
(400,200,q),
(400,175,o),
(400,150,o),
(400,125,o),
(400,100,q)
);
},
{
closed = 1;
nodes = (
(225,200,o),
(250,200,o),
(275,200,o),
(300,200,q),
(300,225,o),
(300,250,o),
(300,275,o),
(300,300,q),
(275,300,o),
(250,300,o),
(225,300,o),
(200,300,q),
(200,275,o),
(200,250,o),
(200,225,o),
(200,200,q)
);
},
{
closed = 1;
nodes = (
(425,200,o),
(450,200,o),
(475,200,o),
(500,200,q),
(500,225,o),
(500,250,o),
(500,275,o),
(500,300,q),
(475,300,o),
(450,300,o),
(425,300,o),
(400,300,q),
(400,275,o),
(400,250,o),
(400,225,o),
(400,200,q)
);
}
);
width = 600;
},
{
layerId = "FEF0E8F1-F572-4E0C-8E3A-3334D1706851";
shapes = (
{
closed = 1;
nodes = (
(110,478,o),
(151,463,o),
(191,479,o),
(200,500,q),
(226,502,o),
(243,546,o),
(222,594,o),
(200,600,q),
(200,626,o),
(147,645,o),
(96,623,o),
(100,600,q),
(78,600,o),
(57,550,o),
(75,500,o),
(100,500,q)
);
},
{
closed = 1;
nodes = (
(510,278,o),
(551,263,o),
(591,279,o),
(600,300,q),
(626,302,o),
(643,346,o),
(622,394,o),
(600,400,q),
(600,426,o),
(547,445,o),
(496,423,o),
(500,400,q),
(478,400,o),
(457,350,o),
(475,300,o),
(500,300,q)
);
},
{
closed = 1;
nodes = (
(510,378,o),
(551,363,o),
(591,379,o),
(600,400,q),
(626,402,o),
(643,446,o),
(622,494,o),
(600,500,q),
(600,526,o),
(547,545,o),
(496,523,o),
(500,500,q),
(478,500,o),
(457,450,o),
(475,400,o),
(500,400,q)
);
},
{
closed = 1;
nodes = (
(510,478,o),
(551,463,o),
(591,479,o),
(600,500,q),
(626,502,o),
(643,546,o),
(622,594,o),
(600,600,q),
(600,626,o),
(547,645,o),
(496,623,o),
(500,600,q),
(478,600,o),
(457,550,o),
(475,500,o),
(500,500,q)
);
},
{
closed = 1;
nodes = (
(510,178,o),
(551,163,o),
(591,179,o),
(600,200,q),
(626,202,o),
(643,246,o),
(622,294,o),
(600,300,q),
(600,326,o),
(547,345,o),
(496,323,o),
(500,300,q),
(478,300,o),
(457,250,o),
(475,200,o),
(500,200,q)
);
},
{
closed = 1;
nodes = (
(110,278,o),
(151,263,o),
(191,279,o),
(200,300,q),
(226,302,o),
(243,346,o),
(222,394,o),
(200,400,q),
(200,426,o),
(147,445,o),
(96,423,o),
(100,400,q),
(78,400,o),
(57,350,o),
(75,300,o),
(100,300,q)
);
},
{
closed = 1;
nodes = (
(110,178,o),
(151,163,o),
(191,179,o),
(200,200,q),
(226,202,o),
(243,246,o),
(222,294,o),
(200,300,q),
(200,326,o),
(147,345,o),
(96,323,o),
(100,300,q),
(78,300,o),
(57,250,o),
(75,200,o),
(100,200,q)
);
},
{
closed = 1;
nodes = (
(310,78,o),
(351,63,o),
(391,79,o),
(400,100,q),
(426,102,o),
(443,146,o),
(422,194,o),
(400,200,q),
(400,226,o),
(347,245,o),
(296,223,o),
(300,200,q),
(278,200,o),
(257,150,o),
(275,100,o),
(300,100,q)
);
},
{
closed = 1;
nodes = (
(110,378,o),
(151,363,o),
(191,379,o),
(200,400,q),
(226,402,o),
(243,446,o),
(222,494,o),
(200,500,q),
(200,526,o),
(147,545,o),
(96,523,o),
(100,500,q),
(78,500,o),
(57,450,o),
(75,400,o),
(100,400,q)
);
},
{
closed = 1;
nodes = (
(310,-22,o),
(351,-37,o),
(391,-21,o),
(400,0,q),
(426,2,o),
(443,46,o),
(422,94,o),
(400,100,q),
(400,126,o),
(347,145,o),
(296,123,o),
(300,100,q),
(278,100,o),
(257,50,o),
(275,0,o),
(300,0,q)
);
},
{
closed = 1;
nodes = (
(210,78,o),
(251,63,o),
(291,79,o),
(300,100,q),
(326,102,o),
(343,146,o),
(322,194,o),
(300,200,q),
(300,226,o),
(247,245,o),
(196,223,o),
(200,200,q),
(178,200,o),
(157,150,o),
(175,100,o),
(200,100,q)
);
},
{
closed = 1;
nodes = (
(410,78,o),
(451,63,o),
(491,79,o),
(500,100,q),
(526,102,o),
(543,146,o),
(522,194,o),
(500,200,q),
(500,226,o),
(447,245,o),
(396,223,o),
(400,200,q),
(378,200,o),
(357,150,o),
(375,100,o),
(400,100,q)
);
},
{
closed = 1;
nodes = (
(210,178,o),
(251,163,o),
(291,179,o),
(300,200,q),
(326,202,o),
(343,246,o),
(322,294,o),
(300,300,q),
(300,326,o),
(247,345,o),
(196,323,o),
(200,300,q),
(178,300,o),
(157,250,o),
(175,200,o),
(200,200,q)
);
},
{
closed = 1;
nodes = (
(410,178,o),
(451,163,o),
(491,179,o),
(500,200,q),
(526,202,o),
(543,246,o),
(522,294,o),
(500,300,q),
(500,326,o),
(447,345,o),
(396,323,o),
(400,300,q),
(378,300,o),
(357,250,o),
(375,200,o),
(400,200,q)
);
}
);
width = 600;
}
);
note = v;
unicode = 86;
},
